  0
SECTION
  2
HEADER
  9
$ANGBASE
  50
0.0
  9
$ANGDIR
  70
1
  9
$MEASUREMENT
  70
1
  9
$INSUNITS
  70
4
  0
ENDSEC
  0
SECTION
  2
TABLES
  0
TABLE
  2
LTYPE
  70
4
  0
LTYPE
  5
40F
  2
CONTINUOUS
  70
0
  3
Solid line
  72
65
  73
0
  40
0.0
  0
LTYPE
  5
410
  2
DASHDOT
 70
0
  3
Dash Dot ____ _ ____ _
 72
65
 73
4
 40
2.0
 49
1.25
 49
-0.25
 49
0.25
 49
-0.25
  0
LTYPE
  5
411
  2
DASHED
 70
0
  3
Dashed __ __ __ __ __
 72
65
 73
2
 40
0.75
 49
0.5
 49
-0.25
  0
LTYPE
  5
43B
  2
DOTTED
 70
0
  3
Dotted .  .  .  .
 72
65
 73
2
 40
0.2
 49
0.0
 49
-0.2
  0
ENDTAB
  0
TABLE
  2
STYLE
  70
4
  0
STYLE
  2
KICAD
  70
0
  40
0
  41
1
  42
1
  50
0
  71
0
  3
isocp.shx
  0
STYLE
  2
KICADB
  70
0
  40
0
  41
1
  42
1
  50
0
  71
0
  3
isocp.shx
  0
STYLE
  2
KICADI
  70
0
  40
0
  41
1
  42
1
  50
15
  71
0
  3
isocp.shx
  0
STYLE
  2
KICADBI
  70
0
  40
0
  41
1
  42
1
  50
15
  71
0
  3
isocp.shx
  0
ENDTAB
  0
TABLE
  2
LAYER
  70
1
  0
LAYER
  2
BLACK
  70
0
  62
250
  6
CONTINUOUS
  0
ENDTAB
  0
ENDSEC
  0
SECTION
  2
ENTITIES
0
LINE
8
BLACK
6
CONTINUOUS
10
120.
20
-80.
11
141.
21
-80.
0
LINE
8
BLACK
6
CONTINUOUS
10
141.
20
-80.
11
141.
21
-131.
0
LINE
8
BLACK
6
CONTINUOUS
10
141.
20
-131.
11
120.
21
-131.
0
LINE
8
BLACK
6
CONTINUOUS
10
120.
20
-131.
11
120.
21
-80.
0
LINE
8
BLACK
6
CONTINUOUS
10
122.9949450000000013
20
-110.8972380000000015
11
123.2949449999999985
21
-111.1972379999999987
0
LINE
8
BLACK
6
CONTINUOUS
10
123.2949449999999985
20
-110.8972380000000015
11
122.9949450000000013
21
-111.1972379999999987
0
LINE
8
BLACK
6
CONTINUOUS
10
123.9599999999999937
20
-95.0499999999999972
11
124.2599999999999909
21
-95.3499999999999943
0
LINE
8
BLACK
6
CONTINUOUS
10
124.2599999999999909
20
-95.0499999999999972
11
123.9599999999999937
21
-95.3499999999999943
0
LINE
8
BLACK
6
CONTINUOUS
10
124.7999999999999972
20
-111.3999999999999915
11
125.0999999999999943
21
-111.6999999999999886
0
LINE
8
BLACK
6
CONTINUOUS
10
125.0999999999999943
20
-111.3999999999999915
11
124.7999999999999972
21
-111.6999999999999886
0
LINE
8
BLACK
6
CONTINUOUS
10
124.8999999999999915
20
-107.1999999999999886
11
125.1999999999999886
21
-107.5
0
LINE
8
BLACK
6
CONTINUOUS
10
125.1999999999999886
20
-107.1999999999999886
11
124.8999999999999915
21
-107.5
0
LINE
8
BLACK
6
CONTINUOUS
10
125.2999999999999972
20
-116.5
11
125.5999999999999943
21
-116.7999999999999972
0
LINE
8
BLACK
6
CONTINUOUS
10
125.5999999999999943
20
-116.5
11
125.2999999999999972
21
-116.7999999999999972
0
LINE
8
BLACK
6
CONTINUOUS
10
125.6589489999999927
20
-106.7999999999999972
11
125.9589489999999898
21
-107.0999999999999943
0
LINE
8
BLACK
6
CONTINUOUS
10
125.9589489999999898
20
-106.7999999999999972
11
125.6589489999999927
21
-107.0999999999999943
0
LINE
8
BLACK
6
CONTINUOUS
10
126.0999999999999943
20
-86.9500000000000028
11
126.3999999999999915
21
-87.25
0
LINE
8
BLACK
6
CONTINUOUS
10
126.3999999999999915
20
-86.9500000000000028
11
126.0999999999999943
21
-87.25
0
LINE
8
BLACK
6
CONTINUOUS
10
126.3999999999999915
20
-104.1999999999999886
11
126.6999999999999886
21
-104.5
0
LINE
8
BLACK
6
CONTINUOUS
10
126.6999999999999886
20
-104.1999999999999886
11
126.3999999999999915
21
-104.5
0
LINE
8
BLACK
6
CONTINUOUS
10
126.5499999999999972
20
-92.75
11
126.8499999999999943
21
-93.0499999999999972
0
LINE
8
BLACK
6
CONTINUOUS
10
126.8499999999999943
20
-92.75
11
126.5499999999999972
21
-93.0499999999999972
0
LINE
8
BLACK
6
CONTINUOUS
10
126.5499999999999972
20
-102.1499999999999915
11
126.8499999999999943
21
-102.4499999999999886
0
LINE
8
BLACK
6
CONTINUOUS
10
126.8499999999999943
20
-102.1499999999999915
11
126.5499999999999972
21
-102.4499999999999886
0
LINE
8
BLACK
6
CONTINUOUS
10
126.6999999999999886
20
-115.9499999999999886
11
127.
21
-116.25
0
LINE
8
BLACK
6
CONTINUOUS
10
127.
20
-115.9499999999999886
11
126.6999999999999886
21
-116.25
0
LINE
8
BLACK
6
CONTINUOUS
10
127.1999999999999886
20
-114.8499999999999943
11
127.5
21
-115.1499999999999915
0
LINE
8
BLACK
6
CONTINUOUS
10
127.5
20
-114.8499999999999943
11
127.1999999999999886
21
-115.1499999999999915
0
LINE
8
BLACK
6
CONTINUOUS
10
127.25
20
-96.1499999999999915
11
127.5499999999999972
21
-96.4499999999999886
0
LINE
8
BLACK
6
CONTINUOUS
10
127.5499999999999972
20
-96.1499999999999915
11
127.25
21
-96.4499999999999886
0
LINE
8
BLACK
6
CONTINUOUS
10
127.7478379999999873
20
-110.7999999999999972
11
128.0478379999999845
21
-111.0999999999999943
0
LINE
8
BLACK
6
CONTINUOUS
10
128.0478379999999845
20
-110.7999999999999972
11
127.7478379999999873
21
-111.0999999999999943
0
LINE
8
BLACK
6
CONTINUOUS
10
127.75
20
-107.0484519999999975
11
128.0499999999999829
21
-107.3484519999999947
0
LINE
8
BLACK
6
CONTINUOUS
10
128.0499999999999829
20
-107.0484519999999975
11
127.75
21
-107.3484519999999947
0
LINE
8
BLACK
6
CONTINUOUS
10
128.0499999999999829
20
-98.75
11
128.3499999999999943
21
-99.0499999999999972
0
LINE
8
BLACK
6
CONTINUOUS
10
128.3499999999999943
20
-98.75
11
128.0499999999999829
21
-99.0499999999999972
0
LINE
8
BLACK
6
CONTINUOUS
10
128.1999999999999886
20
-110.1999999999999886
11
128.5
21
-110.5
0
LINE
8
BLACK
6
CONTINUOUS
10
128.5
20
-110.1999999999999886
11
128.1999999999999886
21
-110.5
0
LINE
8
BLACK
6
CONTINUOUS
10
128.2999999999999829
20
-111.3499999999999943
11
128.5999999999999943
21
-111.6499999999999915
0
LINE
8
BLACK
6
CONTINUOUS
10
128.5999999999999943
20
-111.3499999999999943
11
128.2999999999999829
21
-111.6499999999999915
0
LINE
8
BLACK
6
CONTINUOUS
10
128.5
20
-93.3499999999999943
11
128.7999999999999829
21
-93.6499999999999915
0
LINE
8
BLACK
6
CONTINUOUS
10
128.7999999999999829
20
-93.3499999999999943
11
128.5
21
-93.6499999999999915
0
LINE
8
BLACK
6
CONTINUOUS
10
129.5499999999999829
20
-98.8999999999999915
11
129.8499999999999943
21
-99.1999999999999886
0
LINE
8
BLACK
6
CONTINUOUS
10
129.8499999999999943
20
-98.8999999999999915
11
129.5499999999999829
21
-99.1999999999999886
0
LINE
8
BLACK
6
CONTINUOUS
10
129.5999999999999943
20
-118.25
11
129.9000000000000057
21
-118.5499999999999972
0
LINE
8
BLACK
6
CONTINUOUS
10
129.9000000000000057
20
-118.25
11
129.5999999999999943
21
-118.5499999999999972
0
LINE
8
BLACK
6
CONTINUOUS
10
129.6010459999999966
20
-100.5685059999999993
11
129.901046000000008
21
-100.8685059999999964
0
LINE
8
BLACK
6
CONTINUOUS
10
129.901046000000008
20
-100.5685059999999993
11
129.6010459999999966
21
-100.8685059999999964
0
LINE
8
BLACK
6
CONTINUOUS
10
129.9872880000000066
20
-111.3466099999999983
11
130.2872879999999896
21
-111.6466099999999955
0
LINE
8
BLACK
6
CONTINUOUS
10
130.2872879999999896
20
-111.3466099999999983
11
129.9872880000000066
21
-111.6466099999999955
0
LINE
8
BLACK
6
CONTINUOUS
10
130.4499999999999886
20
-98.7999999999999972
11
130.75
21
-99.0999999999999943
0
LINE
8
BLACK
6
CONTINUOUS
10
130.75
20
-98.7999999999999972
11
130.4499999999999886
21
-99.0999999999999943
0
LINE
8
BLACK
6
CONTINUOUS
10
130.6500000000000057
20
-105.0085270000000008
11
130.9499999999999886
21
-105.308526999999998
0
LINE
8
BLACK
6
CONTINUOUS
10
130.9499999999999886
20
-105.0085270000000008
11
130.6500000000000057
21
-105.308526999999998
0
LINE
8
BLACK
6
CONTINUOUS
10
130.6999969999999962
20
-110.9000020000000006
11
130.9999970000000076
21
-111.2000019999999978
0
LINE
8
BLACK
6
CONTINUOUS
10
130.9999970000000076
20
-110.9000020000000006
11
130.6999969999999962
21
-111.2000019999999978
0
LINE
8
BLACK
6
CONTINUOUS
10
130.8499999999999943
20
-100.0499999999999972
11
131.1500000000000057
21
-100.3499999999999943
0
LINE
8
BLACK
6
CONTINUOUS
10
131.1500000000000057
20
-100.0499999999999972
11
130.8499999999999943
21
-100.3499999999999943
0
LINE
8
BLACK
6
CONTINUOUS
10
130.8691399999999874
20
-102.1723309999999998
11
131.1691399999999987
21
-102.4723309999999969
0
LINE
8
BLACK
6
CONTINUOUS
10
131.1691399999999987
20
-102.1723309999999998
11
130.8691399999999874
21
-102.4723309999999969
0
LINE
8
BLACK
6
CONTINUOUS
10
131.4000000000000057
20
-106.3999999999999915
11
131.6999999999999886
21
-106.6999999999999886
0
LINE
8
BLACK
6
CONTINUOUS
10
131.6999999999999886
20
-106.3999999999999915
11
131.4000000000000057
21
-106.6999999999999886
0
LINE
8
BLACK
6
CONTINUOUS
10
131.5
20
-110.9000020000000006
11
131.7999999999999829
21
-111.2000019999999978
0
LINE
8
BLACK
6
CONTINUOUS
10
131.7999999999999829
20
-110.9000020000000006
11
131.5
21
-111.2000019999999978
0
LINE
8
BLACK
6
CONTINUOUS
10
131.9451059999999813
20
-101.0963639999999941
11
132.2451059999999927
21
-101.3963639999999913
0
LINE
8
BLACK
6
CONTINUOUS
10
132.2451059999999927
20
-101.0963639999999941
11
131.9451059999999813
21
-101.3963639999999913
0
LINE
8
BLACK
6
CONTINUOUS
10
132.2582969999999989
20
-100.5999999999999943
11
132.5582969999999818
21
-100.8999999999999915
0
LINE
8
BLACK
6
CONTINUOUS
10
132.5582969999999818
20
-100.5999999999999943
11
132.2582969999999989
21
-100.8999999999999915
0
LINE
8
BLACK
6
CONTINUOUS
10
132.5
20
-110.0999999999999943
11
132.7999999999999829
21
-110.3999999999999915
0
LINE
8
BLACK
6
CONTINUOUS
10
132.7999999999999829
20
-110.0999999999999943
11
132.5
21
-110.3999999999999915
0
LINE
8
BLACK
6
CONTINUOUS
10
132.75
20
-110.9727969999999999
11
133.0499999999999829
21
-111.2727969999999971
0
LINE
8
BLACK
6
CONTINUOUS
10
133.0499999999999829
20
-110.9727969999999999
11
132.75
21
-111.2727969999999971
0
LINE
8
BLACK
6
CONTINUOUS
10
133.1500000000000057
20
-103.25
11
133.4499999999999886
21
-103.5499999999999972
0
LINE
8
BLACK
6
CONTINUOUS
10
133.4499999999999886
20
-103.25
11
133.1500000000000057
21
-103.5499999999999972
0
LINE
8
BLACK
6
CONTINUOUS
10
133.25
20
-96.3999999999999915
11
133.5499999999999829
21
-96.6999999999999886
0
LINE
8
BLACK
6
CONTINUOUS
10
133.5499999999999829
20
-96.3999999999999915
11
133.25
21
-96.6999999999999886
0
LINE
8
BLACK
6
CONTINUOUS
10
133.4571019999999919
20
-113.4123689999999982
11
133.7571020000000033
21
-113.7123689999999954
0
LINE
8
BLACK
6
CONTINUOUS
10
133.7571020000000033
20
-113.4123689999999982
11
133.4571019999999919
21
-113.7123689999999954
0
LINE
8
BLACK
6
CONTINUOUS
10
133.5999999999999943
20
-87.3499999999999943
11
133.9000000000000057
21
-87.6499999999999915
0
LINE
8
BLACK
6
CONTINUOUS
10
133.9000000000000057
20
-87.3499999999999943
11
133.5999999999999943
21
-87.6499999999999915
0
LINE
8
BLACK
6
CONTINUOUS
10
133.8219679999999983
20
-104.019999999999996
11
134.1219679999999812
21
-104.3199999999999932
0
LINE
8
BLACK
6
CONTINUOUS
10
134.1219679999999812
20
-104.019999999999996
11
133.8219679999999983
21
-104.3199999999999932
0
LINE
8
BLACK
6
CONTINUOUS
10
133.9499999999999886
20
-81.2999999999999972
11
134.25
21
-81.5999999999999943
0
LINE
8
BLACK
6
CONTINUOUS
10
134.25
20
-81.2999999999999972
11
133.9499999999999886
21
-81.5999999999999943
0
LINE
8
BLACK
6
CONTINUOUS
10
134.3499999999999943
20
-113.5499999999999972
11
134.6500000000000057
21
-113.8499999999999943
0
LINE
8
BLACK
6
CONTINUOUS
10
134.6500000000000057
20
-113.5499999999999972
11
134.3499999999999943
21
-113.8499999999999943
0
LINE
8
BLACK
6
CONTINUOUS
10
135.1654790000000048
20
-103.6618489999999895
11
135.4654789999999878
21
-103.9618490000000008
0
LINE
8
BLACK
6
CONTINUOUS
10
135.4654789999999878
20
-103.6618489999999895
11
135.1654790000000048
21
-103.9618490000000008
0
LINE
8
BLACK
6
CONTINUOUS
10
136.0255499999999813
20
-106.0062949999999944
11
136.3255499999999927
21
-106.3062949999999915
0
LINE
8
BLACK
6
CONTINUOUS
10
136.3255499999999927
20
-106.0062949999999944
11
136.0255499999999813
21
-106.3062949999999915
0
LINE
8
BLACK
6
CONTINUOUS
10
136.1257349999999917
20
-106.7999999999999972
11
136.4257350000000031
21
-107.0999999999999943
0
LINE
8
BLACK
6
CONTINUOUS
10
136.4257350000000031
20
-106.7999999999999972
11
136.1257349999999917
21
-107.0999999999999943
0
LINE
8
BLACK
6
CONTINUOUS
10
136.1731869999999844
20
-104.7863309999999899
11
136.4731869999999958
21
-105.0863310000000013
0
LINE
8
BLACK
6
CONTINUOUS
10
136.4731869999999958
20
-104.7863309999999899
11
136.1731869999999844
21
-105.0863310000000013
0
LINE
8
BLACK
6
CONTINUOUS
10
136.4499999999999886
20
-92.8999999999999915
11
136.75
21
-93.2000000000000028
0
LINE
8
BLACK
6
CONTINUOUS
10
136.75
20
-92.8999999999999915
11
136.4499999999999886
21
-93.2000000000000028
0
LINE
8
BLACK
6
CONTINUOUS
10
137.4000000000000057
20
-110.0499999999999972
11
137.6999999999999886
21
-110.3499999999999943
0
LINE
8
BLACK
6
CONTINUOUS
10
137.6999999999999886
20
-110.0499999999999972
11
137.4000000000000057
21
-110.3499999999999943
0
LINE
8
BLACK
6
CONTINUOUS
10
137.75
20
-84.9500000000000028
11
138.0499999999999829
21
-85.25
0
LINE
8
BLACK
6
CONTINUOUS
10
138.0499999999999829
20
-84.9500000000000028
11
137.75
21
-85.25
0
LINE
8
BLACK
6
CONTINUOUS
10
137.9499999999999886
20
-89.8499999999999943
11
138.25
21
-90.1499999999999915
0
LINE
8
BLACK
6
CONTINUOUS
10
138.25
20
-89.8499999999999943
11
137.9499999999999886
21
-90.1499999999999915
0
LINE
8
BLACK
6
CONTINUOUS
10
138.4000000000000057
20
-87.0499999999999972
11
138.6999999999999886
21
-87.3499999999999943
0
LINE
8
BLACK
6
CONTINUOUS
10
138.6999999999999886
20
-87.0499999999999972
11
138.4000000000000057
21
-87.3499999999999943
0
CIRCLE
8
BLACK
10
126.1799999999999926
20
-81.4500000000000028
40
0.3
0
LINE
8
BLACK
6
CONTINUOUS
10
126.4799999999999898
20
-81.75
11
126.4799999999999898
21
-81.1499999999999915
0
ARC
8
BLACK
10
126.1799999999999926
20
-81.1499999999999915
40
0.3
50
0.00000000
51
180.00000000
0
LINE
8
BLACK
6
CONTINUOUS
10
125.8799999999999955
20
-81.1499999999999915
11
125.8799999999999955
21
-81.75
0
ARC
8
BLACK
10
126.1799999999999926
20
-81.75
40
0.3
50
180.00000000
51
360.00000000
0
CIRCLE
8
BLACK
10
126.1799999999999926
20
-85.6299999999999955
40
0.3
0
LINE
8
BLACK
6
CONTINUOUS
10
126.4799999999999898
20
-86.1799999999999926
11
126.4799999999999898
21
-85.0799999999999983
0
ARC
8
BLACK
10
126.1799999999999926
20
-85.0799999999999983
40
0.3
50
0.00000000
51
180.00000000
0
LINE
8
BLACK
6
CONTINUOUS
10
125.8799999999999955
20
-85.0799999999999983
11
125.8799999999999955
21
-86.1799999999999926
0
ARC
8
BLACK
10
126.1799999999999926
20
-86.1799999999999926
40
0.3
50
180.00000000
51
360.00000000
0
CIRCLE
8
BLACK
10
134.8199999999999932
20
-81.4500000000000028
40
0.3
0
LINE
8
BLACK
6
CONTINUOUS
10
135.1200000000000045
20
-81.75
11
135.1200000000000045
21
-81.1499999999999915
0
ARC
8
BLACK
10
134.8199999999999932
20
-81.1499999999999915
40
0.3
50
0.00000000
51
180.00000000
0
LINE
8
BLACK
6
CONTINUOUS
10
134.5199999999999818
20
-81.1499999999999915
11
134.5199999999999818
21
-81.75
0
ARC
8
BLACK
10
134.8199999999999932
20
-81.75
40
0.3
50
180.00000000
51
360.00000000
0
CIRCLE
8
BLACK
10
134.8199999999999932
20
-85.6299999999999955
40
0.3
0
LINE
8
BLACK
6
CONTINUOUS
10
135.1200000000000045
20
-86.1799999999999926
11
135.1200000000000045
21
-85.0799999999999983
0
ARC
8
BLACK
10
134.8199999999999932
20
-85.0799999999999983
40
0.3
50
0.00000000
51
180.00000000
0
LINE
8
BLACK
6
CONTINUOUS
10
134.5199999999999818
20
-85.0799999999999983
11
134.5199999999999818
21
-86.1799999999999926
0
ARC
8
BLACK
10
134.8199999999999932
20
-86.1799999999999926
40
0.3
50
180.00000000
51
360.00000000
0
LINE
8
BLACK
6
CONTINUOUS
10
121.6099999999999994
20
-80.8699999999999903
11
121.6099999999999994
21
-81.8699999999999903
0
LINE
8
BLACK
6
CONTINUOUS
10
121.1099999999999994
20
-81.3699999999999903
11
122.1099999999999994
21
-81.3699999999999903
0
LINE
8
BLACK
6
CONTINUOUS
10
121.6099999999999994
20
-83.4099999999999966
11
121.6099999999999994
21
-84.4099999999999966
0
LINE
8
BLACK
6
CONTINUOUS
10
121.1099999999999994
20
-83.9099999999999966
11
122.1099999999999994
21
-83.9099999999999966
0
LINE
8
BLACK
6
CONTINUOUS
10
121.6099999999999994
20
-85.9500000000000028
11
121.6099999999999994
21
-86.9500000000000028
0
LINE
8
BLACK
6
CONTINUOUS
10
121.1099999999999994
20
-86.4500000000000028
11
122.1099999999999994
21
-86.4500000000000028
0
LINE
8
BLACK
6
CONTINUOUS
10
121.6099999999999994
20
-88.4899999999999949
11
121.6099999999999994
21
-89.4899999999999949
0
LINE
8
BLACK
6
CONTINUOUS
10
121.1099999999999994
20
-88.9899999999999949
11
122.1099999999999994
21
-88.9899999999999949
0
LINE
8
BLACK
6
CONTINUOUS
10
121.6099999999999994
20
-91.0300000000000011
11
121.6099999999999994
21
-92.0300000000000011
0
LINE
8
BLACK
6
CONTINUOUS
10
121.1099999999999994
20
-91.5300000000000011
11
122.1099999999999994
21
-91.5300000000000011
0
LINE
8
BLACK
6
CONTINUOUS
10
121.6099999999999994
20
-93.5699999999999932
11
121.6099999999999994
21
-94.5699999999999932
0
LINE
8
BLACK
6
CONTINUOUS
10
121.1099999999999994
20
-94.0699999999999932
11
122.1099999999999994
21
-94.0699999999999932
0
LINE
8
BLACK
6
CONTINUOUS
10
121.6099999999999994
20
-96.1099999999999994
11
121.6099999999999994
21
-97.1099999999999994
0
LINE
8
BLACK
6
CONTINUOUS
10
121.1099999999999994
20
-96.6099999999999994
11
122.1099999999999994
21
-96.6099999999999994
0
LINE
8
BLACK
6
CONTINUOUS
10
121.6099999999999994
20
-98.6499999999999915
11
121.6099999999999994
21
-99.6499999999999915
0
LINE
8
BLACK
6
CONTINUOUS
10
121.1099999999999994
20
-99.1499999999999915
11
122.1099999999999994
21
-99.1499999999999915
0
LINE
8
BLACK
6
CONTINUOUS
10
121.6099999999999994
20
-101.1899999999999977
11
121.6099999999999994
21
-102.1899999999999977
0
LINE
8
BLACK
6
CONTINUOUS
10
121.1099999999999994
20
-101.6899999999999977
11
122.1099999999999994
21
-101.6899999999999977
0
LINE
8
BLACK
6
CONTINUOUS
10
121.6099999999999994
20
-103.7299999999999898
11
121.6099999999999994
21
-104.7299999999999898
0
LINE
8
BLACK
6
CONTINUOUS
10
121.1099999999999994
20
-104.2299999999999898
11
122.1099999999999994
21
-104.2299999999999898
0
LINE
8
BLACK
6
CONTINUOUS
10
121.6099999999999994
20
-106.269999999999996
11
121.6099999999999994
21
-107.269999999999996
0
LINE
8
BLACK
6
CONTINUOUS
10
121.1099999999999994
20
-106.769999999999996
11
122.1099999999999994
21
-106.769999999999996
0
LINE
8
BLACK
6
CONTINUOUS
10
121.6099999999999994
20
-108.8099999999999881
11
121.6099999999999994
21
-109.8099999999999881
0
LINE
8
BLACK
6
CONTINUOUS
10
121.1099999999999994
20
-109.3099999999999881
11
122.1099999999999994
21
-109.3099999999999881
0
LINE
8
BLACK
6
CONTINUOUS
10
121.6099999999999994
20
-111.3499999999999943
11
121.6099999999999994
21
-112.3499999999999943
0
LINE
8
BLACK
6
CONTINUOUS
10
121.1099999999999994
20
-111.8499999999999943
11
122.1099999999999994
21
-111.8499999999999943
0
LINE
8
BLACK
6
CONTINUOUS
10
121.6099999999999994
20
-113.8900000000000006
11
121.6099999999999994
21
-114.8900000000000006
0
LINE
8
BLACK
6
CONTINUOUS
10
121.1099999999999994
20
-114.3900000000000006
11
122.1099999999999994
21
-114.3900000000000006
0
LINE
8
BLACK
6
CONTINUOUS
10
121.6099999999999994
20
-116.4299999999999926
11
121.6099999999999994
21
-117.4299999999999926
0
LINE
8
BLACK
6
CONTINUOUS
10
121.1099999999999994
20
-116.9299999999999926
11
122.1099999999999994
21
-116.9299999999999926
0
LINE
8
BLACK
6
CONTINUOUS
10
121.6099999999999994
20
-118.9699999999999989
11
121.6099999999999994
21
-119.9699999999999989
0
LINE
8
BLACK
6
CONTINUOUS
10
121.1099999999999994
20
-119.4699999999999989
11
122.1099999999999994
21
-119.4699999999999989
0
LINE
8
BLACK
6
CONTINUOUS
10
121.6099999999999994
20
-121.5099999999999909
11
121.6099999999999994
21
-122.5099999999999909
0
LINE
8
BLACK
6
CONTINUOUS
10
121.1099999999999994
20
-122.0099999999999909
11
122.1099999999999994
21
-122.0099999999999909
0
LINE
8
BLACK
6
CONTINUOUS
10
121.6099999999999994
20
-124.0499999999999972
11
121.6099999999999994
21
-125.0499999999999972
0
LINE
8
BLACK
6
CONTINUOUS
10
121.1099999999999994
20
-124.5499999999999972
11
122.1099999999999994
21
-124.5499999999999972
0
LINE
8
BLACK
6
CONTINUOUS
10
121.6099999999999994
20
-126.5899999999999892
11
121.6099999999999994
21
-127.5899999999999892
0
LINE
8
BLACK
6
CONTINUOUS
10
121.1099999999999994
20
-127.0899999999999892
11
122.1099999999999994
21
-127.0899999999999892
0
LINE
8
BLACK
6
CONTINUOUS
10
121.6099999999999994
20
-129.1299999999999955
11
121.6099999999999994
21
-130.1299999999999955
0
LINE
8
BLACK
6
CONTINUOUS
10
121.1099999999999994
20
-129.6299999999999955
11
122.1099999999999994
21
-129.6299999999999955
0
LINE
8
BLACK
6
CONTINUOUS
10
127.9599999999999937
20
-128.8899999999999864
11
127.9599999999999937
21
-129.8899999999999864
0
LINE
8
BLACK
6
CONTINUOUS
10
127.4599999999999937
20
-129.3899999999999864
11
128.460000000000008
21
-129.3899999999999864
0
LINE
8
BLACK
6
CONTINUOUS
10
130.5
20
-128.8899999999999864
11
130.5
21
-129.8899999999999864
0
LINE
8
BLACK
6
CONTINUOUS
10
130.
20
-129.3899999999999864
11
131.
21
-129.3899999999999864
0
LINE
8
BLACK
6
CONTINUOUS
10
133.039999999999992
20
-128.8899999999999864
11
133.039999999999992
21
-129.8899999999999864
0
LINE
8
BLACK
6
CONTINUOUS
10
132.539999999999992
20
-129.3899999999999864
11
133.539999999999992
21
-129.3899999999999864
0
LINE
8
BLACK
6
CONTINUOUS
10
139.3899999999999864
20
-80.8699999999999903
11
139.3899999999999864
21
-81.8699999999999903
0
LINE
8
BLACK
6
CONTINUOUS
10
138.8899999999999864
20
-81.3699999999999903
11
139.8899999999999864
21
-81.3699999999999903
0
LINE
8
BLACK
6
CONTINUOUS
10
139.3899999999999864
20
-83.4099999999999966
11
139.3899999999999864
21
-84.4099999999999966
0
LINE
8
BLACK
6
CONTINUOUS
10
138.8899999999999864
20
-83.9099999999999966
11
139.8899999999999864
21
-83.9099999999999966
0
LINE
8
BLACK
6
CONTINUOUS
10
139.3899999999999864
20
-85.9500000000000028
11
139.3899999999999864
21
-86.9500000000000028
0
LINE
8
BLACK
6
CONTINUOUS
10
138.8899999999999864
20
-86.4500000000000028
11
139.8899999999999864
21
-86.4500000000000028
0
LINE
8
BLACK
6
CONTINUOUS
10
139.3899999999999864
20
-88.4899999999999949
11
139.3899999999999864
21
-89.4899999999999949
0
LINE
8
BLACK
6
CONTINUOUS
10
138.8899999999999864
20
-88.9899999999999949
11
139.8899999999999864
21
-88.9899999999999949
0
LINE
8
BLACK
6
CONTINUOUS
10
139.3899999999999864
20
-91.0300000000000011
11
139.3899999999999864
21
-92.0300000000000011
0
LINE
8
BLACK
6
CONTINUOUS
10
138.8899999999999864
20
-91.5300000000000011
11
139.8899999999999864
21
-91.5300000000000011
0
LINE
8
BLACK
6
CONTINUOUS
10
139.3899999999999864
20
-93.5699999999999932
11
139.3899999999999864
21
-94.5699999999999932
0
LINE
8
BLACK
6
CONTINUOUS
10
138.8899999999999864
20
-94.0699999999999932
11
139.8899999999999864
21
-94.0699999999999932
0
LINE
8
BLACK
6
CONTINUOUS
10
139.3899999999999864
20
-96.1099999999999994
11
139.3899999999999864
21
-97.1099999999999994
0
LINE
8
BLACK
6
CONTINUOUS
10
138.8899999999999864
20
-96.6099999999999994
11
139.8899999999999864
21
-96.6099999999999994
0
LINE
8
BLACK
6
CONTINUOUS
10
139.3899999999999864
20
-98.6499999999999915
11
139.3899999999999864
21
-99.6499999999999915
0
LINE
8
BLACK
6
CONTINUOUS
10
138.8899999999999864
20
-99.1499999999999915
11
139.8899999999999864
21
-99.1499999999999915
0
LINE
8
BLACK
6
CONTINUOUS
10
139.3899999999999864
20
-101.1899999999999977
11
139.3899999999999864
21
-102.1899999999999977
0
LINE
8
BLACK
6
CONTINUOUS
10
138.8899999999999864
20
-101.6899999999999977
11
139.8899999999999864
21
-101.6899999999999977
0
LINE
8
BLACK
6
CONTINUOUS
10
139.3899999999999864
20
-103.7299999999999898
11
139.3899999999999864
21
-104.7299999999999898
0
LINE
8
BLACK
6
CONTINUOUS
10
138.8899999999999864
20
-104.2299999999999898
11
139.8899999999999864
21
-104.2299999999999898
0
LINE
8
BLACK
6
CONTINUOUS
10
139.3899999999999864
20
-106.269999999999996
11
139.3899999999999864
21
-107.269999999999996
0
LINE
8
BLACK
6
CONTINUOUS
10
138.8899999999999864
20
-106.769999999999996
11
139.8899999999999864
21
-106.769999999999996
0
LINE
8
BLACK
6
CONTINUOUS
10
139.3899999999999864
20
-108.8099999999999881
11
139.3899999999999864
21
-109.8099999999999881
0
LINE
8
BLACK
6
CONTINUOUS
10
138.8899999999999864
20
-109.3099999999999881
11
139.8899999999999864
21
-109.3099999999999881
0
LINE
8
BLACK
6
CONTINUOUS
10
139.3899999999999864
20
-111.3499999999999943
11
139.3899999999999864
21
-112.3499999999999943
0
LINE
8
BLACK
6
CONTINUOUS
10
138.8899999999999864
20
-111.8499999999999943
11
139.8899999999999864
21
-111.8499999999999943
0
LINE
8
BLACK
6
CONTINUOUS
10
139.3899999999999864
20
-113.8900000000000006
11
139.3899999999999864
21
-114.8900000000000006
0
LINE
8
BLACK
6
CONTINUOUS
10
138.8899999999999864
20
-114.3900000000000006
11
139.8899999999999864
21
-114.3900000000000006
0
LINE
8
BLACK
6
CONTINUOUS
10
139.3899999999999864
20
-116.4299999999999926
11
139.3899999999999864
21
-117.4299999999999926
0
LINE
8
BLACK
6
CONTINUOUS
10
138.8899999999999864
20
-116.9299999999999926
11
139.8899999999999864
21
-116.9299999999999926
0
LINE
8
BLACK
6
CONTINUOUS
10
139.3899999999999864
20
-118.9699999999999989
11
139.3899999999999864
21
-119.9699999999999989
0
LINE
8
BLACK
6
CONTINUOUS
10
138.8899999999999864
20
-119.4699999999999989
11
139.8899999999999864
21
-119.4699999999999989
0
LINE
8
BLACK
6
CONTINUOUS
10
139.3899999999999864
20
-121.5099999999999909
11
139.3899999999999864
21
-122.5099999999999909
0
LINE
8
BLACK
6
CONTINUOUS
10
138.8899999999999864
20
-122.0099999999999909
11
139.8899999999999864
21
-122.0099999999999909
0
LINE
8
BLACK
6
CONTINUOUS
10
139.3899999999999864
20
-124.0499999999999972
11
139.3899999999999864
21
-125.0499999999999972
0
LINE
8
BLACK
6
CONTINUOUS
10
138.8899999999999864
20
-124.5499999999999972
11
139.8899999999999864
21
-124.5499999999999972
0
LINE
8
BLACK
6
CONTINUOUS
10
139.3899999999999864
20
-126.5899999999999892
11
139.3899999999999864
21
-127.5899999999999892
0
LINE
8
BLACK
6
CONTINUOUS
10
138.8899999999999864
20
-127.0899999999999892
11
139.8899999999999864
21
-127.0899999999999892
0
LINE
8
BLACK
6
CONTINUOUS
10
139.3899999999999864
20
-129.1299999999999955
11
139.3899999999999864
21
-130.1299999999999955
0
LINE
8
BLACK
6
CONTINUOUS
10
138.8899999999999864
20
-129.6299999999999955
11
139.8899999999999864
21
-129.6299999999999955
0
LINE
8
BLACK
6
CONTINUOUS
10
122.5827680000000015
20
-134.1398379999999975
11
122.5827680000000015
21
-132.1398379999999975
0
LINE
8
BLACK
6
CONTINUOUS
10
122.5827680000000015
20
-132.1398379999999975
11
123.0589579999999899
21
-132.1398379999999975
0
LINE
8
BLACK
6
CONTINUOUS
10
123.0589579999999899
20
-132.1398379999999975
11
123.3446730000000002
21
-132.2350759999999923
0
LINE
8
BLACK
6
CONTINUOUS
10
123.3446730000000002
20
-132.2350759999999923
11
123.5351489999999899
21
-132.4255519999999819
0
LINE
8
BLACK
6
CONTINUOUS
10
123.5351489999999899
20
-132.4255519999999819
11
123.6303869999999989
21
-132.616028
0
LINE
8
BLACK
6
CONTINUOUS
10
123.6303869999999989
20
-132.616028
11
123.7256249999999937
21
-132.9969800000000077
0
LINE
8
BLACK
6
CONTINUOUS
10
123.7256249999999937
20
-132.9969800000000077
11
123.7256249999999937
21
-133.2826949999999897
0
LINE
8
BLACK
6
CONTINUOUS
10
123.7256249999999937
20
-133.2826949999999897
11
123.6303869999999989
21
-133.6636469999999974
0
LINE
8
BLACK
6
CONTINUOUS
10
123.6303869999999989
20
-133.6636469999999974
11
123.5351489999999899
21
-133.8541229999999871
0
LINE
8
BLACK
6
CONTINUOUS
10
123.5351489999999899
20
-133.8541229999999871
11
123.3446730000000002
21
-134.0446000000000026
0
LINE
8
BLACK
6
CONTINUOUS
10
123.3446730000000002
20
-134.0446000000000026
11
123.0589579999999899
21
-134.1398379999999975
0
LINE
8
BLACK
6
CONTINUOUS
10
123.0589579999999899
20
-134.1398379999999975
11
122.5827680000000015
21
-134.1398379999999975
0
LINE
8
BLACK
6
CONTINUOUS
10
124.5827679999999873
20
-134.1398379999999975
11
124.5827679999999873
21
-132.8065039999999897
0
LINE
8
BLACK
6
CONTINUOUS
10
124.5827679999999873
20
-133.1874569999999949
11
124.6780059999999963
21
-132.9969800000000077
0
LINE
8
BLACK
6
CONTINUOUS
10
124.6780059999999963
20
-132.9969800000000077
11
124.7732439999999912
21
-132.9017419999999845
0
LINE
8
BLACK
6
CONTINUOUS
10
124.7732439999999912
20
-132.9017419999999845
11
124.963719999999995
21
-132.8065039999999897
0
LINE
8
BLACK
6
CONTINUOUS
10
124.963719999999995
20
-132.8065039999999897
11
125.1541969999999964
21
-132.8065039999999897
0
LINE
8
BLACK
6
CONTINUOUS
10
125.8208629999999886
20
-134.1398379999999975
11
125.8208629999999886
21
-132.8065039999999897
0
LINE
8
BLACK
6
CONTINUOUS
10
125.8208629999999886
20
-132.1398379999999975
11
125.7256249999999937
21
-132.2350759999999923
0
LINE
8
BLACK
6
CONTINUOUS
10
125.7256249999999937
20
-132.2350759999999923
11
125.8208629999999886
21
-132.3303139999999871
0
LINE
8
BLACK
6
CONTINUOUS
10
125.8208629999999886
20
-132.3303139999999871
11
125.9161009999999976
21
-132.2350759999999923
0
LINE
8
BLACK
6
CONTINUOUS
10
125.9161009999999976
20
-132.2350759999999923
11
125.8208629999999886
21
-132.1398379999999975
0
LINE
8
BLACK
6
CONTINUOUS
10
125.8208629999999886
20
-132.1398379999999975
11
125.8208629999999886
21
-132.3303139999999871
0
LINE
8
BLACK
6
CONTINUOUS
10
127.0589579999999899
20
-134.1398379999999975
11
126.8684820000000002
21
-134.0446000000000026
0
LINE
8
BLACK
6
CONTINUOUS
10
126.8684820000000002
20
-134.0446000000000026
11
126.7732439999999912
21
-133.8541229999999871
0
LINE
8
BLACK
6
CONTINUOUS
10
126.7732439999999912
20
-133.8541229999999871
11
126.7732439999999912
21
-132.1398379999999975
0
LINE
8
BLACK
6
CONTINUOUS
10
128.1065769999999873
20
-134.1398379999999975
11
127.9161009999999976
21
-134.0446000000000026
0
LINE
8
BLACK
6
CONTINUOUS
10
127.9161009999999976
20
-134.0446000000000026
11
127.8208629999999886
21
-133.8541229999999871
0
LINE
8
BLACK
6
CONTINUOUS
10
127.8208629999999886
20
-133.8541229999999871
11
127.8208629999999886
21
-132.1398379999999975
0
LINE
8
BLACK
6
CONTINUOUS
10
130.3922919999999976
20
-134.1398379999999975
11
130.3922919999999976
21
-132.1398379999999975
0
LINE
8
BLACK
6
CONTINUOUS
10
130.3922919999999976
20
-132.1398379999999975
11
131.0589589999999873
21
-133.5684090000000026
0
LINE
8
BLACK
6
CONTINUOUS
10
131.0589589999999873
20
-133.5684090000000026
11
131.725625000000008
21
-132.1398379999999975
0
LINE
8
BLACK
6
CONTINUOUS
10
131.725625000000008
20
-132.1398379999999975
11
131.725625000000008
21
-134.1398379999999975
0
LINE
8
BLACK
6
CONTINUOUS
10
133.5351489999999899
20
-134.1398379999999975
11
133.5351489999999899
21
-133.0922190000000001
0
LINE
8
BLACK
6
CONTINUOUS
10
133.5351489999999899
20
-133.0922190000000001
11
133.4399109999999951
21
-132.9017419999999845
0
LINE
8
BLACK
6
CONTINUOUS
10
133.4399109999999951
20
-132.9017419999999845
11
133.2494350000000054
21
-132.8065039999999897
0
LINE
8
BLACK
6
CONTINUOUS
10
133.2494350000000054
20
-132.8065039999999897
11
132.8684820000000002
21
-132.8065039999999897
0
LINE
8
BLACK
6
CONTINUOUS
10
132.8684820000000002
20
-132.8065039999999897
11
132.6780059999999821
21
-132.9017419999999845
0
LINE
8
BLACK
6
CONTINUOUS
10
133.5351489999999899
20
-134.0446000000000026
11
133.3446730000000002
21
-134.1398379999999975
0
LINE
8
BLACK
6
CONTINUOUS
10
133.3446730000000002
20
-134.1398379999999975
11
132.8684820000000002
21
-134.1398379999999975
0
LINE
8
BLACK
6
CONTINUOUS
10
132.8684820000000002
20
-134.1398379999999975
11
132.6780059999999821
21
-134.0446000000000026
0
LINE
8
BLACK
6
CONTINUOUS
10
132.6780059999999821
20
-134.0446000000000026
11
132.5827679999999873
21
-133.8541229999999871
0
LINE
8
BLACK
6
CONTINUOUS
10
132.5827679999999873
20
-133.8541229999999871
11
132.5827679999999873
21
-133.6636469999999974
0
LINE
8
BLACK
6
CONTINUOUS
10
132.5827679999999873
20
-133.6636469999999974
11
132.6780059999999821
21
-133.4731710000000078
0
LINE
8
BLACK
6
CONTINUOUS
10
132.6780059999999821
20
-133.4731710000000078
11
132.8684820000000002
21
-133.3779329999999845
0
LINE
8
BLACK
6
CONTINUOUS
10
132.8684820000000002
20
-133.3779329999999845
11
133.3446730000000002
21
-133.3779329999999845
0
LINE
8
BLACK
6
CONTINUOUS
10
133.3446730000000002
20
-133.3779329999999845
11
133.5351489999999899
21
-133.2826949999999897
0
LINE
8
BLACK
6
CONTINUOUS
10
134.4875299999999925
20
-132.8065039999999897
11
134.4875299999999925
21
-134.8065039999999897
0
LINE
8
BLACK
6
CONTINUOUS
10
134.4875299999999925
20
-132.9017419999999845
11
134.6780059999999821
21
-132.8065039999999897
0
LINE
8
BLACK
6
CONTINUOUS
10
134.6780059999999821
20
-132.8065039999999897
11
135.0589589999999873
21
-132.8065039999999897
0
LINE
8
BLACK
6
CONTINUOUS
10
135.0589589999999873
20
-132.8065039999999897
11
135.2494350000000054
21
-132.9017419999999845
0
LINE
8
BLACK
6
CONTINUOUS
10
135.2494350000000054
20
-132.9017419999999845
11
135.3446730000000002
21
-132.9969800000000077
0
LINE
8
BLACK
6
CONTINUOUS
10
135.3446730000000002
20
-132.9969800000000077
11
135.4399109999999951
21
-133.1874569999999949
0
LINE
8
BLACK
6
CONTINUOUS
10
135.4399109999999951
20
-133.1874569999999949
11
135.4399109999999951
21
-133.7588849999999923
0
LINE
8
BLACK
6
CONTINUOUS
10
135.4399109999999951
20
-133.7588849999999923
11
135.3446730000000002
21
-133.9493609999999819
0
LINE
8
BLACK
6
CONTINUOUS
10
135.3446730000000002
20
-133.9493609999999819
11
135.2494350000000054
21
-134.0446000000000026
0
LINE
8
BLACK
6
CONTINUOUS
10
135.2494350000000054
20
-134.0446000000000026
11
135.0589589999999873
21
-134.1398379999999975
0
LINE
8
BLACK
6
CONTINUOUS
10
135.0589589999999873
20
-134.1398379999999975
11
134.6780059999999821
21
-134.1398379999999975
0
LINE
8
BLACK
6
CONTINUOUS
10
134.6780059999999821
20
-134.1398379999999975
11
134.4875299999999925
21
-134.0446000000000026
0
LINE
8
BLACK
6
CONTINUOUS
10
136.2970540000000028
20
-133.9493609999999819
11
136.3922919999999976
21
-134.0446000000000026
0
LINE
8
BLACK
6
CONTINUOUS
10
136.3922919999999976
20
-134.0446000000000026
11
136.2970540000000028
21
-134.1398379999999975
0
LINE
8
BLACK
6
CONTINUOUS
10
136.2970540000000028
20
-134.1398379999999975
11
136.201816000000008
21
-134.0446000000000026
0
LINE
8
BLACK
6
CONTINUOUS
10
136.201816000000008
20
-134.0446000000000026
11
136.2970540000000028
21
-133.9493609999999819
0
LINE
8
BLACK
6
CONTINUOUS
10
136.2970540000000028
20
-133.9493609999999819
11
136.2970540000000028
21
-134.1398379999999975
0
LINE
8
BLACK
6
CONTINUOUS
10
136.2970540000000028
20
-132.9017419999999845
11
136.3922919999999976
21
-132.9969800000000077
0
LINE
8
BLACK
6
CONTINUOUS
10
136.3922919999999976
20
-132.9969800000000077
11
136.2970540000000028
21
-133.0922190000000001
0
LINE
8
BLACK
6
CONTINUOUS
10
136.2970540000000028
20
-133.0922190000000001
11
136.201816000000008
21
-132.9969800000000077
0
LINE
8
BLACK
6
CONTINUOUS
10
136.201816000000008
20
-132.9969800000000077
11
136.2970540000000028
21
-132.9017419999999845
0
LINE
8
BLACK
6
CONTINUOUS
10
136.2970540000000028
20
-132.9017419999999845
11
136.2970540000000028
21
-133.0922190000000001
0
LINE
8
BLACK
6
CONTINUOUS
10
119.6749999999999972
20
-137.2750000000000057
11
119.9749999999999943
21
-137.5749999999999886
0
LINE
8
BLACK
6
CONTINUOUS
10
119.9749999999999943
20
-137.2750000000000057
11
119.6749999999999972
21
-137.5749999999999886
0
LINE
8
BLACK
6
CONTINUOUS
10
122.963719999999995
20
-136.3398379999999861
11
123.1541969999999964
21
-136.3398379999999861
0
LINE
8
BLACK
6
CONTINUOUS
10
123.1541969999999964
20
-136.3398379999999861
11
123.3446730000000002
21
-136.4350759999999809
0
LINE
8
BLACK
6
CONTINUOUS
10
123.3446730000000002
20
-136.4350759999999809
11
123.4399109999999951
21
-136.5303140000000042
0
LINE
8
BLACK
6
CONTINUOUS
10
123.4399109999999951
20
-136.5303140000000042
11
123.5351489999999899
21
-136.7207899999999938
0
LINE
8
BLACK
6
CONTINUOUS
10
123.5351489999999899
20
-136.7207899999999938
11
123.6303869999999989
21
-137.1017420000000016
0
LINE
8
BLACK
6
CONTINUOUS
10
123.6303869999999989
20
-137.1017420000000016
11
123.6303869999999989
21
-137.5779330000000016
0
LINE
8
BLACK
6
CONTINUOUS
10
123.6303869999999989
20
-137.5779330000000016
11
123.5351489999999899
21
-137.9588849999999809
0
LINE
8
BLACK
6
CONTINUOUS
10
123.5351489999999899
20
-137.9588849999999809
11
123.4399109999999951
21
-138.149360999999999
0
LINE
8
BLACK
6
CONTINUOUS
10
123.4399109999999951
20
-138.149360999999999
11
123.3446730000000002
21
-138.2445999999999913
0
LINE
8
BLACK
6
CONTINUOUS
10
123.3446730000000002
20
-138.2445999999999913
11
123.1541969999999964
21
-138.3398379999999861
0
LINE
8
BLACK
6
CONTINUOUS
10
123.1541969999999964
20
-138.3398379999999861
11
122.963719999999995
21
-138.3398379999999861
0
LINE
8
BLACK
6
CONTINUOUS
10
122.963719999999995
20
-138.3398379999999861
11
122.7732439999999912
21
-138.2445999999999913
0
LINE
8
BLACK
6
CONTINUOUS
10
122.7732439999999912
20
-138.2445999999999913
11
122.6780059999999963
21
-138.149360999999999
0
LINE
8
BLACK
6
CONTINUOUS
10
122.6780059999999963
20
-138.149360999999999
11
122.5827680000000015
21
-137.9588849999999809
0
LINE
8
BLACK
6
CONTINUOUS
10
122.5827680000000015
20
-137.9588849999999809
11
122.4875299999999925
21
-137.5779330000000016
0
LINE
8
BLACK
6
CONTINUOUS
10
122.4875299999999925
20
-137.5779330000000016
11
122.4875299999999925
21
-137.1017420000000016
0
LINE
8
BLACK
6
CONTINUOUS
10
122.4875299999999925
20
-137.1017420000000016
11
122.5827680000000015
21
-136.7207899999999938
0
LINE
8
BLACK
6
CONTINUOUS
10
122.5827680000000015
20
-136.7207899999999938
11
122.6780059999999963
21
-136.5303140000000042
0
LINE
8
BLACK
6
CONTINUOUS
10
122.6780059999999963
20
-136.5303140000000042
11
122.7732439999999912
21
-136.4350759999999809
0
LINE
8
BLACK
6
CONTINUOUS
10
122.7732439999999912
20
-136.4350759999999809
11
122.963719999999995
21
-136.3398379999999861
0
LINE
8
BLACK
6
CONTINUOUS
10
124.4875299999999925
20
-138.149360999999999
11
124.5827679999999873
21
-138.2445999999999913
0
LINE
8
BLACK
6
CONTINUOUS
10
124.5827679999999873
20
-138.2445999999999913
11
124.4875299999999925
21
-138.3398379999999861
0
LINE
8
BLACK
6
CONTINUOUS
10
124.4875299999999925
20
-138.3398379999999861
11
124.3922919999999976
21
-138.2445999999999913
0
LINE
8
BLACK
6
CONTINUOUS
10
124.3922919999999976
20
-138.2445999999999913
11
124.4875299999999925
21
-138.149360999999999
0
LINE
8
BLACK
6
CONTINUOUS
10
124.4875299999999925
20
-138.149360999999999
11
124.4875299999999925
21
-138.3398379999999861
0
LINE
8
BLACK
6
CONTINUOUS
10
125.2494349999999912
20
-136.3398379999999861
11
126.4875299999999925
21
-136.3398379999999861
0
LINE
8
BLACK
6
CONTINUOUS
10
126.4875299999999925
20
-136.3398379999999861
11
125.8208629999999886
21
-137.1017420000000016
0
LINE
8
BLACK
6
CONTINUOUS
10
125.8208629999999886
20
-137.1017420000000016
11
126.106577999999999
21
-137.1017420000000016
0
LINE
8
BLACK
6
CONTINUOUS
10
126.106577999999999
20
-137.1017420000000016
11
126.2970539999999886
21
-137.1969799999999964
0
LINE
8
BLACK
6
CONTINUOUS
10
126.2970539999999886
20
-137.1969799999999964
11
126.3922919999999976
21
-137.2922189999999887
0
LINE
8
BLACK
6
CONTINUOUS
10
126.3922919999999976
20
-137.2922189999999887
11
126.4875299999999925
21
-137.4826950000000068
0
LINE
8
BLACK
6
CONTINUOUS
10
126.4875299999999925
20
-137.4826950000000068
11
126.4875299999999925
21
-137.9588849999999809
0
LINE
8
BLACK
6
CONTINUOUS
10
126.4875299999999925
20
-137.9588849999999809
11
126.3922919999999976
21
-138.149360999999999
0
LINE
8
BLACK
6
CONTINUOUS
10
126.3922919999999976
20
-138.149360999999999
11
126.2970539999999886
21
-138.2445999999999913
0
LINE
8
BLACK
6
CONTINUOUS
10
126.2970539999999886
20
-138.2445999999999913
11
126.106577999999999
21
-138.3398379999999861
0
LINE
8
BLACK
6
CONTINUOUS
10
126.106577999999999
20
-138.3398379999999861
11
125.5351489999999899
21
-138.3398379999999861
0
LINE
8
BLACK
6
CONTINUOUS
10
125.5351489999999899
20
-138.3398379999999861
11
125.3446730000000002
21
-138.2445999999999913
0
LINE
8
BLACK
6
CONTINUOUS
10
125.3446730000000002
20
-138.2445999999999913
11
125.2494349999999912
21
-138.149360999999999
0
LINE
8
BLACK
6
CONTINUOUS
10
127.7256249999999937
20
-136.3398379999999861
11
127.9161019999999951
21
-136.3398379999999861
0
LINE
8
BLACK
6
CONTINUOUS
10
127.9161019999999951
20
-136.3398379999999861
11
128.1065779999999847
21
-136.4350759999999809
0
LINE
8
BLACK
6
CONTINUOUS
10
128.1065779999999847
20
-136.4350759999999809
11
128.201816000000008
21
-136.5303140000000042
0
LINE
8
BLACK
6
CONTINUOUS
10
128.201816000000008
20
-136.5303140000000042
11
128.2970540000000028
21
-136.7207899999999938
0
LINE
8
BLACK
6
CONTINUOUS
10
128.2970540000000028
20
-136.7207899999999938
11
128.3922919999999976
21
-137.1017420000000016
0
LINE
8
BLACK
6
CONTINUOUS
10
128.3922919999999976
20
-137.1017420000000016
11
128.3922919999999976
21
-137.5779330000000016
0
LINE
8
BLACK
6
CONTINUOUS
10
128.3922919999999976
20
-137.5779330000000016
11
128.2970540000000028
21
-137.9588849999999809
0
LINE
8
BLACK
6
CONTINUOUS
10
128.2970540000000028
20
-137.9588849999999809
11
128.201816000000008
21
-138.149360999999999
0
LINE
8
BLACK
6
CONTINUOUS
10
128.201816000000008
20
-138.149360999999999
11
128.1065779999999847
21
-138.2445999999999913
0
LINE
8
BLACK
6
CONTINUOUS
10
128.1065779999999847
20
-138.2445999999999913
11
127.9161019999999951
21
-138.3398379999999861
0
LINE
8
BLACK
6
CONTINUOUS
10
127.9161019999999951
20
-138.3398379999999861
11
127.7256249999999937
21
-138.3398379999999861
0
LINE
8
BLACK
6
CONTINUOUS
10
127.7256249999999937
20
-138.3398379999999861
11
127.5351489999999899
21
-138.2445999999999913
0
LINE
8
BLACK
6
CONTINUOUS
10
127.5351489999999899
20
-138.2445999999999913
11
127.4399109999999951
21
-138.149360999999999
0
LINE
8
BLACK
6
CONTINUOUS
10
127.4399109999999951
20
-138.149360999999999
11
127.3446730000000002
21
-137.9588849999999809
0
LINE
8
BLACK
6
CONTINUOUS
10
127.3446730000000002
20
-137.9588849999999809
11
127.2494349999999912
21
-137.5779330000000016
0
LINE
8
BLACK
6
CONTINUOUS
10
127.2494349999999912
20
-137.5779330000000016
11
127.2494349999999912
21
-137.1017420000000016
0
LINE
8
BLACK
6
CONTINUOUS
10
127.2494349999999912
20
-137.1017420000000016
11
127.3446730000000002
21
-136.7207899999999938
0
LINE
8
BLACK
6
CONTINUOUS
10
127.3446730000000002
20
-136.7207899999999938
11
127.4399109999999951
21
-136.5303140000000042
0
LINE
8
BLACK
6
CONTINUOUS
10
127.4399109999999951
20
-136.5303140000000042
11
127.5351489999999899
21
-136.4350759999999809
0
LINE
8
BLACK
6
CONTINUOUS
10
127.5351489999999899
20
-136.4350759999999809
11
127.7256249999999937
21
-136.3398379999999861
0
LINE
8
BLACK
6
CONTINUOUS
10
129.6303869999999847
20
-136.3398379999999861
11
129.8208640000000003
21
-136.3398379999999861
0
LINE
8
BLACK
6
CONTINUOUS
10
129.8208640000000003
20
-136.3398379999999861
11
130.0113399999999899
21
-136.4350759999999809
0
LINE
8
BLACK
6
CONTINUOUS
10
130.0113399999999899
20
-136.4350759999999809
11
130.1065779999999847
21
-136.5303140000000042
0
LINE
8
BLACK
6
CONTINUOUS
10
130.1065779999999847
20
-136.5303140000000042
11
130.201816000000008
21
-136.7207899999999938
0
LINE
8
BLACK
6
CONTINUOUS
10
130.201816000000008
20
-136.7207899999999938
11
130.2970540000000028
21
-137.1017420000000016
0
LINE
8
BLACK
6
CONTINUOUS
10
130.2970540000000028
20
-137.1017420000000016
11
130.2970540000000028
21
-137.5779330000000016
0
LINE
8
BLACK
6
CONTINUOUS
10
130.2970540000000028
20
-137.5779330000000016
11
130.201816000000008
21
-137.9588849999999809
0
LINE
8
BLACK
6
CONTINUOUS
10
130.201816000000008
20
-137.9588849999999809
11
130.1065779999999847
21
-138.149360999999999
0
LINE
8
BLACK
6
CONTINUOUS
10
130.1065779999999847
20
-138.149360999999999
11
130.0113399999999899
21
-138.2445999999999913
0
LINE
8
BLACK
6
CONTINUOUS
10
130.0113399999999899
20
-138.2445999999999913
11
129.8208640000000003
21
-138.3398379999999861
0
LINE
8
BLACK
6
CONTINUOUS
10
129.8208640000000003
20
-138.3398379999999861
11
129.6303869999999847
21
-138.3398379999999861
0
LINE
8
BLACK
6
CONTINUOUS
10
129.6303869999999847
20
-138.3398379999999861
11
129.4399109999999951
21
-138.2445999999999913
0
LINE
8
BLACK
6
CONTINUOUS
10
129.4399109999999951
20
-138.2445999999999913
11
129.3446730000000002
21
-138.149360999999999
0
LINE
8
BLACK
6
CONTINUOUS
10
129.3446730000000002
20
-138.149360999999999
11
129.2494350000000054
21
-137.9588849999999809
0
LINE
8
BLACK
6
CONTINUOUS
10
129.2494350000000054
20
-137.9588849999999809
11
129.1541969999999822
21
-137.5779330000000016
0
LINE
8
BLACK
6
CONTINUOUS
10
129.1541969999999822
20
-137.5779330000000016
11
129.1541969999999822
21
-137.1017420000000016
0
LINE
8
BLACK
6
CONTINUOUS
10
129.1541969999999822
20
-137.1017420000000016
11
129.2494350000000054
21
-136.7207899999999938
0
LINE
8
BLACK
6
CONTINUOUS
10
129.2494350000000054
20
-136.7207899999999938
11
129.3446730000000002
21
-136.5303140000000042
0
LINE
8
BLACK
6
CONTINUOUS
10
129.3446730000000002
20
-136.5303140000000042
11
129.4399109999999951
21
-136.4350759999999809
0
LINE
8
BLACK
6
CONTINUOUS
10
129.4399109999999951
20
-136.4350759999999809
11
129.6303869999999847
21
-136.3398379999999861
0
LINE
8
BLACK
6
CONTINUOUS
10
131.1541969999999822
20
-138.3398379999999861
11
131.1541969999999822
21
-137.0065040000000067
0
LINE
8
BLACK
6
CONTINUOUS
10
131.1541969999999822
20
-137.1969799999999964
11
131.2494350000000054
21
-137.1017420000000016
0
LINE
8
BLACK
6
CONTINUOUS
10
131.2494350000000054
20
-137.1017420000000016
11
131.4399109999999951
21
-137.0065040000000067
0
LINE
8
BLACK
6
CONTINUOUS
10
131.4399109999999951
20
-137.0065040000000067
11
131.7256260000000054
21
-137.0065040000000067
0
LINE
8
BLACK
6
CONTINUOUS
10
131.7256260000000054
20
-137.0065040000000067
11
131.9161019999999951
21
-137.1017420000000016
0
LINE
8
BLACK
6
CONTINUOUS
10
131.9161019999999951
20
-137.1017420000000016
11
132.0113399999999899
21
-137.2922189999999887
0
LINE
8
BLACK
6
CONTINUOUS
10
132.0113399999999899
20
-137.2922189999999887
11
132.0113399999999899
21
-138.3398379999999861
0
LINE
8
BLACK
6
CONTINUOUS
10
132.0113399999999899
20
-137.2922189999999887
11
132.1065779999999847
21
-137.1017420000000016
0
LINE
8
BLACK
6
CONTINUOUS
10
132.1065779999999847
20
-137.1017420000000016
11
132.2970540000000028
21
-137.0065040000000067
0
LINE
8
BLACK
6
CONTINUOUS
10
132.2970540000000028
20
-137.0065040000000067
11
132.5827679999999873
21
-137.0065040000000067
0
LINE
8
BLACK
6
CONTINUOUS
10
132.5827679999999873
20
-137.0065040000000067
11
132.7732450000000028
21
-137.1017420000000016
0
LINE
8
BLACK
6
CONTINUOUS
10
132.7732450000000028
20
-137.1017420000000016
11
132.8684829999999977
21
-137.2922189999999887
0
LINE
8
BLACK
6
CONTINUOUS
10
132.8684829999999977
20
-137.2922189999999887
11
132.8684829999999977
21
-138.3398379999999861
0
LINE
8
BLACK
6
CONTINUOUS
10
133.8208640000000003
20
-138.3398379999999861
11
133.8208640000000003
21
-137.0065040000000067
0
LINE
8
BLACK
6
CONTINUOUS
10
133.8208640000000003
20
-137.1969799999999964
11
133.9161019999999951
21
-137.1017420000000016
0
LINE
8
BLACK
6
CONTINUOUS
10
133.9161019999999951
20
-137.1017420000000016
11
134.1065779999999847
21
-137.0065040000000067
0
LINE
8
BLACK
6
CONTINUOUS
10
134.1065779999999847
20
-137.0065040000000067
11
134.3922929999999951
21
-137.0065040000000067
0
LINE
8
BLACK
6
CONTINUOUS
10
134.3922929999999951
20
-137.0065040000000067
11
134.5827689999999848
21
-137.1017420000000016
0
LINE
8
BLACK
6
CONTINUOUS
10
134.5827689999999848
20
-137.1017420000000016
11
134.678007000000008
21
-137.2922189999999887
0
LINE
8
BLACK
6
CONTINUOUS
10
134.678007000000008
20
-137.2922189999999887
11
134.678007000000008
21
-138.3398379999999861
0
LINE
8
BLACK
6
CONTINUOUS
10
134.678007000000008
20
-137.2922189999999887
11
134.7732450000000028
21
-137.1017420000000016
0
LINE
8
BLACK
6
CONTINUOUS
10
134.7732450000000028
20
-137.1017420000000016
11
134.9637209999999925
21
-137.0065040000000067
0
LINE
8
BLACK
6
CONTINUOUS
10
134.9637209999999925
20
-137.0065040000000067
11
135.2494350000000054
21
-137.0065040000000067
0
LINE
8
BLACK
6
CONTINUOUS
10
135.2494350000000054
20
-137.0065040000000067
11
135.4399119999999925
21
-137.1017420000000016
0
LINE
8
BLACK
6
CONTINUOUS
10
135.4399119999999925
20
-137.1017420000000016
11
135.5351499999999874
21
-137.2922189999999887
0
LINE
8
BLACK
6
CONTINUOUS
10
135.5351499999999874
20
-137.2922189999999887
11
135.5351499999999874
21
-138.3398379999999861
0
LINE
8
BLACK
6
CONTINUOUS
10
139.4399119999999925
20
-136.2445999999999913
11
137.7256270000000029
21
-138.8160279999999887
0
LINE
8
BLACK
6
CONTINUOUS
10
142.0113409999999874
20
-136.3398379999999861
11
142.2018180000000029
21
-136.3398379999999861
0
LINE
8
BLACK
6
CONTINUOUS
10
142.2018180000000029
20
-136.3398379999999861
11
142.3922939999999926
21
-136.4350759999999809
0
LINE
8
BLACK
6
CONTINUOUS
10
142.3922939999999926
20
-136.4350759999999809
11
142.4875319999999874
21
-136.5303140000000042
0
LINE
8
BLACK
6
CONTINUOUS
10
142.4875319999999874
20
-136.5303140000000042
11
142.5827699999999822
21
-136.7207899999999938
0
LINE
8
BLACK
6
CONTINUOUS
10
142.5827699999999822
20
-136.7207899999999938
11
142.6780080000000055
21
-137.1017420000000016
0
LINE
8
BLACK
6
CONTINUOUS
10
142.6780080000000055
20
-137.1017420000000016
11
142.6780080000000055
21
-137.5779330000000016
0
LINE
8
BLACK
6
CONTINUOUS
10
142.6780080000000055
20
-137.5779330000000016
11
142.5827699999999822
21
-137.9588849999999809
0
LINE
8
BLACK
6
CONTINUOUS
10
142.5827699999999822
20
-137.9588849999999809
11
142.4875319999999874
21
-138.149360999999999
0
LINE
8
BLACK
6
CONTINUOUS
10
142.4875319999999874
20
-138.149360999999999
11
142.3922939999999926
21
-138.2445999999999913
0
LINE
8
BLACK
6
CONTINUOUS
10
142.3922939999999926
20
-138.2445999999999913
11
142.2018180000000029
21
-138.3398379999999861
0
LINE
8
BLACK
6
CONTINUOUS
10
142.2018180000000029
20
-138.3398379999999861
11
142.0113409999999874
21
-138.3398379999999861
0
LINE
8
BLACK
6
CONTINUOUS
10
142.0113409999999874
20
-138.3398379999999861
11
141.8208649999999977
21
-138.2445999999999913
0
LINE
8
BLACK
6
CONTINUOUS
10
141.8208649999999977
20
-138.2445999999999913
11
141.7256270000000029
21
-138.149360999999999
0
LINE
8
BLACK
6
CONTINUOUS
10
141.7256270000000029
20
-138.149360999999999
11
141.6303889999999797
21
-137.9588849999999809
0
LINE
8
BLACK
6
CONTINUOUS
10
141.6303889999999797
20
-137.9588849999999809
11
141.5351509999999848
21
-137.5779330000000016
0
LINE
8
BLACK
6
CONTINUOUS
10
141.5351509999999848
20
-137.5779330000000016
11
141.5351509999999848
21
-137.1017420000000016
0
LINE
8
BLACK
6
CONTINUOUS
10
141.5351509999999848
20
-137.1017420000000016
11
141.6303889999999797
21
-136.7207899999999938
0
LINE
8
BLACK
6
CONTINUOUS
10
141.6303889999999797
20
-136.7207899999999938
11
141.7256270000000029
21
-136.5303140000000042
0
LINE
8
BLACK
6
CONTINUOUS
10
141.7256270000000029
20
-136.5303140000000042
11
141.8208649999999977
21
-136.4350759999999809
0
LINE
8
BLACK
6
CONTINUOUS
10
141.8208649999999977
20
-136.4350759999999809
11
142.0113409999999874
21
-136.3398379999999861
0
LINE
8
BLACK
6
CONTINUOUS
10
143.5351509999999848
20
-138.149360999999999
11
143.6303889999999797
21
-138.2445999999999913
0
LINE
8
BLACK
6
CONTINUOUS
10
143.6303889999999797
20
-138.2445999999999913
11
143.5351509999999848
21
-138.3398379999999861
0
LINE
8
BLACK
6
CONTINUOUS
10
143.5351509999999848
20
-138.3398379999999861
11
143.43991299999999
21
-138.2445999999999913
0
LINE
8
BLACK
6
CONTINUOUS
10
143.43991299999999
20
-138.2445999999999913
11
143.5351509999999848
21
-138.149360999999999
0
LINE
8
BLACK
6
CONTINUOUS
10
143.5351509999999848
20
-138.149360999999999
11
143.5351509999999848
21
-138.3398379999999861
0
LINE
8
BLACK
6
CONTINUOUS
10
144.8684839999999951
20
-136.3398379999999861
11
145.0589609999999823
21
-136.3398379999999861
0
LINE
8
BLACK
6
CONTINUOUS
10
145.0589609999999823
20
-136.3398379999999861
11
145.2494370000000004
21
-136.4350759999999809
0
LINE
8
BLACK
6
CONTINUOUS
10
145.2494370000000004
20
-136.4350759999999809
11
145.3446749999999952
21
-136.5303140000000042
0
LINE
8
BLACK
6
CONTINUOUS
10
145.3446749999999952
20
-136.5303140000000042
11
145.43991299999999
21
-136.7207899999999938
0
LINE
8
BLACK
6
CONTINUOUS
10
145.43991299999999
20
-136.7207899999999938
11
145.5351509999999848
21
-137.1017420000000016
0
LINE
8
BLACK
6
CONTINUOUS
10
145.5351509999999848
20
-137.1017420000000016
11
145.5351509999999848
21
-137.5779330000000016
0
LINE
8
BLACK
6
CONTINUOUS
10
145.5351509999999848
20
-137.5779330000000016
11
145.43991299999999
21
-137.9588849999999809
0
LINE
8
BLACK
6
CONTINUOUS
10
145.43991299999999
20
-137.9588849999999809
11
145.3446749999999952
21
-138.149360999999999
0
LINE
8
BLACK
6
CONTINUOUS
10
145.3446749999999952
20
-138.149360999999999
11
145.2494370000000004
21
-138.2445999999999913
0
LINE
8
BLACK
6
CONTINUOUS
10
145.2494370000000004
20
-138.2445999999999913
11
145.0589609999999823
21
-138.3398379999999861
0
LINE
8
BLACK
6
CONTINUOUS
10
145.0589609999999823
20
-138.3398379999999861
11
144.8684839999999951
21
-138.3398379999999861
0
LINE
8
BLACK
6
CONTINUOUS
10
144.8684839999999951
20
-138.3398379999999861
11
144.6780080000000055
21
-138.2445999999999913
0
LINE
8
BLACK
6
CONTINUOUS
10
144.6780080000000055
20
-138.2445999999999913
11
144.5827699999999822
21
-138.149360999999999
0
LINE
8
BLACK
6
CONTINUOUS
10
144.5827699999999822
20
-138.149360999999999
11
144.4875319999999874
21
-137.9588849999999809
0
LINE
8
BLACK
6
CONTINUOUS
10
144.4875319999999874
20
-137.9588849999999809
11
144.3922939999999926
21
-137.5779330000000016
0
LINE
8
BLACK
6
CONTINUOUS
10
144.3922939999999926
20
-137.5779330000000016
11
144.3922939999999926
21
-137.1017420000000016
0
LINE
8
BLACK
6
CONTINUOUS
10
144.3922939999999926
20
-137.1017420000000016
11
144.4875319999999874
21
-136.7207899999999938
0
LINE
8
BLACK
6
CONTINUOUS
10
144.4875319999999874
20
-136.7207899999999938
11
144.5827699999999822
21
-136.5303140000000042
0
LINE
8
BLACK
6
CONTINUOUS
10
144.5827699999999822
20
-136.5303140000000042
11
144.6780080000000055
21
-136.4350759999999809
0
LINE
8
BLACK
6
CONTINUOUS
10
144.6780080000000055
20
-136.4350759999999809
11
144.8684839999999951
21
-136.3398379999999861
0
LINE
8
BLACK
6
CONTINUOUS
10
147.43991299999999
20
-138.3398379999999861
11
146.2970559999999978
21
-138.3398379999999861
0
LINE
8
BLACK
6
CONTINUOUS
10
146.8684839999999951
20
-138.3398379999999861
11
146.8684839999999951
21
-136.3398379999999861
0
LINE
8
BLACK
6
CONTINUOUS
10
146.8684839999999951
20
-136.3398379999999861
11
146.6780080000000055
21
-136.625551999999999
0
LINE
8
BLACK
6
CONTINUOUS
10
146.6780080000000055
20
-136.625551999999999
11
146.4875319999999874
21
-136.8160279999999887
0
LINE
8
BLACK
6
CONTINUOUS
10
146.4875319999999874
20
-136.8160279999999887
11
146.2970559999999978
21
-136.9112659999999835
0
LINE
8
BLACK
6
CONTINUOUS
10
149.3446749999999952
20
-138.3398379999999861
11
148.2018180000000029
21
-138.3398379999999861
0
LINE
8
BLACK
6
CONTINUOUS
10
148.7732460000000003
20
-138.3398379999999861
11
148.7732460000000003
21
-136.3398379999999861
0
LINE
8
BLACK
6
CONTINUOUS
10
148.7732460000000003
20
-136.3398379999999861
11
148.5827699999999822
21
-136.625551999999999
0
LINE
8
BLACK
6
CONTINUOUS
10
148.5827699999999822
20
-136.625551999999999
11
148.3922939999999926
21
-136.8160279999999887
0
LINE
8
BLACK
6
CONTINUOUS
10
148.3922939999999926
20
-136.8160279999999887
11
148.2018180000000029
21
-136.9112659999999835
0
LINE
8
BLACK
6
CONTINUOUS
10
150.4875319999999874
20
-137.1969799999999964
11
150.2970559999999978
21
-137.1017420000000016
0
LINE
8
BLACK
6
CONTINUOUS
10
150.2970559999999978
20
-137.1017420000000016
11
150.2018180000000029
21
-137.0065040000000067
0
LINE
8
BLACK
6
CONTINUOUS
10
150.2018180000000029
20
-137.0065040000000067
11
150.1065799999999797
21
-136.8160279999999887
0
LINE
8
BLACK
6
CONTINUOUS
10
150.1065799999999797
20
-136.8160279999999887
11
150.1065799999999797
21
-136.7207899999999938
0
LINE
8
BLACK
6
CONTINUOUS
10
150.1065799999999797
20
-136.7207899999999938
11
150.2018180000000029
21
-136.5303140000000042
0
LINE
8
BLACK
6
CONTINUOUS
10
150.2018180000000029
20
-136.5303140000000042
11
150.2970559999999978
21
-136.4350759999999809
0
LINE
8
BLACK
6
CONTINUOUS
10
150.2970559999999978
20
-136.4350759999999809
11
150.4875319999999874
21
-136.3398379999999861
0
LINE
8
BLACK
6
CONTINUOUS
10
150.4875319999999874
20
-136.3398379999999861
11
150.8684849999999926
21
-136.3398379999999861
0
LINE
8
BLACK
6
CONTINUOUS
10
150.8684849999999926
20
-136.3398379999999861
11
151.0589609999999823
21
-136.4350759999999809
0
LINE
8
BLACK
6
CONTINUOUS
10
151.0589609999999823
20
-136.4350759999999809
11
151.1541990000000055
21
-136.5303140000000042
0
LINE
8
BLACK
6
CONTINUOUS
10
151.1541990000000055
20
-136.5303140000000042
11
151.2494370000000004
21
-136.7207899999999938
0
LINE
8
BLACK
6
CONTINUOUS
10
151.2494370000000004
20
-136.7207899999999938
11
151.2494370000000004
21
-136.8160279999999887
0
LINE
8
BLACK
6
CONTINUOUS
10
151.2494370000000004
20
-136.8160279999999887
11
151.1541990000000055
21
-137.0065040000000067
0
LINE
8
BLACK
6
CONTINUOUS
10
151.1541990000000055
20
-137.0065040000000067
11
151.0589609999999823
21
-137.1017420000000016
0
LINE
8
BLACK
6
CONTINUOUS
10
151.0589609999999823
20
-137.1017420000000016
11
150.8684849999999926
21
-137.1969799999999964
0
LINE
8
BLACK
6
CONTINUOUS
10
150.8684849999999926
20
-137.1969799999999964
11
150.4875319999999874
21
-137.1969799999999964
0
LINE
8
BLACK
6
CONTINUOUS
10
150.4875319999999874
20
-137.1969799999999964
11
150.2970559999999978
21
-137.2922189999999887
0
LINE
8
BLACK
6
CONTINUOUS
10
150.2970559999999978
20
-137.2922189999999887
11
150.2018180000000029
21
-137.3874569999999835
0
LINE
8
BLACK
6
CONTINUOUS
10
150.2018180000000029
20
-137.3874569999999835
11
150.1065799999999797
21
-137.5779330000000016
0
LINE
8
BLACK
6
CONTINUOUS
10
150.1065799999999797
20
-137.5779330000000016
11
150.1065799999999797
21
-137.9588849999999809
0
LINE
8
BLACK
6
CONTINUOUS
10
150.1065799999999797
20
-137.9588849999999809
11
150.2018180000000029
21
-138.149360999999999
0
LINE
8
BLACK
6
CONTINUOUS
10
150.2018180000000029
20
-138.149360999999999
11
150.2970559999999978
21
-138.2445999999999913
0
LINE
8
BLACK
6
CONTINUOUS
10
150.2970559999999978
20
-138.2445999999999913
11
150.4875319999999874
21
-138.3398379999999861
0
LINE
8
BLACK
6
CONTINUOUS
10
150.4875319999999874
20
-138.3398379999999861
11
150.8684849999999926
21
-138.3398379999999861
0
LINE
8
BLACK
6
CONTINUOUS
10
150.8684849999999926
20
-138.3398379999999861
11
151.0589609999999823
21
-138.2445999999999913
0
LINE
8
BLACK
6
CONTINUOUS
10
151.0589609999999823
20
-138.2445999999999913
11
151.1541990000000055
21
-138.149360999999999
0
LINE
8
BLACK
6
CONTINUOUS
10
151.1541990000000055
20
-138.149360999999999
11
151.2494370000000004
21
-137.9588849999999809
0
LINE
8
BLACK
6
CONTINUOUS
10
151.2494370000000004
20
-137.9588849999999809
11
151.2494370000000004
21
-137.5779330000000016
0
LINE
8
BLACK
6
CONTINUOUS
10
151.2494370000000004
20
-137.5779330000000016
11
151.1541990000000055
21
-137.3874569999999835
0
LINE
8
BLACK
6
CONTINUOUS
10
151.1541990000000055
20
-137.3874569999999835
11
151.0589609999999823
21
-137.2922189999999887
0
LINE
8
BLACK
6
CONTINUOUS
10
151.0589609999999823
20
-137.2922189999999887
11
150.8684849999999926
21
-137.1969799999999964
0
LINE
8
BLACK
6
CONTINUOUS
10
152.0113419999999849
20
-136.3398379999999861
11
152.0113419999999849
21
-136.7207899999999938
0
LINE
8
BLACK
6
CONTINUOUS
10
152.7732469999999978
20
-136.3398379999999861
11
152.7732469999999978
21
-136.7207899999999938
0
LINE
8
BLACK
6
CONTINUOUS
10
155.7256289999999979
20
-139.1017420000000016
11
155.6303900000000056
21
-139.0065040000000067
0
LINE
8
BLACK
6
CONTINUOUS
10
155.6303900000000056
20
-139.0065040000000067
11
155.4399139999999875
21
-138.7207899999999938
0
LINE
8
BLACK
6
CONTINUOUS
10
155.4399139999999875
20
-138.7207899999999938
11
155.3446759999999927
21
-138.5303140000000042
0
LINE
8
BLACK
6
CONTINUOUS
10
155.3446759999999927
20
-138.5303140000000042
11
155.2494379999999978
21
-138.2445999999999913
0
LINE
8
BLACK
6
CONTINUOUS
10
155.2494379999999978
20
-138.2445999999999913
11
155.154200000000003
21
-137.7684089999999912
0
LINE
8
BLACK
6
CONTINUOUS
10
155.154200000000003
20
-137.7684089999999912
11
155.154200000000003
21
-137.3874569999999835
0
LINE
8
BLACK
6
CONTINUOUS
10
155.154200000000003
20
-137.3874569999999835
11
155.2494379999999978
21
-136.9112659999999835
0
LINE
8
BLACK
6
CONTINUOUS
10
155.2494379999999978
20
-136.9112659999999835
11
155.3446759999999927
21
-136.625551999999999
0
LINE
8
BLACK
6
CONTINUOUS
10
155.3446759999999927
20
-136.625551999999999
11
155.4399139999999875
21
-136.4350759999999809
0
LINE
8
BLACK
6
CONTINUOUS
10
155.4399139999999875
20
-136.4350759999999809
11
155.6303900000000056
21
-136.149360999999999
0
LINE
8
BLACK
6
CONTINUOUS
10
155.6303900000000056
20
-136.149360999999999
11
155.7256289999999979
21
-136.0541230000000041
0
LINE
8
BLACK
6
CONTINUOUS
10
157.4399139999999875
20
-136.3398379999999861
11
156.4875329999999849
21
-136.3398379999999861
0
LINE
8
BLACK
6
CONTINUOUS
10
156.4875329999999849
20
-136.3398379999999861
11
156.3922949999999901
21
-137.2922189999999887
0
LINE
8
BLACK
6
CONTINUOUS
10
156.3922949999999901
20
-137.2922189999999887
11
156.4875329999999849
21
-137.1969799999999964
0
LINE
8
BLACK
6
CONTINUOUS
10
156.4875329999999849
20
-137.1969799999999964
11
156.678009000000003
21
-137.1017420000000016
0
LINE
8
BLACK
6
CONTINUOUS
10
156.678009000000003
20
-137.1017420000000016
11
157.154200000000003
21
-137.1017420000000016
0
LINE
8
BLACK
6
CONTINUOUS
10
157.154200000000003
20
-137.1017420000000016
11
157.3446759999999927
21
-137.1969799999999964
0
LINE
8
BLACK
6
CONTINUOUS
10
157.3446759999999927
20
-137.1969799999999964
11
157.4399139999999875
21
-137.2922189999999887
0
LINE
8
BLACK
6
CONTINUOUS
10
157.4399139999999875
20
-137.2922189999999887
11
157.5351519999999823
21
-137.4826950000000068
0
LINE
8
BLACK
6
CONTINUOUS
10
157.5351519999999823
20
-137.4826950000000068
11
157.5351519999999823
21
-137.9588849999999809
0
LINE
8
BLACK
6
CONTINUOUS
10
157.5351519999999823
20
-137.9588849999999809
11
157.4399139999999875
21
-138.149360999999999
0
LINE
8
BLACK
6
CONTINUOUS
10
157.4399139999999875
20
-138.149360999999999
11
157.3446759999999927
21
-138.2445999999999913
0
LINE
8
BLACK
6
CONTINUOUS
10
157.3446759999999927
20
-138.2445999999999913
11
157.154200000000003
21
-138.3398379999999861
0
LINE
8
BLACK
6
CONTINUOUS
10
157.154200000000003
20
-138.3398379999999861
11
156.678009000000003
21
-138.3398379999999861
0
LINE
8
BLACK
6
CONTINUOUS
10
156.678009000000003
20
-138.3398379999999861
11
156.4875329999999849
21
-138.2445999999999913
0
LINE
8
BLACK
6
CONTINUOUS
10
156.4875329999999849
20
-138.2445999999999913
11
156.3922949999999901
21
-138.149360999999999
0
LINE
8
BLACK
6
CONTINUOUS
10
158.7732469999999978
20
-136.3398379999999861
11
158.9637239999999849
21
-136.3398379999999861
0
LINE
8
BLACK
6
CONTINUOUS
10
158.9637239999999849
20
-136.3398379999999861
11
159.154200000000003
21
-136.4350759999999809
0
LINE
8
BLACK
6
CONTINUOUS
10
159.154200000000003
20
-136.4350759999999809
11
159.2494379999999978
21
-136.5303140000000042
0
LINE
8
BLACK
6
CONTINUOUS
10
159.2494379999999978
20
-136.5303140000000042
11
159.3446759999999927
21
-136.7207899999999938
0
LINE
8
BLACK
6
CONTINUOUS
10
159.3446759999999927
20
-136.7207899999999938
11
159.4399139999999875
21
-137.1017420000000016
0
LINE
8
BLACK
6
CONTINUOUS
10
159.4399139999999875
20
-137.1017420000000016
11
159.4399139999999875
21
-137.5779330000000016
0
LINE
8
BLACK
6
CONTINUOUS
10
159.4399139999999875
20
-137.5779330000000016
11
159.3446759999999927
21
-137.9588849999999809
0
LINE
8
BLACK
6
CONTINUOUS
10
159.3446759999999927
20
-137.9588849999999809
11
159.2494379999999978
21
-138.149360999999999
0
LINE
8
BLACK
6
CONTINUOUS
10
159.2494379999999978
20
-138.149360999999999
11
159.154200000000003
21
-138.2445999999999913
0
LINE
8
BLACK
6
CONTINUOUS
10
159.154200000000003
20
-138.2445999999999913
11
158.9637239999999849
21
-138.3398379999999861
0
LINE
8
BLACK
6
CONTINUOUS
10
158.9637239999999849
20
-138.3398379999999861
11
158.7732469999999978
21
-138.3398379999999861
0
LINE
8
BLACK
6
CONTINUOUS
10
158.7732469999999978
20
-138.3398379999999861
11
158.5827709999999797
21
-138.2445999999999913
0
LINE
8
BLACK
6
CONTINUOUS
10
158.5827709999999797
20
-138.2445999999999913
11
158.4875329999999849
21
-138.149360999999999
0
LINE
8
BLACK
6
CONTINUOUS
10
158.4875329999999849
20
-138.149360999999999
11
158.3922949999999901
21
-137.9588849999999809
0
LINE
8
BLACK
6
CONTINUOUS
10
158.3922949999999901
20
-137.9588849999999809
11
158.2970569999999952
21
-137.5779330000000016
0
LINE
8
BLACK
6
CONTINUOUS
10
158.2970569999999952
20
-137.5779330000000016
11
158.2970569999999952
21
-137.1017420000000016
0
LINE
8
BLACK
6
CONTINUOUS
10
158.2970569999999952
20
-137.1017420000000016
11
158.3922949999999901
21
-136.7207899999999938
0
LINE
8
BLACK
6
CONTINUOUS
10
158.3922949999999901
20
-136.7207899999999938
11
158.4875329999999849
21
-136.5303140000000042
0
LINE
8
BLACK
6
CONTINUOUS
10
158.4875329999999849
20
-136.5303140000000042
11
158.5827709999999797
21
-136.4350759999999809
0
LINE
8
BLACK
6
CONTINUOUS
10
158.5827709999999797
20
-136.4350759999999809
11
158.7732469999999978
21
-136.3398379999999861
0
LINE
8
BLACK
6
CONTINUOUS
10
161.8208669999999927
20
-138.3398379999999861
11
161.8208669999999927
21
-136.3398379999999861
0
LINE
8
BLACK
6
CONTINUOUS
10
162.6780100000000004
20
-138.3398379999999861
11
162.6780100000000004
21
-137.2922189999999887
0
LINE
8
BLACK
6
CONTINUOUS
10
162.6780100000000004
20
-137.2922189999999887
11
162.5827720000000056
21
-137.1017420000000016
0
LINE
8
BLACK
6
CONTINUOUS
10
162.5827720000000056
20
-137.1017420000000016
11
162.3922959999999875
21
-137.0065040000000067
0
LINE
8
BLACK
6
CONTINUOUS
10
162.3922959999999875
20
-137.0065040000000067
11
162.1065810000000056
21
-137.0065040000000067
0
LINE
8
BLACK
6
CONTINUOUS
10
162.1065810000000056
20
-137.0065040000000067
11
161.9161049999999875
21
-137.1017420000000016
0
LINE
8
BLACK
6
CONTINUOUS
10
161.9161049999999875
20
-137.1017420000000016
11
161.8208669999999927
21
-137.1969799999999964
0
LINE
8
BLACK
6
CONTINUOUS
10
163.9161049999999875
20
-138.3398379999999861
11
163.7256289999999979
21
-138.2445999999999913
0
LINE
8
BLACK
6
CONTINUOUS
10
163.7256289999999979
20
-138.2445999999999913
11
163.630391000000003
21
-138.149360999999999
0
LINE
8
BLACK
6
CONTINUOUS
10
163.630391000000003
20
-138.149360999999999
11
163.5351529999999798
21
-137.9588849999999809
0
LINE
8
BLACK
6
CONTINUOUS
10
163.5351529999999798
20
-137.9588849999999809
11
163.5351529999999798
21
-137.3874569999999835
0
LINE
8
BLACK
6
CONTINUOUS
10
163.5351529999999798
20
-137.3874569999999835
11
163.630391000000003
21
-137.1969799999999964
0
LINE
8
BLACK
6
CONTINUOUS
10
163.630391000000003
20
-137.1969799999999964
11
163.7256289999999979
21
-137.1017420000000016
0
LINE
8
BLACK
6
CONTINUOUS
10
163.7256289999999979
20
-137.1017420000000016
11
163.9161049999999875
21
-137.0065040000000067
0
LINE
8
BLACK
6
CONTINUOUS
10
163.9161049999999875
20
-137.0065040000000067
11
164.2018199999999979
21
-137.0065040000000067
0
LINE
8
BLACK
6
CONTINUOUS
10
164.2018199999999979
20
-137.0065040000000067
11
164.3922959999999875
21
-137.1017420000000016
0
LINE
8
BLACK
6
CONTINUOUS
10
164.3922959999999875
20
-137.1017420000000016
11
164.4875339999999824
21
-137.1969799999999964
0
LINE
8
BLACK
6
CONTINUOUS
10
164.4875339999999824
20
-137.1969799999999964
11
164.5827720000000056
21
-137.3874569999999835
0
LINE
8
BLACK
6
CONTINUOUS
10
164.5827720000000056
20
-137.3874569999999835
11
164.5827720000000056
21
-137.9588849999999809
0
LINE
8
BLACK
6
CONTINUOUS
10
164.5827720000000056
20
-137.9588849999999809
11
164.4875339999999824
21
-138.149360999999999
0
LINE
8
BLACK
6
CONTINUOUS
10
164.4875339999999824
20
-138.149360999999999
11
164.3922959999999875
21
-138.2445999999999913
0
LINE
8
BLACK
6
CONTINUOUS
10
164.3922959999999875
20
-138.2445999999999913
11
164.2018199999999979
21
-138.3398379999999861
0
LINE
8
BLACK
6
CONTINUOUS
10
164.2018199999999979
20
-138.3398379999999861
11
163.9161049999999875
21
-138.3398379999999861
0
LINE
8
BLACK
6
CONTINUOUS
10
165.7256289999999979
20
-138.3398379999999861
11
165.5351529999999798
21
-138.2445999999999913
0
LINE
8
BLACK
6
CONTINUOUS
10
165.5351529999999798
20
-138.2445999999999913
11
165.439914999999985
21
-138.0541230000000041
0
LINE
8
BLACK
6
CONTINUOUS
10
165.439914999999985
20
-138.0541230000000041
11
165.439914999999985
21
-136.3398379999999861
0
LINE
8
BLACK
6
CONTINUOUS
10
167.2494389999999953
20
-138.2445999999999913
11
167.0589630000000056
21
-138.3398379999999861
0
LINE
8
BLACK
6
CONTINUOUS
10
167.0589630000000056
20
-138.3398379999999861
11
166.6780100000000004
21
-138.3398379999999861
0
LINE
8
BLACK
6
CONTINUOUS
10
166.6780100000000004
20
-138.3398379999999861
11
166.4875339999999824
21
-138.2445999999999913
0
LINE
8
BLACK
6
CONTINUOUS
10
166.4875339999999824
20
-138.2445999999999913
11
166.3922959999999875
21
-138.0541230000000041
0
LINE
8
BLACK
6
CONTINUOUS
10
166.3922959999999875
20
-138.0541230000000041
11
166.3922959999999875
21
-137.2922189999999887
0
LINE
8
BLACK
6
CONTINUOUS
10
166.3922959999999875
20
-137.2922189999999887
11
166.4875339999999824
21
-137.1017420000000016
0
LINE
8
BLACK
6
CONTINUOUS
10
166.4875339999999824
20
-137.1017420000000016
11
166.6780100000000004
21
-137.0065040000000067
0
LINE
8
BLACK
6
CONTINUOUS
10
166.6780100000000004
20
-137.0065040000000067
11
167.0589630000000056
21
-137.0065040000000067
0
LINE
8
BLACK
6
CONTINUOUS
10
167.0589630000000056
20
-137.0065040000000067
11
167.2494389999999953
21
-137.1017420000000016
0
LINE
8
BLACK
6
CONTINUOUS
10
167.2494389999999953
20
-137.1017420000000016
11
167.3446769999999901
21
-137.2922189999999887
0
LINE
8
BLACK
6
CONTINUOUS
10
167.3446769999999901
20
-137.2922189999999887
11
167.3446769999999901
21
-137.4826950000000068
0
LINE
8
BLACK
6
CONTINUOUS
10
167.3446769999999901
20
-137.4826950000000068
11
166.3922959999999875
21
-137.6731709999999964
0
LINE
8
BLACK
6
CONTINUOUS
10
168.1065820000000031
20
-138.2445999999999913
11
168.2970579999999927
21
-138.3398379999999861
0
LINE
8
BLACK
6
CONTINUOUS
10
168.2970579999999927
20
-138.3398379999999861
11
168.6780100000000004
21
-138.3398379999999861
0
LINE
8
BLACK
6
CONTINUOUS
10
168.6780100000000004
20
-138.3398379999999861
11
168.8684869999999876
21
-138.2445999999999913
0
LINE
8
BLACK
6
CONTINUOUS
10
168.8684869999999876
20
-138.2445999999999913
11
168.9637249999999824
21
-138.0541230000000041
0
LINE
8
BLACK
6
CONTINUOUS
10
168.9637249999999824
20
-138.0541230000000041
11
168.9637249999999824
21
-137.9588849999999809
0
LINE
8
BLACK
6
CONTINUOUS
10
168.9637249999999824
20
-137.9588849999999809
11
168.8684869999999876
21
-137.7684089999999912
0
LINE
8
BLACK
6
CONTINUOUS
10
168.8684869999999876
20
-137.7684089999999912
11
168.6780100000000004
21
-137.6731709999999964
0
LINE
8
BLACK
6
CONTINUOUS
10
168.6780100000000004
20
-137.6731709999999964
11
168.3922959999999875
21
-137.6731709999999964
0
LINE
8
BLACK
6
CONTINUOUS
10
168.3922959999999875
20
-137.6731709999999964
11
168.2018199999999979
21
-137.5779330000000016
0
LINE
8
BLACK
6
CONTINUOUS
10
168.2018199999999979
20
-137.5779330000000016
11
168.1065820000000031
21
-137.3874569999999835
0
LINE
8
BLACK
6
CONTINUOUS
10
168.1065820000000031
20
-137.3874569999999835
11
168.1065820000000031
21
-137.2922189999999887
0
LINE
8
BLACK
6
CONTINUOUS
10
168.1065820000000031
20
-137.2922189999999887
11
168.2018199999999979
21
-137.1017420000000016
0
LINE
8
BLACK
6
CONTINUOUS
10
168.2018199999999979
20
-137.1017420000000016
11
168.3922959999999875
21
-137.0065040000000067
0
LINE
8
BLACK
6
CONTINUOUS
10
168.3922959999999875
20
-137.0065040000000067
11
168.6780100000000004
21
-137.0065040000000067
0
LINE
8
BLACK
6
CONTINUOUS
10
168.6780100000000004
20
-137.0065040000000067
11
168.8684869999999876
21
-137.1017420000000016
0
LINE
8
BLACK
6
CONTINUOUS
10
169.6303920000000005
20
-139.1017420000000016
11
169.7256299999999953
21
-139.0065040000000067
0
LINE
8
BLACK
6
CONTINUOUS
10
169.7256299999999953
20
-139.0065040000000067
11
169.916105999999985
21
-138.7207899999999938
0
LINE
8
BLACK
6
CONTINUOUS
10
169.916105999999985
20
-138.7207899999999938
11
170.0113439999999798
21
-138.5303140000000042
0
LINE
8
BLACK
6
CONTINUOUS
10
170.0113439999999798
20
-138.5303140000000042
11
170.1065820000000031
21
-138.2445999999999913
0
LINE
8
BLACK
6
CONTINUOUS
10
170.1065820000000031
20
-138.2445999999999913
11
170.2018199999999979
21
-137.7684089999999912
0
LINE
8
BLACK
6
CONTINUOUS
10
170.2018199999999979
20
-137.7684089999999912
11
170.2018199999999979
21
-137.3874569999999835
0
LINE
8
BLACK
6
CONTINUOUS
10
170.2018199999999979
20
-137.3874569999999835
11
170.1065820000000031
21
-136.9112659999999835
0
LINE
8
BLACK
6
CONTINUOUS
10
170.1065820000000031
20
-136.9112659999999835
11
170.0113439999999798
21
-136.625551999999999
0
LINE
8
BLACK
6
CONTINUOUS
10
170.0113439999999798
20
-136.625551999999999
11
169.916105999999985
21
-136.4350759999999809
0
LINE
8
BLACK
6
CONTINUOUS
10
169.916105999999985
20
-136.4350759999999809
11
169.7256299999999953
21
-136.149360999999999
0
LINE
8
BLACK
6
CONTINUOUS
10
169.7256299999999953
20
-136.149360999999999
11
169.6303920000000005
21
-136.0541230000000041
0
CIRCLE
8
BLACK
10
119.6749999999999972
20
-140.0649999999999977
40
0.3
0
LINE
8
BLACK
6
CONTINUOUS
10
122.963719999999995
20
-138.9798380000000009
11
123.1541969999999964
21
-138.9798380000000009
0
LINE
8
BLACK
6
CONTINUOUS
10
123.1541969999999964
20
-138.9798380000000009
11
123.3446730000000002
21
-139.0750759999999957
0
LINE
8
BLACK
6
CONTINUOUS
10
123.3446730000000002
20
-139.0750759999999957
11
123.4399109999999951
21
-139.1703139999999905
0
LINE
8
BLACK
6
CONTINUOUS
10
123.4399109999999951
20
-139.1703139999999905
11
123.5351489999999899
21
-139.3607899999999802
0
LINE
8
BLACK
6
CONTINUOUS
10
123.5351489999999899
20
-139.3607899999999802
11
123.6303869999999989
21
-139.7417419999999879
0
LINE
8
BLACK
6
CONTINUOUS
10
123.6303869999999989
20
-139.7417419999999879
11
123.6303869999999989
21
-140.2179329999999879
0
LINE
8
BLACK
6
CONTINUOUS
10
123.6303869999999989
20
-140.2179329999999879
11
123.5351489999999899
21
-140.5988849999999957
0
LINE
8
BLACK
6
CONTINUOUS
10
123.5351489999999899
20
-140.5988849999999957
11
123.4399109999999951
21
-140.7893609999999853
0
LINE
8
BLACK
6
CONTINUOUS
10
123.4399109999999951
20
-140.7893609999999853
11
123.3446730000000002
21
-140.884600000000006
0
LINE
8
BLACK
6
CONTINUOUS
10
123.3446730000000002
20
-140.884600000000006
11
123.1541969999999964
21
-140.9798380000000009
0
LINE
8
BLACK
6
CONTINUOUS
10
123.1541969999999964
20
-140.9798380000000009
11
122.963719999999995
21
-140.9798380000000009
0
LINE
8
BLACK
6
CONTINUOUS
10
122.963719999999995
20
-140.9798380000000009
11
122.7732439999999912
21
-140.884600000000006
0
LINE
8
BLACK
6
CONTINUOUS
10
122.7732439999999912
20
-140.884600000000006
11
122.6780059999999963
21
-140.7893609999999853
0
LINE
8
BLACK
6
CONTINUOUS
10
122.6780059999999963
20
-140.7893609999999853
11
122.5827680000000015
21
-140.5988849999999957
0
LINE
8
BLACK
6
CONTINUOUS
10
122.5827680000000015
20
-140.5988849999999957
11
122.4875299999999925
21
-140.2179329999999879
0
LINE
8
BLACK
6
CONTINUOUS
10
122.4875299999999925
20
-140.2179329999999879
11
122.4875299999999925
21
-139.7417419999999879
0
LINE
8
BLACK
6
CONTINUOUS
10
122.4875299999999925
20
-139.7417419999999879
11
122.5827680000000015
21
-139.3607899999999802
0
LINE
8
BLACK
6
CONTINUOUS
10
122.5827680000000015
20
-139.3607899999999802
11
122.6780059999999963
21
-139.1703139999999905
0
LINE
8
BLACK
6
CONTINUOUS
10
122.6780059999999963
20
-139.1703139999999905
11
122.7732439999999912
21
-139.0750759999999957
0
LINE
8
BLACK
6
CONTINUOUS
10
122.7732439999999912
20
-139.0750759999999957
11
122.963719999999995
21
-138.9798380000000009
0
LINE
8
BLACK
6
CONTINUOUS
10
124.4875299999999925
20
-140.7893609999999853
11
124.5827679999999873
21
-140.884600000000006
0
LINE
8
BLACK
6
CONTINUOUS
10
124.5827679999999873
20
-140.884600000000006
11
124.4875299999999925
21
-140.9798380000000009
0
LINE
8
BLACK
6
CONTINUOUS
10
124.4875299999999925
20
-140.9798380000000009
11
124.3922919999999976
21
-140.884600000000006
0
LINE
8
BLACK
6
CONTINUOUS
10
124.3922919999999976
20
-140.884600000000006
11
124.4875299999999925
21
-140.7893609999999853
0
LINE
8
BLACK
6
CONTINUOUS
10
124.4875299999999925
20
-140.7893609999999853
11
124.4875299999999925
21
-140.9798380000000009
0
LINE
8
BLACK
6
CONTINUOUS
10
126.2970539999999886
20
-138.9798380000000009
11
125.9161009999999976
21
-138.9798380000000009
0
LINE
8
BLACK
6
CONTINUOUS
10
125.9161009999999976
20
-138.9798380000000009
11
125.7256249999999937
21
-139.0750759999999957
0
LINE
8
BLACK
6
CONTINUOUS
10
125.7256249999999937
20
-139.0750759999999957
11
125.6303869999999989
21
-139.1703139999999905
0
LINE
8
BLACK
6
CONTINUOUS
10
125.6303869999999989
20
-139.1703139999999905
11
125.4399109999999951
21
-139.4560280000000034
0
LINE
8
BLACK
6
CONTINUOUS
10
125.4399109999999951
20
-139.4560280000000034
11
125.3446730000000002
21
-139.8369799999999827
0
LINE
8
BLACK
6
CONTINUOUS
10
125.3446730000000002
20
-139.8369799999999827
11
125.3446730000000002
21
-140.5988849999999957
0
LINE
8
BLACK
6
CONTINUOUS
10
125.3446730000000002
20
-140.5988849999999957
11
125.4399109999999951
21
-140.7893609999999853
0
LINE
8
BLACK
6
CONTINUOUS
10
125.4399109999999951
20
-140.7893609999999853
11
125.5351489999999899
21
-140.884600000000006
0
LINE
8
BLACK
6
CONTINUOUS
10
125.5351489999999899
20
-140.884600000000006
11
125.7256249999999937
21
-140.9798380000000009
0
LINE
8
BLACK
6
CONTINUOUS
10
125.7256249999999937
20
-140.9798380000000009
11
126.106577999999999
21
-140.9798380000000009
0
LINE
8
BLACK
6
CONTINUOUS
10
126.106577999999999
20
-140.9798380000000009
11
126.2970539999999886
21
-140.884600000000006
0
LINE
8
BLACK
6
CONTINUOUS
10
126.2970539999999886
20
-140.884600000000006
11
126.3922919999999976
21
-140.7893609999999853
0
LINE
8
BLACK
6
CONTINUOUS
10
126.3922919999999976
20
-140.7893609999999853
11
126.4875299999999925
21
-140.5988849999999957
0
LINE
8
BLACK
6
CONTINUOUS
10
126.4875299999999925
20
-140.5988849999999957
11
126.4875299999999925
21
-140.1226949999999931
0
LINE
8
BLACK
6
CONTINUOUS
10
126.4875299999999925
20
-140.1226949999999931
11
126.3922919999999976
21
-139.9322190000000035
0
LINE
8
BLACK
6
CONTINUOUS
10
126.3922919999999976
20
-139.9322190000000035
11
126.2970539999999886
21
-139.8369799999999827
0
LINE
8
BLACK
6
CONTINUOUS
10
126.2970539999999886
20
-139.8369799999999827
11
126.106577999999999
21
-139.7417419999999879
0
LINE
8
BLACK
6
CONTINUOUS
10
126.106577999999999
20
-139.7417419999999879
11
125.7256249999999937
21
-139.7417419999999879
0
LINE
8
BLACK
6
CONTINUOUS
10
125.7256249999999937
20
-139.7417419999999879
11
125.5351489999999899
21
-139.8369799999999827
0
LINE
8
BLACK
6
CONTINUOUS
10
125.5351489999999899
20
-139.8369799999999827
11
125.4399109999999951
21
-139.9322190000000035
0
LINE
8
BLACK
6
CONTINUOUS
10
125.4399109999999951
20
-139.9322190000000035
11
125.3446730000000002
21
-140.1226949999999931
0
LINE
8
BLACK
6
CONTINUOUS
10
127.7256249999999937
20
-138.9798380000000009
11
127.9161019999999951
21
-138.9798380000000009
0
LINE
8
BLACK
6
CONTINUOUS
10
127.9161019999999951
20
-138.9798380000000009
11
128.1065779999999847
21
-139.0750759999999957
0
LINE
8
BLACK
6
CONTINUOUS
10
128.1065779999999847
20
-139.0750759999999957
11
128.201816000000008
21
-139.1703139999999905
0
LINE
8
BLACK
6
CONTINUOUS
10
128.201816000000008
20
-139.1703139999999905
11
128.2970540000000028
21
-139.3607899999999802
0
LINE
8
BLACK
6
CONTINUOUS
10
128.2970540000000028
20
-139.3607899999999802
11
128.3922919999999976
21
-139.7417419999999879
0
LINE
8
BLACK
6
CONTINUOUS
10
128.3922919999999976
20
-139.7417419999999879
11
128.3922919999999976
21
-140.2179329999999879
0
LINE
8
BLACK
6
CONTINUOUS
10
128.3922919999999976
20
-140.2179329999999879
11
128.2970540000000028
21
-140.5988849999999957
0
LINE
8
BLACK
6
CONTINUOUS
10
128.2970540000000028
20
-140.5988849999999957
11
128.201816000000008
21
-140.7893609999999853
0
LINE
8
BLACK
6
CONTINUOUS
10
128.201816000000008
20
-140.7893609999999853
11
128.1065779999999847
21
-140.884600000000006
0
LINE
8
BLACK
6
CONTINUOUS
10
128.1065779999999847
20
-140.884600000000006
11
127.9161019999999951
21
-140.9798380000000009
0
LINE
8
BLACK
6
CONTINUOUS
10
127.9161019999999951
20
-140.9798380000000009
11
127.7256249999999937
21
-140.9798380000000009
0
LINE
8
BLACK
6
CONTINUOUS
10
127.7256249999999937
20
-140.9798380000000009
11
127.5351489999999899
21
-140.884600000000006
0
LINE
8
BLACK
6
CONTINUOUS
10
127.5351489999999899
20
-140.884600000000006
11
127.4399109999999951
21
-140.7893609999999853
0
LINE
8
BLACK
6
CONTINUOUS
10
127.4399109999999951
20
-140.7893609999999853
11
127.3446730000000002
21
-140.5988849999999957
0
LINE
8
BLACK
6
CONTINUOUS
10
127.3446730000000002
20
-140.5988849999999957
11
127.2494349999999912
21
-140.2179329999999879
0
LINE
8
BLACK
6
CONTINUOUS
10
127.2494349999999912
20
-140.2179329999999879
11
127.2494349999999912
21
-139.7417419999999879
0
LINE
8
BLACK
6
CONTINUOUS
10
127.2494349999999912
20
-139.7417419999999879
11
127.3446730000000002
21
-139.3607899999999802
0
LINE
8
BLACK
6
CONTINUOUS
10
127.3446730000000002
20
-139.3607899999999802
11
127.4399109999999951
21
-139.1703139999999905
0
LINE
8
BLACK
6
CONTINUOUS
10
127.4399109999999951
20
-139.1703139999999905
11
127.5351489999999899
21
-139.0750759999999957
0
LINE
8
BLACK
6
CONTINUOUS
10
127.5351489999999899
20
-139.0750759999999957
11
127.7256249999999937
21
-138.9798380000000009
0
LINE
8
BLACK
6
CONTINUOUS
10
129.6303869999999847
20
-138.9798380000000009
11
129.8208640000000003
21
-138.9798380000000009
0
LINE
8
BLACK
6
CONTINUOUS
10
129.8208640000000003
20
-138.9798380000000009
11
130.0113399999999899
21
-139.0750759999999957
0
LINE
8
BLACK
6
CONTINUOUS
10
130.0113399999999899
20
-139.0750759999999957
11
130.1065779999999847
21
-139.1703139999999905
0
LINE
8
BLACK
6
CONTINUOUS
10
130.1065779999999847
20
-139.1703139999999905
11
130.201816000000008
21
-139.3607899999999802
0
LINE
8
BLACK
6
CONTINUOUS
10
130.201816000000008
20
-139.3607899999999802
11
130.2970540000000028
21
-139.7417419999999879
0
LINE
8
BLACK
6
CONTINUOUS
10
130.2970540000000028
20
-139.7417419999999879
11
130.2970540000000028
21
-140.2179329999999879
0
LINE
8
BLACK
6
CONTINUOUS
10
130.2970540000000028
20
-140.2179329999999879
11
130.201816000000008
21
-140.5988849999999957
0
LINE
8
BLACK
6
CONTINUOUS
10
130.201816000000008
20
-140.5988849999999957
11
130.1065779999999847
21
-140.7893609999999853
0
LINE
8
BLACK
6
CONTINUOUS
10
130.1065779999999847
20
-140.7893609999999853
11
130.0113399999999899
21
-140.884600000000006
0
LINE
8
BLACK
6
CONTINUOUS
10
130.0113399999999899
20
-140.884600000000006
11
129.8208640000000003
21
-140.9798380000000009
0
LINE
8
BLACK
6
CONTINUOUS
10
129.8208640000000003
20
-140.9798380000000009
11
129.6303869999999847
21
-140.9798380000000009
0
LINE
8
BLACK
6
CONTINUOUS
10
129.6303869999999847
20
-140.9798380000000009
11
129.4399109999999951
21
-140.884600000000006
0
LINE
8
BLACK
6
CONTINUOUS
10
129.4399109999999951
20
-140.884600000000006
11
129.3446730000000002
21
-140.7893609999999853
0
LINE
8
BLACK
6
CONTINUOUS
10
129.3446730000000002
20
-140.7893609999999853
11
129.2494350000000054
21
-140.5988849999999957
0
LINE
8
BLACK
6
CONTINUOUS
10
129.2494350000000054
20
-140.5988849999999957
11
129.1541969999999822
21
-140.2179329999999879
0
LINE
8
BLACK
6
CONTINUOUS
10
129.1541969999999822
20
-140.2179329999999879
11
129.1541969999999822
21
-139.7417419999999879
0
LINE
8
BLACK
6
CONTINUOUS
10
129.1541969999999822
20
-139.7417419999999879
11
129.2494350000000054
21
-139.3607899999999802
0
LINE
8
BLACK
6
CONTINUOUS
10
129.2494350000000054
20
-139.3607899999999802
11
129.3446730000000002
21
-139.1703139999999905
0
LINE
8
BLACK
6
CONTINUOUS
10
129.3446730000000002
20
-139.1703139999999905
11
129.4399109999999951
21
-139.0750759999999957
0
LINE
8
BLACK
6
CONTINUOUS
10
129.4399109999999951
20
-139.0750759999999957
11
129.6303869999999847
21
-138.9798380000000009
0
LINE
8
BLACK
6
CONTINUOUS
10
131.1541969999999822
20
-140.9798380000000009
11
131.1541969999999822
21
-139.6465039999999931
0
LINE
8
BLACK
6
CONTINUOUS
10
131.1541969999999822
20
-139.8369799999999827
11
131.2494350000000054
21
-139.7417419999999879
0
LINE
8
BLACK
6
CONTINUOUS
10
131.2494350000000054
20
-139.7417419999999879
11
131.4399109999999951
21
-139.6465039999999931
0
LINE
8
BLACK
6
CONTINUOUS
10
131.4399109999999951
20
-139.6465039999999931
11
131.7256260000000054
21
-139.6465039999999931
0
LINE
8
BLACK
6
CONTINUOUS
10
131.7256260000000054
20
-139.6465039999999931
11
131.9161019999999951
21
-139.7417419999999879
0
LINE
8
BLACK
6
CONTINUOUS
10
131.9161019999999951
20
-139.7417419999999879
11
132.0113399999999899
21
-139.9322190000000035
0
LINE
8
BLACK
6
CONTINUOUS
10
132.0113399999999899
20
-139.9322190000000035
11
132.0113399999999899
21
-140.9798380000000009
0
LINE
8
BLACK
6
CONTINUOUS
10
132.0113399999999899
20
-139.9322190000000035
11
132.1065779999999847
21
-139.7417419999999879
0
LINE
8
BLACK
6
CONTINUOUS
10
132.1065779999999847
20
-139.7417419999999879
11
132.2970540000000028
21
-139.6465039999999931
0
LINE
8
BLACK
6
CONTINUOUS
10
132.2970540000000028
20
-139.6465039999999931
11
132.5827679999999873
21
-139.6465039999999931
0
LINE
8
BLACK
6
CONTINUOUS
10
132.5827679999999873
20
-139.6465039999999931
11
132.7732450000000028
21
-139.7417419999999879
0
LINE
8
BLACK
6
CONTINUOUS
10
132.7732450000000028
20
-139.7417419999999879
11
132.8684829999999977
21
-139.9322190000000035
0
LINE
8
BLACK
6
CONTINUOUS
10
132.8684829999999977
20
-139.9322190000000035
11
132.8684829999999977
21
-140.9798380000000009
0
LINE
8
BLACK
6
CONTINUOUS
10
133.8208640000000003
20
-140.9798380000000009
11
133.8208640000000003
21
-139.6465039999999931
0
LINE
8
BLACK
6
CONTINUOUS
10
133.8208640000000003
20
-139.8369799999999827
11
133.9161019999999951
21
-139.7417419999999879
0
LINE
8
BLACK
6
CONTINUOUS
10
133.9161019999999951
20
-139.7417419999999879
11
134.1065779999999847
21
-139.6465039999999931
0
LINE
8
BLACK
6
CONTINUOUS
10
134.1065779999999847
20
-139.6465039999999931
11
134.3922929999999951
21
-139.6465039999999931
0
LINE
8
BLACK
6
CONTINUOUS
10
134.3922929999999951
20
-139.6465039999999931
11
134.5827689999999848
21
-139.7417419999999879
0
LINE
8
BLACK
6
CONTINUOUS
10
134.5827689999999848
20
-139.7417419999999879
11
134.678007000000008
21
-139.9322190000000035
0
LINE
8
BLACK
6
CONTINUOUS
10
134.678007000000008
20
-139.9322190000000035
11
134.678007000000008
21
-140.9798380000000009
0
LINE
8
BLACK
6
CONTINUOUS
10
134.678007000000008
20
-139.9322190000000035
11
134.7732450000000028
21
-139.7417419999999879
0
LINE
8
BLACK
6
CONTINUOUS
10
134.7732450000000028
20
-139.7417419999999879
11
134.9637209999999925
21
-139.6465039999999931
0
LINE
8
BLACK
6
CONTINUOUS
10
134.9637209999999925
20
-139.6465039999999931
11
135.2494350000000054
21
-139.6465039999999931
0
LINE
8
BLACK
6
CONTINUOUS
10
135.2494350000000054
20
-139.6465039999999931
11
135.4399119999999925
21
-139.7417419999999879
0
LINE
8
BLACK
6
CONTINUOUS
10
135.4399119999999925
20
-139.7417419999999879
11
135.5351499999999874
21
-139.9322190000000035
0
LINE
8
BLACK
6
CONTINUOUS
10
135.5351499999999874
20
-139.9322190000000035
11
135.5351499999999874
21
-140.9798380000000009
0
LINE
8
BLACK
6
CONTINUOUS
10
139.4399119999999925
20
-138.884600000000006
11
137.7256270000000029
21
-141.4560280000000034
0
LINE
8
BLACK
6
CONTINUOUS
10
142.0113409999999874
20
-138.9798380000000009
11
142.2018180000000029
21
-138.9798380000000009
0
LINE
8
BLACK
6
CONTINUOUS
10
142.2018180000000029
20
-138.9798380000000009
11
142.3922939999999926
21
-139.0750759999999957
0
LINE
8
BLACK
6
CONTINUOUS
10
142.3922939999999926
20
-139.0750759999999957
11
142.4875319999999874
21
-139.1703139999999905
0
LINE
8
BLACK
6
CONTINUOUS
10
142.4875319999999874
20
-139.1703139999999905
11
142.5827699999999822
21
-139.3607899999999802
0
LINE
8
BLACK
6
CONTINUOUS
10
142.5827699999999822
20
-139.3607899999999802
11
142.6780080000000055
21
-139.7417419999999879
0
LINE
8
BLACK
6
CONTINUOUS
10
142.6780080000000055
20
-139.7417419999999879
11
142.6780080000000055
21
-140.2179329999999879
0
LINE
8
BLACK
6
CONTINUOUS
10
142.6780080000000055
20
-140.2179329999999879
11
142.5827699999999822
21
-140.5988849999999957
0
LINE
8
BLACK
6
CONTINUOUS
10
142.5827699999999822
20
-140.5988849999999957
11
142.4875319999999874
21
-140.7893609999999853
0
LINE
8
BLACK
6
CONTINUOUS
10
142.4875319999999874
20
-140.7893609999999853
11
142.3922939999999926
21
-140.884600000000006
0
LINE
8
BLACK
6
CONTINUOUS
10
142.3922939999999926
20
-140.884600000000006
11
142.2018180000000029
21
-140.9798380000000009
0
LINE
8
BLACK
6
CONTINUOUS
10
142.2018180000000029
20
-140.9798380000000009
11
142.0113409999999874
21
-140.9798380000000009
0
LINE
8
BLACK
6
CONTINUOUS
10
142.0113409999999874
20
-140.9798380000000009
11
141.8208649999999977
21
-140.884600000000006
0
LINE
8
BLACK
6
CONTINUOUS
10
141.8208649999999977
20
-140.884600000000006
11
141.7256270000000029
21
-140.7893609999999853
0
LINE
8
BLACK
6
CONTINUOUS
10
141.7256270000000029
20
-140.7893609999999853
11
141.6303889999999797
21
-140.5988849999999957
0
LINE
8
BLACK
6
CONTINUOUS
10
141.6303889999999797
20
-140.5988849999999957
11
141.5351509999999848
21
-140.2179329999999879
0
LINE
8
BLACK
6
CONTINUOUS
10
141.5351509999999848
20
-140.2179329999999879
11
141.5351509999999848
21
-139.7417419999999879
0
LINE
8
BLACK
6
CONTINUOUS
10
141.5351509999999848
20
-139.7417419999999879
11
141.6303889999999797
21
-139.3607899999999802
0
LINE
8
BLACK
6
CONTINUOUS
10
141.6303889999999797
20
-139.3607899999999802
11
141.7256270000000029
21
-139.1703139999999905
0
LINE
8
BLACK
6
CONTINUOUS
10
141.7256270000000029
20
-139.1703139999999905
11
141.8208649999999977
21
-139.0750759999999957
0
LINE
8
BLACK
6
CONTINUOUS
10
141.8208649999999977
20
-139.0750759999999957
11
142.0113409999999874
21
-138.9798380000000009
0
LINE
8
BLACK
6
CONTINUOUS
10
143.5351509999999848
20
-140.7893609999999853
11
143.6303889999999797
21
-140.884600000000006
0
LINE
8
BLACK
6
CONTINUOUS
10
143.6303889999999797
20
-140.884600000000006
11
143.5351509999999848
21
-140.9798380000000009
0
LINE
8
BLACK
6
CONTINUOUS
10
143.5351509999999848
20
-140.9798380000000009
11
143.43991299999999
21
-140.884600000000006
0
LINE
8
BLACK
6
CONTINUOUS
10
143.43991299999999
20
-140.884600000000006
11
143.5351509999999848
21
-140.7893609999999853
0
LINE
8
BLACK
6
CONTINUOUS
10
143.5351509999999848
20
-140.7893609999999853
11
143.5351509999999848
21
-140.9798380000000009
0
LINE
8
BLACK
6
CONTINUOUS
10
144.8684839999999951
20
-138.9798380000000009
11
145.0589609999999823
21
-138.9798380000000009
0
LINE
8
BLACK
6
CONTINUOUS
10
145.0589609999999823
20
-138.9798380000000009
11
145.2494370000000004
21
-139.0750759999999957
0
LINE
8
BLACK
6
CONTINUOUS
10
145.2494370000000004
20
-139.0750759999999957
11
145.3446749999999952
21
-139.1703139999999905
0
LINE
8
BLACK
6
CONTINUOUS
10
145.3446749999999952
20
-139.1703139999999905
11
145.43991299999999
21
-139.3607899999999802
0
LINE
8
BLACK
6
CONTINUOUS
10
145.43991299999999
20
-139.3607899999999802
11
145.5351509999999848
21
-139.7417419999999879
0
LINE
8
BLACK
6
CONTINUOUS
10
145.5351509999999848
20
-139.7417419999999879
11
145.5351509999999848
21
-140.2179329999999879
0
LINE
8
BLACK
6
CONTINUOUS
10
145.5351509999999848
20
-140.2179329999999879
11
145.43991299999999
21
-140.5988849999999957
0
LINE
8
BLACK
6
CONTINUOUS
10
145.43991299999999
20
-140.5988849999999957
11
145.3446749999999952
21
-140.7893609999999853
0
LINE
8
BLACK
6
CONTINUOUS
10
145.3446749999999952
20
-140.7893609999999853
11
145.2494370000000004
21
-140.884600000000006
0
LINE
8
BLACK
6
CONTINUOUS
10
145.2494370000000004
20
-140.884600000000006
11
145.0589609999999823
21
-140.9798380000000009
0
LINE
8
BLACK
6
CONTINUOUS
10
145.0589609999999823
20
-140.9798380000000009
11
144.8684839999999951
21
-140.9798380000000009
0
LINE
8
BLACK
6
CONTINUOUS
10
144.8684839999999951
20
-140.9798380000000009
11
144.6780080000000055
21
-140.884600000000006
0
LINE
8
BLACK
6
CONTINUOUS
10
144.6780080000000055
20
-140.884600000000006
11
144.5827699999999822
21
-140.7893609999999853
0
LINE
8
BLACK
6
CONTINUOUS
10
144.5827699999999822
20
-140.7893609999999853
11
144.4875319999999874
21
-140.5988849999999957
0
LINE
8
BLACK
6
CONTINUOUS
10
144.4875319999999874
20
-140.5988849999999957
11
144.3922939999999926
21
-140.2179329999999879
0
LINE
8
BLACK
6
CONTINUOUS
10
144.3922939999999926
20
-140.2179329999999879
11
144.3922939999999926
21
-139.7417419999999879
0
LINE
8
BLACK
6
CONTINUOUS
10
144.3922939999999926
20
-139.7417419999999879
11
144.4875319999999874
21
-139.3607899999999802
0
LINE
8
BLACK
6
CONTINUOUS
10
144.4875319999999874
20
-139.3607899999999802
11
144.5827699999999822
21
-139.1703139999999905
0
LINE
8
BLACK
6
CONTINUOUS
10
144.5827699999999822
20
-139.1703139999999905
11
144.6780080000000055
21
-139.0750759999999957
0
LINE
8
BLACK
6
CONTINUOUS
10
144.6780080000000055
20
-139.0750759999999957
11
144.8684839999999951
21
-138.9798380000000009
0
LINE
8
BLACK
6
CONTINUOUS
10
146.2970559999999978
20
-139.1703139999999905
11
146.3922939999999926
21
-139.0750759999999957
0
LINE
8
BLACK
6
CONTINUOUS
10
146.3922939999999926
20
-139.0750759999999957
11
146.5827699999999822
21
-138.9798380000000009
0
LINE
8
BLACK
6
CONTINUOUS
10
146.5827699999999822
20
-138.9798380000000009
11
147.0589609999999823
21
-138.9798380000000009
0
LINE
8
BLACK
6
CONTINUOUS
10
147.0589609999999823
20
-138.9798380000000009
11
147.2494370000000004
21
-139.0750759999999957
0
LINE
8
BLACK
6
CONTINUOUS
10
147.2494370000000004
20
-139.0750759999999957
11
147.3446749999999952
21
-139.1703139999999905
0
LINE
8
BLACK
6
CONTINUOUS
10
147.3446749999999952
20
-139.1703139999999905
11
147.43991299999999
21
-139.3607899999999802
0
LINE
8
BLACK
6
CONTINUOUS
10
147.43991299999999
20
-139.3607899999999802
11
147.43991299999999
21
-139.5512659999999983
0
LINE
8
BLACK
6
CONTINUOUS
10
147.43991299999999
20
-139.5512659999999983
11
147.3446749999999952
21
-139.8369799999999827
0
LINE
8
BLACK
6
CONTINUOUS
10
147.3446749999999952
20
-139.8369799999999827
11
146.2018180000000029
21
-140.9798380000000009
0
LINE
8
BLACK
6
CONTINUOUS
10
146.2018180000000029
20
-140.9798380000000009
11
147.43991299999999
21
-140.9798380000000009
0
LINE
8
BLACK
6
CONTINUOUS
10
148.1065799999999797
20
-138.9798380000000009
11
149.3446749999999952
21
-138.9798380000000009
0
LINE
8
BLACK
6
CONTINUOUS
10
149.3446749999999952
20
-138.9798380000000009
11
148.6780080000000055
21
-139.7417419999999879
0
LINE
8
BLACK
6
CONTINUOUS
10
148.6780080000000055
20
-139.7417419999999879
11
148.9637229999999875
21
-139.7417419999999879
0
LINE
8
BLACK
6
CONTINUOUS
10
148.9637229999999875
20
-139.7417419999999879
11
149.1541990000000055
21
-139.8369799999999827
0
LINE
8
BLACK
6
CONTINUOUS
10
149.1541990000000055
20
-139.8369799999999827
11
149.2494370000000004
21
-139.9322190000000035
0
LINE
8
BLACK
6
CONTINUOUS
10
149.2494370000000004
20
-139.9322190000000035
11
149.3446749999999952
21
-140.1226949999999931
0
LINE
8
BLACK
6
CONTINUOUS
10
149.3446749999999952
20
-140.1226949999999931
11
149.3446749999999952
21
-140.5988849999999957
0
LINE
8
BLACK
6
CONTINUOUS
10
149.3446749999999952
20
-140.5988849999999957
11
149.2494370000000004
21
-140.7893609999999853
0
LINE
8
BLACK
6
CONTINUOUS
10
149.2494370000000004
20
-140.7893609999999853
11
149.1541990000000055
21
-140.884600000000006
0
LINE
8
BLACK
6
CONTINUOUS
10
149.1541990000000055
20
-140.884600000000006
11
148.9637229999999875
21
-140.9798380000000009
0
LINE
8
BLACK
6
CONTINUOUS
10
148.9637229999999875
20
-140.9798380000000009
11
148.3922939999999926
21
-140.9798380000000009
0
LINE
8
BLACK
6
CONTINUOUS
10
148.3922939999999926
20
-140.9798380000000009
11
148.2018180000000029
21
-140.884600000000006
0
LINE
8
BLACK
6
CONTINUOUS
10
148.2018180000000029
20
-140.884600000000006
11
148.1065799999999797
21
-140.7893609999999853
0
LINE
8
BLACK
6
CONTINUOUS
10
151.0589609999999823
20
-138.9798380000000009
11
150.6780080000000055
21
-138.9798380000000009
0
LINE
8
BLACK
6
CONTINUOUS
10
150.6780080000000055
20
-138.9798380000000009
11
150.4875319999999874
21
-139.0750759999999957
0
LINE
8
BLACK
6
CONTINUOUS
10
150.4875319999999874
20
-139.0750759999999957
11
150.3922939999999926
21
-139.1703139999999905
0
LINE
8
BLACK
6
CONTINUOUS
10
150.3922939999999926
20
-139.1703139999999905
11
150.2018180000000029
21
-139.4560280000000034
0
LINE
8
BLACK
6
CONTINUOUS
10
150.2018180000000029
20
-139.4560280000000034
11
150.1065799999999797
21
-139.8369799999999827
0
LINE
8
BLACK
6
CONTINUOUS
10
150.1065799999999797
20
-139.8369799999999827
11
150.1065799999999797
21
-140.5988849999999957
0
LINE
8
BLACK
6
CONTINUOUS
10
150.1065799999999797
20
-140.5988849999999957
11
150.2018180000000029
21
-140.7893609999999853
0
LINE
8
BLACK
6
CONTINUOUS
10
150.2018180000000029
20
-140.7893609999999853
11
150.2970559999999978
21
-140.884600000000006
0
LINE
8
BLACK
6
CONTINUOUS
10
150.2970559999999978
20
-140.884600000000006
11
150.4875319999999874
21
-140.9798380000000009
0
LINE
8
BLACK
6
CONTINUOUS
10
150.4875319999999874
20
-140.9798380000000009
11
150.8684849999999926
21
-140.9798380000000009
0
LINE
8
BLACK
6
CONTINUOUS
10
150.8684849999999926
20
-140.9798380000000009
11
151.0589609999999823
21
-140.884600000000006
0
LINE
8
BLACK
6
CONTINUOUS
10
151.0589609999999823
20
-140.884600000000006
11
151.1541990000000055
21
-140.7893609999999853
0
LINE
8
BLACK
6
CONTINUOUS
10
151.1541990000000055
20
-140.7893609999999853
11
151.2494370000000004
21
-140.5988849999999957
0
LINE
8
BLACK
6
CONTINUOUS
10
151.2494370000000004
20
-140.5988849999999957
11
151.2494370000000004
21
-140.1226949999999931
0
LINE
8
BLACK
6
CONTINUOUS
10
151.2494370000000004
20
-140.1226949999999931
11
151.1541990000000055
21
-139.9322190000000035
0
LINE
8
BLACK
6
CONTINUOUS
10
151.1541990000000055
20
-139.9322190000000035
11
151.0589609999999823
21
-139.8369799999999827
0
LINE
8
BLACK
6
CONTINUOUS
10
151.0589609999999823
20
-139.8369799999999827
11
150.8684849999999926
21
-139.7417419999999879
0
LINE
8
BLACK
6
CONTINUOUS
10
150.8684849999999926
20
-139.7417419999999879
11
150.4875319999999874
21
-139.7417419999999879
0
LINE
8
BLACK
6
CONTINUOUS
10
150.4875319999999874
20
-139.7417419999999879
11
150.2970559999999978
21
-139.8369799999999827
0
LINE
8
BLACK
6
CONTINUOUS
10
150.2970559999999978
20
-139.8369799999999827
11
150.2018180000000029
21
-139.9322190000000035
0
LINE
8
BLACK
6
CONTINUOUS
10
150.2018180000000029
20
-139.9322190000000035
11
150.1065799999999797
21
-140.1226949999999931
0
LINE
8
BLACK
6
CONTINUOUS
10
152.0113419999999849
20
-138.9798380000000009
11
152.0113419999999849
21
-139.3607899999999802
0
LINE
8
BLACK
6
CONTINUOUS
10
152.7732469999999978
20
-138.9798380000000009
11
152.7732469999999978
21
-139.3607899999999802
0
LINE
8
BLACK
6
CONTINUOUS
10
155.7256289999999979
20
-141.7417419999999879
11
155.6303900000000056
21
-141.6465039999999931
0
LINE
8
BLACK
6
CONTINUOUS
10
155.6303900000000056
20
-141.6465039999999931
11
155.4399139999999875
21
-141.3607899999999802
0
LINE
8
BLACK
6
CONTINUOUS
10
155.4399139999999875
20
-141.3607899999999802
11
155.3446759999999927
21
-141.1703139999999905
0
LINE
8
BLACK
6
CONTINUOUS
10
155.3446759999999927
20
-141.1703139999999905
11
155.2494379999999978
21
-140.884600000000006
0
LINE
8
BLACK
6
CONTINUOUS
10
155.2494379999999978
20
-140.884600000000006
11
155.154200000000003
21
-140.408409000000006
0
LINE
8
BLACK
6
CONTINUOUS
10
155.154200000000003
20
-140.408409000000006
11
155.154200000000003
21
-140.0274569999999983
0
LINE
8
BLACK
6
CONTINUOUS
10
155.154200000000003
20
-140.0274569999999983
11
155.2494379999999978
21
-139.5512659999999983
0
LINE
8
BLACK
6
CONTINUOUS
10
155.2494379999999978
20
-139.5512659999999983
11
155.3446759999999927
21
-139.2655519999999854
0
LINE
8
BLACK
6
CONTINUOUS
10
155.3446759999999927
20
-139.2655519999999854
11
155.4399139999999875
21
-139.0750759999999957
0
LINE
8
BLACK
6
CONTINUOUS
10
155.4399139999999875
20
-139.0750759999999957
11
155.6303900000000056
21
-138.7893609999999853
0
LINE
8
BLACK
6
CONTINUOUS
10
155.6303900000000056
20
-138.7893609999999853
11
155.7256289999999979
21
-138.6941229999999905
0
LINE
8
BLACK
6
CONTINUOUS
10
156.8684849999999926
20
-138.9798380000000009
11
157.0589619999999798
21
-138.9798380000000009
0
LINE
8
BLACK
6
CONTINUOUS
10
157.0589619999999798
20
-138.9798380000000009
11
157.2494379999999978
21
-139.0750759999999957
0
LINE
8
BLACK
6
CONTINUOUS
10
157.2494379999999978
20
-139.0750759999999957
11
157.3446759999999927
21
-139.1703139999999905
0
LINE
8
BLACK
6
CONTINUOUS
10
157.3446759999999927
20
-139.1703139999999905
11
157.4399139999999875
21
-139.3607899999999802
0
LINE
8
BLACK
6
CONTINUOUS
10
157.4399139999999875
20
-139.3607899999999802
11
157.5351519999999823
21
-139.7417419999999879
0
LINE
8
BLACK
6
CONTINUOUS
10
157.5351519999999823
20
-139.7417419999999879
11
157.5351519999999823
21
-140.2179329999999879
0
LINE
8
BLACK
6
CONTINUOUS
10
157.5351519999999823
20
-140.2179329999999879
11
157.4399139999999875
21
-140.5988849999999957
0
LINE
8
BLACK
6
CONTINUOUS
10
157.4399139999999875
20
-140.5988849999999957
11
157.3446759999999927
21
-140.7893609999999853
0
LINE
8
BLACK
6
CONTINUOUS
10
157.3446759999999927
20
-140.7893609999999853
11
157.2494379999999978
21
-140.884600000000006
0
LINE
8
BLACK
6
CONTINUOUS
10
157.2494379999999978
20
-140.884600000000006
11
157.0589619999999798
21
-140.9798380000000009
0
LINE
8
BLACK
6
CONTINUOUS
10
157.0589619999999798
20
-140.9798380000000009
11
156.8684849999999926
21
-140.9798380000000009
0
LINE
8
BLACK
6
CONTINUOUS
10
156.8684849999999926
20
-140.9798380000000009
11
156.678009000000003
21
-140.884600000000006
0
LINE
8
BLACK
6
CONTINUOUS
10
156.678009000000003
20
-140.884600000000006
11
156.5827709999999797
21
-140.7893609999999853
0
LINE
8
BLACK
6
CONTINUOUS
10
156.5827709999999797
20
-140.7893609999999853
11
156.4875329999999849
21
-140.5988849999999957
0
LINE
8
BLACK
6
CONTINUOUS
10
156.4875329999999849
20
-140.5988849999999957
11
156.3922949999999901
21
-140.2179329999999879
0
LINE
8
BLACK
6
CONTINUOUS
10
156.3922949999999901
20
-140.2179329999999879
11
156.3922949999999901
21
-139.7417419999999879
0
LINE
8
BLACK
6
CONTINUOUS
10
156.3922949999999901
20
-139.7417419999999879
11
156.4875329999999849
21
-139.3607899999999802
0
LINE
8
BLACK
6
CONTINUOUS
10
156.4875329999999849
20
-139.3607899999999802
11
156.5827709999999797
21
-139.1703139999999905
0
LINE
8
BLACK
6
CONTINUOUS
10
156.5827709999999797
20
-139.1703139999999905
11
156.678009000000003
21
-139.0750759999999957
0
LINE
8
BLACK
6
CONTINUOUS
10
156.678009000000003
20
-139.0750759999999957
11
156.8684849999999926
21
-138.9798380000000009
0
LINE
8
BLACK
6
CONTINUOUS
10
159.9161049999999875
20
-140.9798380000000009
11
159.9161049999999875
21
-138.9798380000000009
0
LINE
8
BLACK
6
CONTINUOUS
10
160.7732479999999953
20
-140.9798380000000009
11
160.7732479999999953
21
-139.9322190000000035
0
LINE
8
BLACK
6
CONTINUOUS
10
160.7732479999999953
20
-139.9322190000000035
11
160.6780100000000004
21
-139.7417419999999879
0
LINE
8
BLACK
6
CONTINUOUS
10
160.6780100000000004
20
-139.7417419999999879
11
160.4875339999999824
21
-139.6465039999999931
0
LINE
8
BLACK
6
CONTINUOUS
10
160.4875339999999824
20
-139.6465039999999931
11
160.2018190000000004
21
-139.6465039999999931
0
LINE
8
BLACK
6
CONTINUOUS
10
160.2018190000000004
20
-139.6465039999999931
11
160.0113429999999823
21
-139.7417419999999879
0
LINE
8
BLACK
6
CONTINUOUS
10
160.0113429999999823
20
-139.7417419999999879
11
159.9161049999999875
21
-139.8369799999999827
0
LINE
8
BLACK
6
CONTINUOUS
10
162.0113429999999823
20
-140.9798380000000009
11
161.8208669999999927
21
-140.884600000000006
0
LINE
8
BLACK
6
CONTINUOUS
10
161.8208669999999927
20
-140.884600000000006
11
161.7256289999999979
21
-140.7893609999999853
0
LINE
8
BLACK
6
CONTINUOUS
10
161.7256289999999979
20
-140.7893609999999853
11
161.630391000000003
21
-140.5988849999999957
0
LINE
8
BLACK
6
CONTINUOUS
10
161.630391000000003
20
-140.5988849999999957
11
161.630391000000003
21
-140.0274569999999983
0
LINE
8
BLACK
6
CONTINUOUS
10
161.630391000000003
20
-140.0274569999999983
11
161.7256289999999979
21
-139.8369799999999827
0
LINE
8
BLACK
6
CONTINUOUS
10
161.7256289999999979
20
-139.8369799999999827
11
161.8208669999999927
21
-139.7417419999999879
0
LINE
8
BLACK
6
CONTINUOUS
10
161.8208669999999927
20
-139.7417419999999879
11
162.0113429999999823
21
-139.6465039999999931
0
LINE
8
BLACK
6
CONTINUOUS
10
162.0113429999999823
20
-139.6465039999999931
11
162.2970579999999927
21
-139.6465039999999931
0
LINE
8
BLACK
6
CONTINUOUS
10
162.2970579999999927
20
-139.6465039999999931
11
162.4875339999999824
21
-139.7417419999999879
0
LINE
8
BLACK
6
CONTINUOUS
10
162.4875339999999824
20
-139.7417419999999879
11
162.5827720000000056
21
-139.8369799999999827
0
LINE
8
BLACK
6
CONTINUOUS
10
162.5827720000000056
20
-139.8369799999999827
11
162.6780100000000004
21
-140.0274569999999983
0
LINE
8
BLACK
6
CONTINUOUS
10
162.6780100000000004
20
-140.0274569999999983
11
162.6780100000000004
21
-140.5988849999999957
0
LINE
8
BLACK
6
CONTINUOUS
10
162.6780100000000004
20
-140.5988849999999957
11
162.5827720000000056
21
-140.7893609999999853
0
LINE
8
BLACK
6
CONTINUOUS
10
162.5827720000000056
20
-140.7893609999999853
11
162.4875339999999824
21
-140.884600000000006
0
LINE
8
BLACK
6
CONTINUOUS
10
162.4875339999999824
20
-140.884600000000006
11
162.2970579999999927
21
-140.9798380000000009
0
LINE
8
BLACK
6
CONTINUOUS
10
162.2970579999999927
20
-140.9798380000000009
11
162.0113429999999823
21
-140.9798380000000009
0
LINE
8
BLACK
6
CONTINUOUS
10
163.8208669999999927
20
-140.9798380000000009
11
163.630391000000003
21
-140.884600000000006
0
LINE
8
BLACK
6
CONTINUOUS
10
163.630391000000003
20
-140.884600000000006
11
163.5351529999999798
21
-140.6941229999999905
0
LINE
8
BLACK
6
CONTINUOUS
10
163.5351529999999798
20
-140.6941229999999905
11
163.5351529999999798
21
-138.9798380000000009
0
LINE
8
BLACK
6
CONTINUOUS
10
165.3446769999999901
20
-140.884600000000006
11
165.1542010000000005
21
-140.9798380000000009
0
LINE
8
BLACK
6
CONTINUOUS
10
165.1542010000000005
20
-140.9798380000000009
11
164.7732479999999953
21
-140.9798380000000009
0
LINE
8
BLACK
6
CONTINUOUS
10
164.7732479999999953
20
-140.9798380000000009
11
164.5827720000000056
21
-140.884600000000006
0
LINE
8
BLACK
6
CONTINUOUS
10
164.5827720000000056
20
-140.884600000000006
11
164.4875339999999824
21
-140.6941229999999905
0
LINE
8
BLACK
6
CONTINUOUS
10
164.4875339999999824
20
-140.6941229999999905
11
164.4875339999999824
21
-139.9322190000000035
0
LINE
8
BLACK
6
CONTINUOUS
10
164.4875339999999824
20
-139.9322190000000035
11
164.5827720000000056
21
-139.7417419999999879
0
LINE
8
BLACK
6
CONTINUOUS
10
164.5827720000000056
20
-139.7417419999999879
11
164.7732479999999953
21
-139.6465039999999931
0
LINE
8
BLACK
6
CONTINUOUS
10
164.7732479999999953
20
-139.6465039999999931
11
165.1542010000000005
21
-139.6465039999999931
0
LINE
8
BLACK
6
CONTINUOUS
10
165.1542010000000005
20
-139.6465039999999931
11
165.3446769999999901
21
-139.7417419999999879
0
LINE
8
BLACK
6
CONTINUOUS
10
165.3446769999999901
20
-139.7417419999999879
11
165.439914999999985
21
-139.9322190000000035
0
LINE
8
BLACK
6
CONTINUOUS
10
165.439914999999985
20
-139.9322190000000035
11
165.439914999999985
21
-140.1226949999999931
0
LINE
8
BLACK
6
CONTINUOUS
10
165.439914999999985
20
-140.1226949999999931
11
164.4875339999999824
21
-140.3131709999999828
0
LINE
8
BLACK
6
CONTINUOUS
10
166.2018199999999979
20
-140.884600000000006
11
166.3922959999999875
21
-140.9798380000000009
0
LINE
8
BLACK
6
CONTINUOUS
10
166.3922959999999875
20
-140.9798380000000009
11
166.7732479999999953
21
-140.9798380000000009
0
LINE
8
BLACK
6
CONTINUOUS
10
166.7732479999999953
20
-140.9798380000000009
11
166.9637249999999824
21
-140.884600000000006
0
LINE
8
BLACK
6
CONTINUOUS
10
166.9637249999999824
20
-140.884600000000006
11
167.0589630000000056
21
-140.6941229999999905
0
LINE
8
BLACK
6
CONTINUOUS
10
167.0589630000000056
20
-140.6941229999999905
11
167.0589630000000056
21
-140.5988849999999957
0
LINE
8
BLACK
6
CONTINUOUS
10
167.0589630000000056
20
-140.5988849999999957
11
166.9637249999999824
21
-140.408409000000006
0
LINE
8
BLACK
6
CONTINUOUS
10
166.9637249999999824
20
-140.408409000000006
11
166.7732479999999953
21
-140.3131709999999828
0
LINE
8
BLACK
6
CONTINUOUS
10
166.7732479999999953
20
-140.3131709999999828
11
166.4875339999999824
21
-140.3131709999999828
0
LINE
8
BLACK
6
CONTINUOUS
10
166.4875339999999824
20
-140.3131709999999828
11
166.2970579999999927
21
-140.2179329999999879
0
LINE
8
BLACK
6
CONTINUOUS
10
166.2970579999999927
20
-140.2179329999999879
11
166.2018199999999979
21
-140.0274569999999983
0
LINE
8
BLACK
6
CONTINUOUS
10
166.2018199999999979
20
-140.0274569999999983
11
166.2018199999999979
21
-139.9322190000000035
0
LINE
8
BLACK
6
CONTINUOUS
10
166.2018199999999979
20
-139.9322190000000035
11
166.2970579999999927
21
-139.7417419999999879
0
LINE
8
BLACK
6
CONTINUOUS
10
166.2970579999999927
20
-139.7417419999999879
11
166.4875339999999824
21
-139.6465039999999931
0
LINE
8
BLACK
6
CONTINUOUS
10
166.4875339999999824
20
-139.6465039999999931
11
166.7732479999999953
21
-139.6465039999999931
0
LINE
8
BLACK
6
CONTINUOUS
10
166.7732479999999953
20
-139.6465039999999931
11
166.9637249999999824
21
-139.7417419999999879
0
LINE
8
BLACK
6
CONTINUOUS
10
169.4399159999999824
20
-140.2179329999999879
11
170.9637259999999799
21
-140.2179329999999879
0
LINE
8
BLACK
6
CONTINUOUS
10
170.2018209999999954
20
-140.9798380000000009
11
170.2018209999999954
21
-139.4560280000000034
0
LINE
8
BLACK
6
CONTINUOUS
10
174.2970589999999902
20
-139.6465039999999931
11
174.2970589999999902
21
-140.9798380000000009
0
LINE
8
BLACK
6
CONTINUOUS
10
173.8208679999999902
20
-138.884600000000006
11
173.3446779999999876
21
-140.3131709999999828
0
LINE
8
BLACK
6
CONTINUOUS
10
173.3446779999999876
20
-140.3131709999999828
11
174.5827730000000031
21
-140.3131709999999828
0
LINE
8
BLACK
6
CONTINUOUS
10
176.7732499999999902
20
-140.884600000000006
11
176.9637259999999799
21
-140.9798380000000009
0
LINE
8
BLACK
6
CONTINUOUS
10
176.9637259999999799
20
-140.9798380000000009
11
177.3446779999999876
21
-140.9798380000000009
0
LINE
8
BLACK
6
CONTINUOUS
10
177.3446779999999876
20
-140.9798380000000009
11
177.5351550000000032
21
-140.884600000000006
0
LINE
8
BLACK
6
CONTINUOUS
10
177.5351550000000032
20
-140.884600000000006
11
177.630392999999998
21
-140.6941229999999905
0
LINE
8
BLACK
6
CONTINUOUS
10
177.630392999999998
20
-140.6941229999999905
11
177.630392999999998
21
-140.5988849999999957
0
LINE
8
BLACK
6
CONTINUOUS
10
177.630392999999998
20
-140.5988849999999957
11
177.5351550000000032
21
-140.408409000000006
0
LINE
8
BLACK
6
CONTINUOUS
10
177.5351550000000032
20
-140.408409000000006
11
177.3446779999999876
21
-140.3131709999999828
0
LINE
8
BLACK
6
CONTINUOUS
10
177.3446779999999876
20
-140.3131709999999828
11
177.0589640000000031
21
-140.3131709999999828
0
LINE
8
BLACK
6
CONTINUOUS
10
177.0589640000000031
20
-140.3131709999999828
11
176.868487999999985
21
-140.2179329999999879
0
LINE
8
BLACK
6
CONTINUOUS
10
176.868487999999985
20
-140.2179329999999879
11
176.7732499999999902
21
-140.0274569999999983
0
LINE
8
BLACK
6
CONTINUOUS
10
176.7732499999999902
20
-140.0274569999999983
11
176.7732499999999902
21
-139.9322190000000035
0
LINE
8
BLACK
6
CONTINUOUS
10
176.7732499999999902
20
-139.9322190000000035
11
176.868487999999985
21
-139.7417419999999879
0
LINE
8
BLACK
6
CONTINUOUS
10
176.868487999999985
20
-139.7417419999999879
11
177.0589640000000031
21
-139.6465039999999931
0
LINE
8
BLACK
6
CONTINUOUS
10
177.0589640000000031
20
-139.6465039999999931
11
177.3446779999999876
21
-139.6465039999999931
0
LINE
8
BLACK
6
CONTINUOUS
10
177.3446779999999876
20
-139.6465039999999931
11
177.5351550000000032
21
-139.7417419999999879
0
LINE
8
BLACK
6
CONTINUOUS
10
178.7732499999999902
20
-140.9798380000000009
11
178.5827740000000006
21
-140.884600000000006
0
LINE
8
BLACK
6
CONTINUOUS
10
178.5827740000000006
20
-140.884600000000006
11
178.4875360000000057
21
-140.6941229999999905
0
LINE
8
BLACK
6
CONTINUOUS
10
178.4875360000000057
20
-140.6941229999999905
11
178.4875360000000057
21
-138.9798380000000009
0
LINE
8
BLACK
6
CONTINUOUS
10
179.8208689999999876
20
-140.9798380000000009
11
179.630392999999998
21
-140.884600000000006
0
LINE
8
BLACK
6
CONTINUOUS
10
179.630392999999998
20
-140.884600000000006
11
179.5351550000000032
21
-140.7893609999999853
0
LINE
8
BLACK
6
CONTINUOUS
10
179.5351550000000032
20
-140.7893609999999853
11
179.4399169999999799
21
-140.5988849999999957
0
LINE
8
BLACK
6
CONTINUOUS
10
179.4399169999999799
20
-140.5988849999999957
11
179.4399169999999799
21
-140.0274569999999983
0
LINE
8
BLACK
6
CONTINUOUS
10
179.4399169999999799
20
-140.0274569999999983
11
179.5351550000000032
21
-139.8369799999999827
0
LINE
8
BLACK
6
CONTINUOUS
10
179.5351550000000032
20
-139.8369799999999827
11
179.630392999999998
21
-139.7417419999999879
0
LINE
8
BLACK
6
CONTINUOUS
10
179.630392999999998
20
-139.7417419999999879
11
179.8208689999999876
21
-139.6465039999999931
0
LINE
8
BLACK
6
CONTINUOUS
10
179.8208689999999876
20
-139.6465039999999931
11
180.106583999999998
21
-139.6465039999999931
0
LINE
8
BLACK
6
CONTINUOUS
10
180.106583999999998
20
-139.6465039999999931
11
180.2970599999999877
21
-139.7417419999999879
0
LINE
8
BLACK
6
CONTINUOUS
10
180.2970599999999877
20
-139.7417419999999879
11
180.3922979999999825
21
-139.8369799999999827
0
LINE
8
BLACK
6
CONTINUOUS
10
180.3922979999999825
20
-139.8369799999999827
11
180.4875360000000057
21
-140.0274569999999983
0
LINE
8
BLACK
6
CONTINUOUS
10
180.4875360000000057
20
-140.0274569999999983
11
180.4875360000000057
21
-140.5988849999999957
0
LINE
8
BLACK
6
CONTINUOUS
10
180.4875360000000057
20
-140.5988849999999957
11
180.3922979999999825
21
-140.7893609999999853
0
LINE
8
BLACK
6
CONTINUOUS
10
180.3922979999999825
20
-140.7893609999999853
11
180.2970599999999877
21
-140.884600000000006
0
LINE
8
BLACK
6
CONTINUOUS
10
180.2970599999999877
20
-140.884600000000006
11
180.106583999999998
21
-140.9798380000000009
0
LINE
8
BLACK
6
CONTINUOUS
10
180.106583999999998
20
-140.9798380000000009
11
179.8208689999999876
21
-140.9798380000000009
0
LINE
8
BLACK
6
CONTINUOUS
10
181.0589650000000006
20
-139.6465039999999931
11
181.8208689999999876
21
-139.6465039999999931
0
LINE
8
BLACK
6
CONTINUOUS
10
181.3446789999999851
20
-138.9798380000000009
11
181.3446789999999851
21
-140.6941229999999905
0
LINE
8
BLACK
6
CONTINUOUS
10
181.3446789999999851
20
-140.6941229999999905
11
181.4399169999999799
21
-140.884600000000006
0
LINE
8
BLACK
6
CONTINUOUS
10
181.4399169999999799
20
-140.884600000000006
11
181.630392999999998
21
-140.9798380000000009
0
LINE
8
BLACK
6
CONTINUOUS
10
181.630392999999998
20
-140.9798380000000009
11
181.8208689999999876
21
-140.9798380000000009
0
LINE
8
BLACK
6
CONTINUOUS
10
182.3922979999999825
20
-140.884600000000006
11
182.5827740000000006
21
-140.9798380000000009
0
LINE
8
BLACK
6
CONTINUOUS
10
182.5827740000000006
20
-140.9798380000000009
11
182.9637259999999799
21
-140.9798380000000009
0
LINE
8
BLACK
6
CONTINUOUS
10
182.9637259999999799
20
-140.9798380000000009
11
183.1542029999999954
21
-140.884600000000006
0
LINE
8
BLACK
6
CONTINUOUS
10
183.1542029999999954
20
-140.884600000000006
11
183.2494409999999903
21
-140.6941229999999905
0
LINE
8
BLACK
6
CONTINUOUS
10
183.2494409999999903
20
-140.6941229999999905
11
183.2494409999999903
21
-140.5988849999999957
0
LINE
8
BLACK
6
CONTINUOUS
10
183.2494409999999903
20
-140.5988849999999957
11
183.1542029999999954
21
-140.408409000000006
0
LINE
8
BLACK
6
CONTINUOUS
10
183.1542029999999954
20
-140.408409000000006
11
182.9637259999999799
21
-140.3131709999999828
0
LINE
8
BLACK
6
CONTINUOUS
10
182.9637259999999799
20
-140.3131709999999828
11
182.6780119999999954
21
-140.3131709999999828
0
LINE
8
BLACK
6
CONTINUOUS
10
182.6780119999999954
20
-140.3131709999999828
11
182.4875360000000057
21
-140.2179329999999879
0
LINE
8
BLACK
6
CONTINUOUS
10
182.4875360000000057
20
-140.2179329999999879
11
182.3922979999999825
21
-140.0274569999999983
0
LINE
8
BLACK
6
CONTINUOUS
10
182.3922979999999825
20
-140.0274569999999983
11
182.3922979999999825
21
-139.9322190000000035
0
LINE
8
BLACK
6
CONTINUOUS
10
182.3922979999999825
20
-139.9322190000000035
11
182.4875360000000057
21
-139.7417419999999879
0
LINE
8
BLACK
6
CONTINUOUS
10
182.4875360000000057
20
-139.7417419999999879
11
182.6780119999999954
21
-139.6465039999999931
0
LINE
8
BLACK
6
CONTINUOUS
10
182.6780119999999954
20
-139.6465039999999931
11
182.9637259999999799
21
-139.6465039999999931
0
LINE
8
BLACK
6
CONTINUOUS
10
182.9637259999999799
20
-139.6465039999999931
11
183.1542029999999954
21
-139.7417419999999879
0
LINE
8
BLACK
6
CONTINUOUS
10
183.9161079999999799
20
-141.7417419999999879
11
184.0113460000000032
21
-141.6465039999999931
0
LINE
8
BLACK
6
CONTINUOUS
10
184.0113460000000032
20
-141.6465039999999931
11
184.2018219999999928
21
-141.3607899999999802
0
LINE
8
BLACK
6
CONTINUOUS
10
184.2018219999999928
20
-141.3607899999999802
11
184.2970599999999877
21
-141.1703139999999905
0
LINE
8
BLACK
6
CONTINUOUS
10
184.2970599999999877
20
-141.1703139999999905
11
184.3922979999999825
21
-140.884600000000006
0
LINE
8
BLACK
6
CONTINUOUS
10
184.3922979999999825
20
-140.884600000000006
11
184.4875360000000057
21
-140.408409000000006
0
LINE
8
BLACK
6
CONTINUOUS
10
184.4875360000000057
20
-140.408409000000006
11
184.4875360000000057
21
-140.0274569999999983
0
LINE
8
BLACK
6
CONTINUOUS
10
184.4875360000000057
20
-140.0274569999999983
11
184.3922979999999825
21
-139.5512659999999983
0
LINE
8
BLACK
6
CONTINUOUS
10
184.3922979999999825
20
-139.5512659999999983
11
184.2970599999999877
21
-139.2655519999999854
0
LINE
8
BLACK
6
CONTINUOUS
10
184.2970599999999877
20
-139.2655519999999854
11
184.2018219999999928
21
-139.0750759999999957
0
LINE
8
BLACK
6
CONTINUOUS
10
184.2018219999999928
20
-139.0750759999999957
11
184.0113460000000032
21
-138.7893609999999853
0
LINE
8
BLACK
6
CONTINUOUS
10
184.0113460000000032
20
-138.7893609999999853
11
183.9161079999999799
21
-138.6941229999999905
0
LINE
8
BLACK
6
CONTINUOUS
10
119.4749999999999943
20
-142.2049999999999841
11
119.4749999999999943
21
-143.2049999999999841
0
LINE
8
BLACK
6
CONTINUOUS
10
118.9749999999999943
20
-142.7049999999999841
11
119.9749999999999943
21
-142.7049999999999841
0
LINE
8
BLACK
6
CONTINUOUS
10
123.6303869999999989
20
-143.6198379999999872
11
122.4875299999999925
21
-143.6198379999999872
0
LINE
8
BLACK
6
CONTINUOUS
10
123.0589579999999899
20
-143.6198379999999872
11
123.0589579999999899
21
-141.6198379999999872
0
LINE
8
BLACK
6
CONTINUOUS
10
123.0589579999999899
20
-141.6198379999999872
11
122.8684820000000002
21
-141.9055520000000001
0
LINE
8
BLACK
6
CONTINUOUS
10
122.8684820000000002
20
-141.9055520000000001
11
122.6780059999999963
21
-142.0960279999999898
0
LINE
8
BLACK
6
CONTINUOUS
10
122.6780059999999963
20
-142.0960279999999898
11
122.4875299999999925
21
-142.1912659999999846
0
LINE
8
BLACK
6
CONTINUOUS
10
124.4875299999999925
20
-143.4293610000000001
11
124.5827679999999873
21
-143.5245999999999924
0
LINE
8
BLACK
6
CONTINUOUS
10
124.5827679999999873
20
-143.5245999999999924
11
124.4875299999999925
21
-143.6198379999999872
0
LINE
8
BLACK
6
CONTINUOUS
10
124.4875299999999925
20
-143.6198379999999872
11
124.3922919999999976
21
-143.5245999999999924
0
LINE
8
BLACK
6
CONTINUOUS
10
124.3922919999999976
20
-143.5245999999999924
11
124.4875299999999925
21
-143.4293610000000001
0
LINE
8
BLACK
6
CONTINUOUS
10
124.4875299999999925
20
-143.4293610000000001
11
124.4875299999999925
21
-143.6198379999999872
0
LINE
8
BLACK
6
CONTINUOUS
10
125.8208629999999886
20
-141.6198379999999872
11
126.0113399999999899
21
-141.6198379999999872
0
LINE
8
BLACK
6
CONTINUOUS
10
126.0113399999999899
20
-141.6198379999999872
11
126.2018159999999938
21
-141.7150759999999821
0
LINE
8
BLACK
6
CONTINUOUS
10
126.2018159999999938
20
-141.7150759999999821
11
126.2970539999999886
21
-141.8103140000000053
0
LINE
8
BLACK
6
CONTINUOUS
10
126.2970539999999886
20
-141.8103140000000053
11
126.3922919999999976
21
-142.000789999999995
0
LINE
8
BLACK
6
CONTINUOUS
10
126.3922919999999976
20
-142.000789999999995
11
126.4875299999999925
21
-142.3817420000000027
0
LINE
8
BLACK
6
CONTINUOUS
10
126.4875299999999925
20
-142.3817420000000027
11
126.4875299999999925
21
-142.8579330000000027
0
LINE
8
BLACK
6
CONTINUOUS
10
126.4875299999999925
20
-142.8579330000000027
11
126.3922919999999976
21
-143.238884999999982
0
LINE
8
BLACK
6
CONTINUOUS
10
126.3922919999999976
20
-143.238884999999982
11
126.2970539999999886
21
-143.4293610000000001
0
LINE
8
BLACK
6
CONTINUOUS
10
126.2970539999999886
20
-143.4293610000000001
11
126.2018159999999938
21
-143.5245999999999924
0
LINE
8
BLACK
6
CONTINUOUS
10
126.2018159999999938
20
-143.5245999999999924
11
126.0113399999999899
21
-143.6198379999999872
0
LINE
8
BLACK
6
CONTINUOUS
10
126.0113399999999899
20
-143.6198379999999872
11
125.8208629999999886
21
-143.6198379999999872
0
LINE
8
BLACK
6
CONTINUOUS
10
125.8208629999999886
20
-143.6198379999999872
11
125.6303869999999989
21
-143.5245999999999924
0
LINE
8
BLACK
6
CONTINUOUS
10
125.6303869999999989
20
-143.5245999999999924
11
125.5351489999999899
21
-143.4293610000000001
0
LINE
8
BLACK
6
CONTINUOUS
10
125.5351489999999899
20
-143.4293610000000001
11
125.4399109999999951
21
-143.238884999999982
0
LINE
8
BLACK
6
CONTINUOUS
10
125.4399109999999951
20
-143.238884999999982
11
125.3446730000000002
21
-142.8579330000000027
0
LINE
8
BLACK
6
CONTINUOUS
10
125.3446730000000002
20
-142.8579330000000027
11
125.3446730000000002
21
-142.3817420000000027
0
LINE
8
BLACK
6
CONTINUOUS
10
125.3446730000000002
20
-142.3817420000000027
11
125.4399109999999951
21
-142.000789999999995
0
LINE
8
BLACK
6
CONTINUOUS
10
125.4399109999999951
20
-142.000789999999995
11
125.5351489999999899
21
-141.8103140000000053
0
LINE
8
BLACK
6
CONTINUOUS
10
125.5351489999999899
20
-141.8103140000000053
11
125.6303869999999989
21
-141.7150759999999821
0
LINE
8
BLACK
6
CONTINUOUS
10
125.6303869999999989
20
-141.7150759999999821
11
125.8208629999999886
21
-141.6198379999999872
0
LINE
8
BLACK
6
CONTINUOUS
10
127.7256249999999937
20
-141.6198379999999872
11
127.9161019999999951
21
-141.6198379999999872
0
LINE
8
BLACK
6
CONTINUOUS
10
127.9161019999999951
20
-141.6198379999999872
11
128.1065779999999847
21
-141.7150759999999821
0
LINE
8
BLACK
6
CONTINUOUS
10
128.1065779999999847
20
-141.7150759999999821
11
128.201816000000008
21
-141.8103140000000053
0
LINE
8
BLACK
6
CONTINUOUS
10
128.201816000000008
20
-141.8103140000000053
11
128.2970540000000028
21
-142.000789999999995
0
LINE
8
BLACK
6
CONTINUOUS
10
128.2970540000000028
20
-142.000789999999995
11
128.3922919999999976
21
-142.3817420000000027
0
LINE
8
BLACK
6
CONTINUOUS
10
128.3922919999999976
20
-142.3817420000000027
11
128.3922919999999976
21
-142.8579330000000027
0
LINE
8
BLACK
6
CONTINUOUS
10
128.3922919999999976
20
-142.8579330000000027
11
128.2970540000000028
21
-143.238884999999982
0
LINE
8
BLACK
6
CONTINUOUS
10
128.2970540000000028
20
-143.238884999999982
11
128.201816000000008
21
-143.4293610000000001
0
LINE
8
BLACK
6
CONTINUOUS
10
128.201816000000008
20
-143.4293610000000001
11
128.1065779999999847
21
-143.5245999999999924
0
LINE
8
BLACK
6
CONTINUOUS
10
128.1065779999999847
20
-143.5245999999999924
11
127.9161019999999951
21
-143.6198379999999872
0
LINE
8
BLACK
6
CONTINUOUS
10
127.9161019999999951
20
-143.6198379999999872
11
127.7256249999999937
21
-143.6198379999999872
0
LINE
8
BLACK
6
CONTINUOUS
10
127.7256249999999937
20
-143.6198379999999872
11
127.5351489999999899
21
-143.5245999999999924
0
LINE
8
BLACK
6
CONTINUOUS
10
127.5351489999999899
20
-143.5245999999999924
11
127.4399109999999951
21
-143.4293610000000001
0
LINE
8
BLACK
6
CONTINUOUS
10
127.4399109999999951
20
-143.4293610000000001
11
127.3446730000000002
21
-143.238884999999982
0
LINE
8
BLACK
6
CONTINUOUS
10
127.3446730000000002
20
-143.238884999999982
11
127.2494349999999912
21
-142.8579330000000027
0
LINE
8
BLACK
6
CONTINUOUS
10
127.2494349999999912
20
-142.8579330000000027
11
127.2494349999999912
21
-142.3817420000000027
0
LINE
8
BLACK
6
CONTINUOUS
10
127.2494349999999912
20
-142.3817420000000027
11
127.3446730000000002
21
-142.000789999999995
0
LINE
8
BLACK
6
CONTINUOUS
10
127.3446730000000002
20
-142.000789999999995
11
127.4399109999999951
21
-141.8103140000000053
0
LINE
8
BLACK
6
CONTINUOUS
10
127.4399109999999951
20
-141.8103140000000053
11
127.5351489999999899
21
-141.7150759999999821
0
LINE
8
BLACK
6
CONTINUOUS
10
127.5351489999999899
20
-141.7150759999999821
11
127.7256249999999937
21
-141.6198379999999872
0
LINE
8
BLACK
6
CONTINUOUS
10
129.6303869999999847
20
-141.6198379999999872
11
129.8208640000000003
21
-141.6198379999999872
0
LINE
8
BLACK
6
CONTINUOUS
10
129.8208640000000003
20
-141.6198379999999872
11
130.0113399999999899
21
-141.7150759999999821
0
LINE
8
BLACK
6
CONTINUOUS
10
130.0113399999999899
20
-141.7150759999999821
11
130.1065779999999847
21
-141.8103140000000053
0
LINE
8
BLACK
6
CONTINUOUS
10
130.1065779999999847
20
-141.8103140000000053
11
130.201816000000008
21
-142.000789999999995
0
LINE
8
BLACK
6
CONTINUOUS
10
130.201816000000008
20
-142.000789999999995
11
130.2970540000000028
21
-142.3817420000000027
0
LINE
8
BLACK
6
CONTINUOUS
10
130.2970540000000028
20
-142.3817420000000027
11
130.2970540000000028
21
-142.8579330000000027
0
LINE
8
BLACK
6
CONTINUOUS
10
130.2970540000000028
20
-142.8579330000000027
11
130.201816000000008
21
-143.238884999999982
0
LINE
8
BLACK
6
CONTINUOUS
10
130.201816000000008
20
-143.238884999999982
11
130.1065779999999847
21
-143.4293610000000001
0
LINE
8
BLACK
6
CONTINUOUS
10
130.1065779999999847
20
-143.4293610000000001
11
130.0113399999999899
21
-143.5245999999999924
0
LINE
8
BLACK
6
CONTINUOUS
10
130.0113399999999899
20
-143.5245999999999924
11
129.8208640000000003
21
-143.6198379999999872
0
LINE
8
BLACK
6
CONTINUOUS
10
129.8208640000000003
20
-143.6198379999999872
11
129.6303869999999847
21
-143.6198379999999872
0
LINE
8
BLACK
6
CONTINUOUS
10
129.6303869999999847
20
-143.6198379999999872
11
129.4399109999999951
21
-143.5245999999999924
0
LINE
8
BLACK
6
CONTINUOUS
10
129.4399109999999951
20
-143.5245999999999924
11
129.3446730000000002
21
-143.4293610000000001
0
LINE
8
BLACK
6
CONTINUOUS
10
129.3446730000000002
20
-143.4293610000000001
11
129.2494350000000054
21
-143.238884999999982
0
LINE
8
BLACK
6
CONTINUOUS
10
129.2494350000000054
20
-143.238884999999982
11
129.1541969999999822
21
-142.8579330000000027
0
LINE
8
BLACK
6
CONTINUOUS
10
129.1541969999999822
20
-142.8579330000000027
11
129.1541969999999822
21
-142.3817420000000027
0
LINE
8
BLACK
6
CONTINUOUS
10
129.1541969999999822
20
-142.3817420000000027
11
129.2494350000000054
21
-142.000789999999995
0
LINE
8
BLACK
6
CONTINUOUS
10
129.2494350000000054
20
-142.000789999999995
11
129.3446730000000002
21
-141.8103140000000053
0
LINE
8
BLACK
6
CONTINUOUS
10
129.3446730000000002
20
-141.8103140000000053
11
129.4399109999999951
21
-141.7150759999999821
0
LINE
8
BLACK
6
CONTINUOUS
10
129.4399109999999951
20
-141.7150759999999821
11
129.6303869999999847
21
-141.6198379999999872
0
LINE
8
BLACK
6
CONTINUOUS
10
131.1541969999999822
20
-143.6198379999999872
11
131.1541969999999822
21
-142.2865039999999794
0
LINE
8
BLACK
6
CONTINUOUS
10
131.1541969999999822
20
-142.4769799999999975
11
131.2494350000000054
21
-142.3817420000000027
0
LINE
8
BLACK
6
CONTINUOUS
10
131.2494350000000054
20
-142.3817420000000027
11
131.4399109999999951
21
-142.2865039999999794
0
LINE
8
BLACK
6
CONTINUOUS
10
131.4399109999999951
20
-142.2865039999999794
11
131.7256260000000054
21
-142.2865039999999794
0
LINE
8
BLACK
6
CONTINUOUS
10
131.7256260000000054
20
-142.2865039999999794
11
131.9161019999999951
21
-142.3817420000000027
0
LINE
8
BLACK
6
CONTINUOUS
10
131.9161019999999951
20
-142.3817420000000027
11
132.0113399999999899
21
-142.5722189999999898
0
LINE
8
BLACK
6
CONTINUOUS
10
132.0113399999999899
20
-142.5722189999999898
11
132.0113399999999899
21
-143.6198379999999872
0
LINE
8
BLACK
6
CONTINUOUS
10
132.0113399999999899
20
-142.5722189999999898
11
132.1065779999999847
21
-142.3817420000000027
0
LINE
8
BLACK
6
CONTINUOUS
10
132.1065779999999847
20
-142.3817420000000027
11
132.2970540000000028
21
-142.2865039999999794
0
LINE
8
BLACK
6
CONTINUOUS
10
132.2970540000000028
20
-142.2865039999999794
11
132.5827679999999873
21
-142.2865039999999794
0
LINE
8
BLACK
6
CONTINUOUS
10
132.5827679999999873
20
-142.2865039999999794
11
132.7732450000000028
21
-142.3817420000000027
0
LINE
8
BLACK
6
CONTINUOUS
10
132.7732450000000028
20
-142.3817420000000027
11
132.8684829999999977
21
-142.5722189999999898
0
LINE
8
BLACK
6
CONTINUOUS
10
132.8684829999999977
20
-142.5722189999999898
11
132.8684829999999977
21
-143.6198379999999872
0
LINE
8
BLACK
6
CONTINUOUS
10
133.8208640000000003
20
-143.6198379999999872
11
133.8208640000000003
21
-142.2865039999999794
0
LINE
8
BLACK
6
CONTINUOUS
10
133.8208640000000003
20
-142.4769799999999975
11
133.9161019999999951
21
-142.3817420000000027
0
LINE
8
BLACK
6
CONTINUOUS
10
133.9161019999999951
20
-142.3817420000000027
11
134.1065779999999847
21
-142.2865039999999794
0
LINE
8
BLACK
6
CONTINUOUS
10
134.1065779999999847
20
-142.2865039999999794
11
134.3922929999999951
21
-142.2865039999999794
0
LINE
8
BLACK
6
CONTINUOUS
10
134.3922929999999951
20
-142.2865039999999794
11
134.5827689999999848
21
-142.3817420000000027
0
LINE
8
BLACK
6
CONTINUOUS
10
134.5827689999999848
20
-142.3817420000000027
11
134.678007000000008
21
-142.5722189999999898
0
LINE
8
BLACK
6
CONTINUOUS
10
134.678007000000008
20
-142.5722189999999898
11
134.678007000000008
21
-143.6198379999999872
0
LINE
8
BLACK
6
CONTINUOUS
10
134.678007000000008
20
-142.5722189999999898
11
134.7732450000000028
21
-142.3817420000000027
0
LINE
8
BLACK
6
CONTINUOUS
10
134.7732450000000028
20
-142.3817420000000027
11
134.9637209999999925
21
-142.2865039999999794
0
LINE
8
BLACK
6
CONTINUOUS
10
134.9637209999999925
20
-142.2865039999999794
11
135.2494350000000054
21
-142.2865039999999794
0
LINE
8
BLACK
6
CONTINUOUS
10
135.2494350000000054
20
-142.2865039999999794
11
135.4399119999999925
21
-142.3817420000000027
0
LINE
8
BLACK
6
CONTINUOUS
10
135.4399119999999925
20
-142.3817420000000027
11
135.5351499999999874
21
-142.5722189999999898
0
LINE
8
BLACK
6
CONTINUOUS
10
135.5351499999999874
20
-142.5722189999999898
11
135.5351499999999874
21
-143.6198379999999872
0
LINE
8
BLACK
6
CONTINUOUS
10
139.4399119999999925
20
-141.5245999999999924
11
137.7256270000000029
21
-144.0960279999999898
0
LINE
8
BLACK
6
CONTINUOUS
10
142.0113409999999874
20
-141.6198379999999872
11
142.2018180000000029
21
-141.6198379999999872
0
LINE
8
BLACK
6
CONTINUOUS
10
142.2018180000000029
20
-141.6198379999999872
11
142.3922939999999926
21
-141.7150759999999821
0
LINE
8
BLACK
6
CONTINUOUS
10
142.3922939999999926
20
-141.7150759999999821
11
142.4875319999999874
21
-141.8103140000000053
0
LINE
8
BLACK
6
CONTINUOUS
10
142.4875319999999874
20
-141.8103140000000053
11
142.5827699999999822
21
-142.000789999999995
0
LINE
8
BLACK
6
CONTINUOUS
10
142.5827699999999822
20
-142.000789999999995
11
142.6780080000000055
21
-142.3817420000000027
0
LINE
8
BLACK
6
CONTINUOUS
10
142.6780080000000055
20
-142.3817420000000027
11
142.6780080000000055
21
-142.8579330000000027
0
LINE
8
BLACK
6
CONTINUOUS
10
142.6780080000000055
20
-142.8579330000000027
11
142.5827699999999822
21
-143.238884999999982
0
LINE
8
BLACK
6
CONTINUOUS
10
142.5827699999999822
20
-143.238884999999982
11
142.4875319999999874
21
-143.4293610000000001
0
LINE
8
BLACK
6
CONTINUOUS
10
142.4875319999999874
20
-143.4293610000000001
11
142.3922939999999926
21
-143.5245999999999924
0
LINE
8
BLACK
6
CONTINUOUS
10
142.3922939999999926
20
-143.5245999999999924
11
142.2018180000000029
21
-143.6198379999999872
0
LINE
8
BLACK
6
CONTINUOUS
10
142.2018180000000029
20
-143.6198379999999872
11
142.0113409999999874
21
-143.6198379999999872
0
LINE
8
BLACK
6
CONTINUOUS
10
142.0113409999999874
20
-143.6198379999999872
11
141.8208649999999977
21
-143.5245999999999924
0
LINE
8
BLACK
6
CONTINUOUS
10
141.8208649999999977
20
-143.5245999999999924
11
141.7256270000000029
21
-143.4293610000000001
0
LINE
8
BLACK
6
CONTINUOUS
10
141.7256270000000029
20
-143.4293610000000001
11
141.6303889999999797
21
-143.238884999999982
0
LINE
8
BLACK
6
CONTINUOUS
10
141.6303889999999797
20
-143.238884999999982
11
141.5351509999999848
21
-142.8579330000000027
0
LINE
8
BLACK
6
CONTINUOUS
10
141.5351509999999848
20
-142.8579330000000027
11
141.5351509999999848
21
-142.3817420000000027
0
LINE
8
BLACK
6
CONTINUOUS
10
141.5351509999999848
20
-142.3817420000000027
11
141.6303889999999797
21
-142.000789999999995
0
LINE
8
BLACK
6
CONTINUOUS
10
141.6303889999999797
20
-142.000789999999995
11
141.7256270000000029
21
-141.8103140000000053
0
LINE
8
BLACK
6
CONTINUOUS
10
141.7256270000000029
20
-141.8103140000000053
11
141.8208649999999977
21
-141.7150759999999821
0
LINE
8
BLACK
6
CONTINUOUS
10
141.8208649999999977
20
-141.7150759999999821
11
142.0113409999999874
21
-141.6198379999999872
0
LINE
8
BLACK
6
CONTINUOUS
10
143.5351509999999848
20
-143.4293610000000001
11
143.6303889999999797
21
-143.5245999999999924
0
LINE
8
BLACK
6
CONTINUOUS
10
143.6303889999999797
20
-143.5245999999999924
11
143.5351509999999848
21
-143.6198379999999872
0
LINE
8
BLACK
6
CONTINUOUS
10
143.5351509999999848
20
-143.6198379999999872
11
143.43991299999999
21
-143.5245999999999924
0
LINE
8
BLACK
6
CONTINUOUS
10
143.43991299999999
20
-143.5245999999999924
11
143.5351509999999848
21
-143.4293610000000001
0
LINE
8
BLACK
6
CONTINUOUS
10
143.5351509999999848
20
-143.4293610000000001
11
143.5351509999999848
21
-143.6198379999999872
0
LINE
8
BLACK
6
CONTINUOUS
10
144.8684839999999951
20
-141.6198379999999872
11
145.0589609999999823
21
-141.6198379999999872
0
LINE
8
BLACK
6
CONTINUOUS
10
145.0589609999999823
20
-141.6198379999999872
11
145.2494370000000004
21
-141.7150759999999821
0
LINE
8
BLACK
6
CONTINUOUS
10
145.2494370000000004
20
-141.7150759999999821
11
145.3446749999999952
21
-141.8103140000000053
0
LINE
8
BLACK
6
CONTINUOUS
10
145.3446749999999952
20
-141.8103140000000053
11
145.43991299999999
21
-142.000789999999995
0
LINE
8
BLACK
6
CONTINUOUS
10
145.43991299999999
20
-142.000789999999995
11
145.5351509999999848
21
-142.3817420000000027
0
LINE
8
BLACK
6
CONTINUOUS
10
145.5351509999999848
20
-142.3817420000000027
11
145.5351509999999848
21
-142.8579330000000027
0
LINE
8
BLACK
6
CONTINUOUS
10
145.5351509999999848
20
-142.8579330000000027
11
145.43991299999999
21
-143.238884999999982
0
LINE
8
BLACK
6
CONTINUOUS
10
145.43991299999999
20
-143.238884999999982
11
145.3446749999999952
21
-143.4293610000000001
0
LINE
8
BLACK
6
CONTINUOUS
10
145.3446749999999952
20
-143.4293610000000001
11
145.2494370000000004
21
-143.5245999999999924
0
LINE
8
BLACK
6
CONTINUOUS
10
145.2494370000000004
20
-143.5245999999999924
11
145.0589609999999823
21
-143.6198379999999872
0
LINE
8
BLACK
6
CONTINUOUS
10
145.0589609999999823
20
-143.6198379999999872
11
144.8684839999999951
21
-143.6198379999999872
0
LINE
8
BLACK
6
CONTINUOUS
10
144.8684839999999951
20
-143.6198379999999872
11
144.6780080000000055
21
-143.5245999999999924
0
LINE
8
BLACK
6
CONTINUOUS
10
144.6780080000000055
20
-143.5245999999999924
11
144.5827699999999822
21
-143.4293610000000001
0
LINE
8
BLACK
6
CONTINUOUS
10
144.5827699999999822
20
-143.4293610000000001
11
144.4875319999999874
21
-143.238884999999982
0
LINE
8
BLACK
6
CONTINUOUS
10
144.4875319999999874
20
-143.238884999999982
11
144.3922939999999926
21
-142.8579330000000027
0
LINE
8
BLACK
6
CONTINUOUS
10
144.3922939999999926
20
-142.8579330000000027
11
144.3922939999999926
21
-142.3817420000000027
0
LINE
8
BLACK
6
CONTINUOUS
10
144.3922939999999926
20
-142.3817420000000027
11
144.4875319999999874
21
-142.000789999999995
0
LINE
8
BLACK
6
CONTINUOUS
10
144.4875319999999874
20
-142.000789999999995
11
144.5827699999999822
21
-141.8103140000000053
0
LINE
8
BLACK
6
CONTINUOUS
10
144.5827699999999822
20
-141.8103140000000053
11
144.6780080000000055
21
-141.7150759999999821
0
LINE
8
BLACK
6
CONTINUOUS
10
144.6780080000000055
20
-141.7150759999999821
11
144.8684839999999951
21
-141.6198379999999872
0
LINE
8
BLACK
6
CONTINUOUS
10
146.2018180000000029
20
-141.6198379999999872
11
147.43991299999999
21
-141.6198379999999872
0
LINE
8
BLACK
6
CONTINUOUS
10
147.43991299999999
20
-141.6198379999999872
11
146.7732460000000003
21
-142.3817420000000027
0
LINE
8
BLACK
6
CONTINUOUS
10
146.7732460000000003
20
-142.3817420000000027
11
147.0589609999999823
21
-142.3817420000000027
0
LINE
8
BLACK
6
CONTINUOUS
10
147.0589609999999823
20
-142.3817420000000027
11
147.2494370000000004
21
-142.4769799999999975
0
LINE
8
BLACK
6
CONTINUOUS
10
147.2494370000000004
20
-142.4769799999999975
11
147.3446749999999952
21
-142.5722189999999898
0
LINE
8
BLACK
6
CONTINUOUS
10
147.3446749999999952
20
-142.5722189999999898
11
147.43991299999999
21
-142.7626949999999795
0
LINE
8
BLACK
6
CONTINUOUS
10
147.43991299999999
20
-142.7626949999999795
11
147.43991299999999
21
-143.238884999999982
0
LINE
8
BLACK
6
CONTINUOUS
10
147.43991299999999
20
-143.238884999999982
11
147.3446749999999952
21
-143.4293610000000001
0
LINE
8
BLACK
6
CONTINUOUS
10
147.3446749999999952
20
-143.4293610000000001
11
147.2494370000000004
21
-143.5245999999999924
0
LINE
8
BLACK
6
CONTINUOUS
10
147.2494370000000004
20
-143.5245999999999924
11
147.0589609999999823
21
-143.6198379999999872
0
LINE
8
BLACK
6
CONTINUOUS
10
147.0589609999999823
20
-143.6198379999999872
11
146.4875319999999874
21
-143.6198379999999872
0
LINE
8
BLACK
6
CONTINUOUS
10
146.4875319999999874
20
-143.6198379999999872
11
146.2970559999999978
21
-143.5245999999999924
0
LINE
8
BLACK
6
CONTINUOUS
10
146.2970559999999978
20
-143.5245999999999924
11
146.2018180000000029
21
-143.4293610000000001
0
LINE
8
BLACK
6
CONTINUOUS
10
148.3922939999999926
20
-143.6198379999999872
11
148.7732460000000003
21
-143.6198379999999872
0
LINE
8
BLACK
6
CONTINUOUS
10
148.7732460000000003
20
-143.6198379999999872
11
148.9637229999999875
21
-143.5245999999999924
0
LINE
8
BLACK
6
CONTINUOUS
10
148.9637229999999875
20
-143.5245999999999924
11
149.0589609999999823
21
-143.4293610000000001
0
LINE
8
BLACK
6
CONTINUOUS
10
149.0589609999999823
20
-143.4293610000000001
11
149.2494370000000004
21
-143.1436469999999872
0
LINE
8
BLACK
6
CONTINUOUS
10
149.2494370000000004
20
-143.1436469999999872
11
149.3446749999999952
21
-142.7626949999999795
0
LINE
8
BLACK
6
CONTINUOUS
10
149.3446749999999952
20
-142.7626949999999795
11
149.3446749999999952
21
-142.000789999999995
0
LINE
8
BLACK
6
CONTINUOUS
10
149.3446749999999952
20
-142.000789999999995
11
149.2494370000000004
21
-141.8103140000000053
0
LINE
8
BLACK
6
CONTINUOUS
10
149.2494370000000004
20
-141.8103140000000053
11
149.1541990000000055
21
-141.7150759999999821
0
LINE
8
BLACK
6
CONTINUOUS
10
149.1541990000000055
20
-141.7150759999999821
11
148.9637229999999875
21
-141.6198379999999872
0
LINE
8
BLACK
6
CONTINUOUS
10
148.9637229999999875
20
-141.6198379999999872
11
148.5827699999999822
21
-141.6198379999999872
0
LINE
8
BLACK
6
CONTINUOUS
10
148.5827699999999822
20
-141.6198379999999872
11
148.3922939999999926
21
-141.7150759999999821
0
LINE
8
BLACK
6
CONTINUOUS
10
148.3922939999999926
20
-141.7150759999999821
11
148.2970559999999978
21
-141.8103140000000053
0
LINE
8
BLACK
6
CONTINUOUS
10
148.2970559999999978
20
-141.8103140000000053
11
148.2018180000000029
21
-142.000789999999995
0
LINE
8
BLACK
6
CONTINUOUS
10
148.2018180000000029
20
-142.000789999999995
11
148.2018180000000029
21
-142.4769799999999975
0
LINE
8
BLACK
6
CONTINUOUS
10
148.2018180000000029
20
-142.4769799999999975
11
148.2970559999999978
21
-142.6674569999999846
0
LINE
8
BLACK
6
CONTINUOUS
10
148.2970559999999978
20
-142.6674569999999846
11
148.3922939999999926
21
-142.7626949999999795
0
LINE
8
BLACK
6
CONTINUOUS
10
148.3922939999999926
20
-142.7626949999999795
11
148.5827699999999822
21
-142.8579330000000027
0
LINE
8
BLACK
6
CONTINUOUS
10
148.5827699999999822
20
-142.8579330000000027
11
148.9637229999999875
21
-142.8579330000000027
0
LINE
8
BLACK
6
CONTINUOUS
10
148.9637229999999875
20
-142.8579330000000027
11
149.1541990000000055
21
-142.7626949999999795
0
LINE
8
BLACK
6
CONTINUOUS
10
149.1541990000000055
20
-142.7626949999999795
11
149.2494370000000004
21
-142.6674569999999846
0
LINE
8
BLACK
6
CONTINUOUS
10
149.2494370000000004
20
-142.6674569999999846
11
149.3446749999999952
21
-142.4769799999999975
0
LINE
8
BLACK
6
CONTINUOUS
10
151.0589609999999823
20
-142.2865039999999794
11
151.0589609999999823
21
-143.6198379999999872
0
LINE
8
BLACK
6
CONTINUOUS
10
150.5827699999999822
20
-141.5245999999999924
11
150.1065799999999797
21
-142.9531709999999975
0
LINE
8
BLACK
6
CONTINUOUS
10
150.1065799999999797
20
-142.9531709999999975
11
151.3446749999999952
21
-142.9531709999999975
0
LINE
8
BLACK
6
CONTINUOUS
10
152.0113419999999849
20
-141.6198379999999872
11
152.0113419999999849
21
-142.000789999999995
0
LINE
8
BLACK
6
CONTINUOUS
10
152.7732469999999978
20
-141.6198379999999872
11
152.7732469999999978
21
-142.000789999999995
0
LINE
8
BLACK
6
CONTINUOUS
10
155.7256289999999979
20
-144.3817420000000027
11
155.6303900000000056
21
-144.2865039999999794
0
LINE
8
BLACK
6
CONTINUOUS
10
155.6303900000000056
20
-144.2865039999999794
11
155.4399139999999875
21
-144.000789999999995
0
LINE
8
BLACK
6
CONTINUOUS
10
155.4399139999999875
20
-144.000789999999995
11
155.3446759999999927
21
-143.8103140000000053
0
LINE
8
BLACK
6
CONTINUOUS
10
155.3446759999999927
20
-143.8103140000000053
11
155.2494379999999978
21
-143.5245999999999924
0
LINE
8
BLACK
6
CONTINUOUS
10
155.2494379999999978
20
-143.5245999999999924
11
155.154200000000003
21
-143.0484089999999924
0
LINE
8
BLACK
6
CONTINUOUS
10
155.154200000000003
20
-143.0484089999999924
11
155.154200000000003
21
-142.6674569999999846
0
LINE
8
BLACK
6
CONTINUOUS
10
155.154200000000003
20
-142.6674569999999846
11
155.2494379999999978
21
-142.1912659999999846
0
LINE
8
BLACK
6
CONTINUOUS
10
155.2494379999999978
20
-142.1912659999999846
11
155.3446759999999927
21
-141.9055520000000001
0
LINE
8
BLACK
6
CONTINUOUS
10
155.3446759999999927
20
-141.9055520000000001
11
155.4399139999999875
21
-141.7150759999999821
0
LINE
8
BLACK
6
CONTINUOUS
10
155.4399139999999875
20
-141.7150759999999821
11
155.6303900000000056
21
-141.4293610000000001
0
LINE
8
BLACK
6
CONTINUOUS
10
155.6303900000000056
20
-141.4293610000000001
11
155.7256289999999979
21
-141.3341230000000053
0
LINE
8
BLACK
6
CONTINUOUS
10
157.3446759999999927
20
-142.2865039999999794
11
157.3446759999999927
21
-143.6198379999999872
0
LINE
8
BLACK
6
CONTINUOUS
10
156.8684849999999926
20
-141.5245999999999924
11
156.3922949999999901
21
-142.9531709999999975
0
LINE
8
BLACK
6
CONTINUOUS
10
156.3922949999999901
20
-142.9531709999999975
11
157.6303900000000056
21
-142.9531709999999975
0
LINE
8
BLACK
6
CONTINUOUS
10
158.2018190000000004
20
-141.6198379999999872
11
159.4399139999999875
21
-141.6198379999999872
0
LINE
8
BLACK
6
CONTINUOUS
10
159.4399139999999875
20
-141.6198379999999872
11
158.7732469999999978
21
-142.3817420000000027
0
LINE
8
BLACK
6
CONTINUOUS
10
158.7732469999999978
20
-142.3817420000000027
11
159.0589619999999798
21
-142.3817420000000027
0
LINE
8
BLACK
6
CONTINUOUS
10
159.0589619999999798
20
-142.3817420000000027
11
159.2494379999999978
21
-142.4769799999999975
0
LINE
8
BLACK
6
CONTINUOUS
10
159.2494379999999978
20
-142.4769799999999975
11
159.3446759999999927
21
-142.5722189999999898
0
LINE
8
BLACK
6
CONTINUOUS
10
159.3446759999999927
20
-142.5722189999999898
11
159.4399139999999875
21
-142.7626949999999795
0
LINE
8
BLACK
6
CONTINUOUS
10
159.4399139999999875
20
-142.7626949999999795
11
159.4399139999999875
21
-143.238884999999982
0
LINE
8
BLACK
6
CONTINUOUS
10
159.4399139999999875
20
-143.238884999999982
11
159.3446759999999927
21
-143.4293610000000001
0
LINE
8
BLACK
6
CONTINUOUS
10
159.3446759999999927
20
-143.4293610000000001
11
159.2494379999999978
21
-143.5245999999999924
0
LINE
8
BLACK
6
CONTINUOUS
10
159.2494379999999978
20
-143.5245999999999924
11
159.0589619999999798
21
-143.6198379999999872
0
LINE
8
BLACK
6
CONTINUOUS
10
159.0589619999999798
20
-143.6198379999999872
11
158.4875329999999849
21
-143.6198379999999872
0
LINE
8
BLACK
6
CONTINUOUS
10
158.4875329999999849
20
-143.6198379999999872
11
158.2970569999999952
21
-143.5245999999999924
0
LINE
8
BLACK
6
CONTINUOUS
10
158.2970569999999952
20
-143.5245999999999924
11
158.2018190000000004
21
-143.4293610000000001
0
LINE
8
BLACK
6
CONTINUOUS
10
161.8208669999999927
20
-143.6198379999999872
11
161.8208669999999927
21
-141.6198379999999872
0
LINE
8
BLACK
6
CONTINUOUS
10
162.6780100000000004
20
-143.6198379999999872
11
162.6780100000000004
21
-142.5722189999999898
0
LINE
8
BLACK
6
CONTINUOUS
10
162.6780100000000004
20
-142.5722189999999898
11
162.5827720000000056
21
-142.3817420000000027
0
LINE
8
BLACK
6
CONTINUOUS
10
162.5827720000000056
20
-142.3817420000000027
11
162.3922959999999875
21
-142.2865039999999794
0
LINE
8
BLACK
6
CONTINUOUS
10
162.3922959999999875
20
-142.2865039999999794
11
162.1065810000000056
21
-142.2865039999999794
0
LINE
8
BLACK
6
CONTINUOUS
10
162.1065810000000056
20
-142.2865039999999794
11
161.9161049999999875
21
-142.3817420000000027
0
LINE
8
BLACK
6
CONTINUOUS
10
161.9161049999999875
20
-142.3817420000000027
11
161.8208669999999927
21
-142.4769799999999975
0
LINE
8
BLACK
6
CONTINUOUS
10
163.9161049999999875
20
-143.6198379999999872
11
163.7256289999999979
21
-143.5245999999999924
0
LINE
8
BLACK
6
CONTINUOUS
10
163.7256289999999979
20
-143.5245999999999924
11
163.630391000000003
21
-143.4293610000000001
0
LINE
8
BLACK
6
CONTINUOUS
10
163.630391000000003
20
-143.4293610000000001
11
163.5351529999999798
21
-143.238884999999982
0
LINE
8
BLACK
6
CONTINUOUS
10
163.5351529999999798
20
-143.238884999999982
11
163.5351529999999798
21
-142.6674569999999846
0
LINE
8
BLACK
6
CONTINUOUS
10
163.5351529999999798
20
-142.6674569999999846
11
163.630391000000003
21
-142.4769799999999975
0
LINE
8
BLACK
6
CONTINUOUS
10
163.630391000000003
20
-142.4769799999999975
11
163.7256289999999979
21
-142.3817420000000027
0
LINE
8
BLACK
6
CONTINUOUS
10
163.7256289999999979
20
-142.3817420000000027
11
163.9161049999999875
21
-142.2865039999999794
0
LINE
8
BLACK
6
CONTINUOUS
10
163.9161049999999875
20
-142.2865039999999794
11
164.2018199999999979
21
-142.2865039999999794
0
LINE
8
BLACK
6
CONTINUOUS
10
164.2018199999999979
20
-142.2865039999999794
11
164.3922959999999875
21
-142.3817420000000027
0
LINE
8
BLACK
6
CONTINUOUS
10
164.3922959999999875
20
-142.3817420000000027
11
164.4875339999999824
21
-142.4769799999999975
0
LINE
8
BLACK
6
CONTINUOUS
10
164.4875339999999824
20
-142.4769799999999975
11
164.5827720000000056
21
-142.6674569999999846
0
LINE
8
BLACK
6
CONTINUOUS
10
164.5827720000000056
20
-142.6674569999999846
11
164.5827720000000056
21
-143.238884999999982
0
LINE
8
BLACK
6
CONTINUOUS
10
164.5827720000000056
20
-143.238884999999982
11
164.4875339999999824
21
-143.4293610000000001
0
LINE
8
BLACK
6
CONTINUOUS
10
164.4875339999999824
20
-143.4293610000000001
11
164.3922959999999875
21
-143.5245999999999924
0
LINE
8
BLACK
6
CONTINUOUS
10
164.3922959999999875
20
-143.5245999999999924
11
164.2018199999999979
21
-143.6198379999999872
0
LINE
8
BLACK
6
CONTINUOUS
10
164.2018199999999979
20
-143.6198379999999872
11
163.9161049999999875
21
-143.6198379999999872
0
LINE
8
BLACK
6
CONTINUOUS
10
165.7256289999999979
20
-143.6198379999999872
11
165.5351529999999798
21
-143.5245999999999924
0
LINE
8
BLACK
6
CONTINUOUS
10
165.5351529999999798
20
-143.5245999999999924
11
165.439914999999985
21
-143.3341230000000053
0
LINE
8
BLACK
6
CONTINUOUS
10
165.439914999999985
20
-143.3341230000000053
11
165.439914999999985
21
-141.6198379999999872
0
LINE
8
BLACK
6
CONTINUOUS
10
167.2494389999999953
20
-143.5245999999999924
11
167.0589630000000056
21
-143.6198379999999872
0
LINE
8
BLACK
6
CONTINUOUS
10
167.0589630000000056
20
-143.6198379999999872
11
166.6780100000000004
21
-143.6198379999999872
0
LINE
8
BLACK
6
CONTINUOUS
10
166.6780100000000004
20
-143.6198379999999872
11
166.4875339999999824
21
-143.5245999999999924
0
LINE
8
BLACK
6
CONTINUOUS
10
166.4875339999999824
20
-143.5245999999999924
11
166.3922959999999875
21
-143.3341230000000053
0
LINE
8
BLACK
6
CONTINUOUS
10
166.3922959999999875
20
-143.3341230000000053
11
166.3922959999999875
21
-142.5722189999999898
0
LINE
8
BLACK
6
CONTINUOUS
10
166.3922959999999875
20
-142.5722189999999898
11
166.4875339999999824
21
-142.3817420000000027
0
LINE
8
BLACK
6
CONTINUOUS
10
166.4875339999999824
20
-142.3817420000000027
11
166.6780100000000004
21
-142.2865039999999794
0
LINE
8
BLACK
6
CONTINUOUS
10
166.6780100000000004
20
-142.2865039999999794
11
167.0589630000000056
21
-142.2865039999999794
0
LINE
8
BLACK
6
CONTINUOUS
10
167.0589630000000056
20
-142.2865039999999794
11
167.2494389999999953
21
-142.3817420000000027
0
LINE
8
BLACK
6
CONTINUOUS
10
167.2494389999999953
20
-142.3817420000000027
11
167.3446769999999901
21
-142.5722189999999898
0
LINE
8
BLACK
6
CONTINUOUS
10
167.3446769999999901
20
-142.5722189999999898
11
167.3446769999999901
21
-142.7626949999999795
0
LINE
8
BLACK
6
CONTINUOUS
10
167.3446769999999901
20
-142.7626949999999795
11
166.3922959999999875
21
-142.9531709999999975
0
LINE
8
BLACK
6
CONTINUOUS
10
168.1065820000000031
20
-143.5245999999999924
11
168.2970579999999927
21
-143.6198379999999872
0
LINE
8
BLACK
6
CONTINUOUS
10
168.2970579999999927
20
-143.6198379999999872
11
168.6780100000000004
21
-143.6198379999999872
0
LINE
8
BLACK
6
CONTINUOUS
10
168.6780100000000004
20
-143.6198379999999872
11
168.8684869999999876
21
-143.5245999999999924
0
LINE
8
BLACK
6
CONTINUOUS
10
168.8684869999999876
20
-143.5245999999999924
11
168.9637249999999824
21
-143.3341230000000053
0
LINE
8
BLACK
6
CONTINUOUS
10
168.9637249999999824
20
-143.3341230000000053
11
168.9637249999999824
21
-143.238884999999982
0
LINE
8
BLACK
6
CONTINUOUS
10
168.9637249999999824
20
-143.238884999999982
11
168.8684869999999876
21
-143.0484089999999924
0
LINE
8
BLACK
6
CONTINUOUS
10
168.8684869999999876
20
-143.0484089999999924
11
168.6780100000000004
21
-142.9531709999999975
0
LINE
8
BLACK
6
CONTINUOUS
10
168.6780100000000004
20
-142.9531709999999975
11
168.3922959999999875
21
-142.9531709999999975
0
LINE
8
BLACK
6
CONTINUOUS
10
168.3922959999999875
20
-142.9531709999999975
11
168.2018199999999979
21
-142.8579330000000027
0
LINE
8
BLACK
6
CONTINUOUS
10
168.2018199999999979
20
-142.8579330000000027
11
168.1065820000000031
21
-142.6674569999999846
0
LINE
8
BLACK
6
CONTINUOUS
10
168.1065820000000031
20
-142.6674569999999846
11
168.1065820000000031
21
-142.5722189999999898
0
LINE
8
BLACK
6
CONTINUOUS
10
168.1065820000000031
20
-142.5722189999999898
11
168.2018199999999979
21
-142.3817420000000027
0
LINE
8
BLACK
6
CONTINUOUS
10
168.2018199999999979
20
-142.3817420000000027
11
168.3922959999999875
21
-142.2865039999999794
0
LINE
8
BLACK
6
CONTINUOUS
10
168.3922959999999875
20
-142.2865039999999794
11
168.6780100000000004
21
-142.2865039999999794
0
LINE
8
BLACK
6
CONTINUOUS
10
168.6780100000000004
20
-142.2865039999999794
11
168.8684869999999876
21
-142.3817420000000027
0
LINE
8
BLACK
6
CONTINUOUS
10
169.6303920000000005
20
-144.3817420000000027
11
169.7256299999999953
21
-144.2865039999999794
0
LINE
8
BLACK
6
CONTINUOUS
10
169.7256299999999953
20
-144.2865039999999794
11
169.916105999999985
21
-144.000789999999995
0
LINE
8
BLACK
6
CONTINUOUS
10
169.916105999999985
20
-144.000789999999995
11
170.0113439999999798
21
-143.8103140000000053
0
LINE
8
BLACK
6
CONTINUOUS
10
170.0113439999999798
20
-143.8103140000000053
11
170.1065820000000031
21
-143.5245999999999924
0
LINE
8
BLACK
6
CONTINUOUS
10
170.1065820000000031
20
-143.5245999999999924
11
170.2018199999999979
21
-143.0484089999999924
0
LINE
8
BLACK
6
CONTINUOUS
10
170.2018199999999979
20
-143.0484089999999924
11
170.2018199999999979
21
-142.6674569999999846
0
LINE
8
BLACK
6
CONTINUOUS
10
170.2018199999999979
20
-142.6674569999999846
11
170.1065820000000031
21
-142.1912659999999846
0
LINE
8
BLACK
6
CONTINUOUS
10
170.1065820000000031
20
-142.1912659999999846
11
170.0113439999999798
21
-141.9055520000000001
0
LINE
8
BLACK
6
CONTINUOUS
10
170.0113439999999798
20
-141.9055520000000001
11
169.916105999999985
21
-141.7150759999999821
0
LINE
8
BLACK
6
CONTINUOUS
10
169.916105999999985
20
-141.7150759999999821
11
169.7256299999999953
21
-141.4293610000000001
0
LINE
8
BLACK
6
CONTINUOUS
10
169.7256299999999953
20
-141.4293610000000001
11
169.6303920000000005
21
-141.3341230000000053
  0
ENDSEC
  0
EOF
