%TF.GenerationSoftware,KiCad,Pcbnew,10.0.3*%
%TF.CreationDate,2026-06-07T14:35:39+05:30*%
%TF.ProjectId,ArxRP2040Devboard,41727852-5032-4303-9430-446576626f61,rev?*%
%TF.SameCoordinates,Original*%
%TF.FileFunction,Drillmap*%
%TF.FilePolarity,Positive*%
%FSLAX45Y45*%
G04 Gerber Fmt 4.5, Leading zero omitted, Abs format (unit mm)*
G04 Created by KiCad (PCBNEW 10.0.3) date 2026-06-07 14:35:39*
%MOMM*%
%LPD*%
G01*
G04 APERTURE LIST*
%ADD10C,0.050000*%
%ADD11C,0.200000*%
%ADD12C,0.100000*%
G04 APERTURE END LIST*
D10*
X12000000Y-8000000D02*
X14100000Y-8000000D01*
X14100000Y-13100000D01*
X12000000Y-13100000D01*
X12000000Y-8000000D01*
D11*
D12*
X12728500Y-8477500D02*
X12793500Y-8542500D01*
X12793500Y-8477500D02*
X12728500Y-8542500D01*
X13306500Y-8477500D02*
X13371500Y-8542500D01*
X13371500Y-8477500D02*
X13306500Y-8542500D01*
D11*
X12258277Y-13413984D02*
X12258277Y-13213984D01*
X12258277Y-13213984D02*
X12305896Y-13213984D01*
X12305896Y-13213984D02*
X12334467Y-13223508D01*
X12334467Y-13223508D02*
X12353515Y-13242555D01*
X12353515Y-13242555D02*
X12363039Y-13261603D01*
X12363039Y-13261603D02*
X12372562Y-13299698D01*
X12372562Y-13299698D02*
X12372562Y-13328269D01*
X12372562Y-13328269D02*
X12363039Y-13366365D01*
X12363039Y-13366365D02*
X12353515Y-13385412D01*
X12353515Y-13385412D02*
X12334467Y-13404460D01*
X12334467Y-13404460D02*
X12305896Y-13413984D01*
X12305896Y-13413984D02*
X12258277Y-13413984D01*
X12458277Y-13413984D02*
X12458277Y-13280650D01*
X12458277Y-13318746D02*
X12467801Y-13299698D01*
X12467801Y-13299698D02*
X12477324Y-13290174D01*
X12477324Y-13290174D02*
X12496372Y-13280650D01*
X12496372Y-13280650D02*
X12515420Y-13280650D01*
X12582086Y-13413984D02*
X12582086Y-13280650D01*
X12582086Y-13213984D02*
X12572562Y-13223508D01*
X12572562Y-13223508D02*
X12582086Y-13233031D01*
X12582086Y-13233031D02*
X12591610Y-13223508D01*
X12591610Y-13223508D02*
X12582086Y-13213984D01*
X12582086Y-13213984D02*
X12582086Y-13233031D01*
X12705896Y-13413984D02*
X12686848Y-13404460D01*
X12686848Y-13404460D02*
X12677324Y-13385412D01*
X12677324Y-13385412D02*
X12677324Y-13213984D01*
X12810658Y-13413984D02*
X12791610Y-13404460D01*
X12791610Y-13404460D02*
X12782086Y-13385412D01*
X12782086Y-13385412D02*
X12782086Y-13213984D01*
X13039229Y-13413984D02*
X13039229Y-13213984D01*
X13039229Y-13213984D02*
X13105896Y-13356841D01*
X13105896Y-13356841D02*
X13172562Y-13213984D01*
X13172562Y-13213984D02*
X13172562Y-13413984D01*
X13353515Y-13413984D02*
X13353515Y-13309222D01*
X13353515Y-13309222D02*
X13343991Y-13290174D01*
X13343991Y-13290174D02*
X13324943Y-13280650D01*
X13324943Y-13280650D02*
X13286848Y-13280650D01*
X13286848Y-13280650D02*
X13267801Y-13290174D01*
X13353515Y-13404460D02*
X13334467Y-13413984D01*
X13334467Y-13413984D02*
X13286848Y-13413984D01*
X13286848Y-13413984D02*
X13267801Y-13404460D01*
X13267801Y-13404460D02*
X13258277Y-13385412D01*
X13258277Y-13385412D02*
X13258277Y-13366365D01*
X13258277Y-13366365D02*
X13267801Y-13347317D01*
X13267801Y-13347317D02*
X13286848Y-13337793D01*
X13286848Y-13337793D02*
X13334467Y-13337793D01*
X13334467Y-13337793D02*
X13353515Y-13328269D01*
X13448753Y-13280650D02*
X13448753Y-13480650D01*
X13448753Y-13290174D02*
X13467801Y-13280650D01*
X13467801Y-13280650D02*
X13505896Y-13280650D01*
X13505896Y-13280650D02*
X13524943Y-13290174D01*
X13524943Y-13290174D02*
X13534467Y-13299698D01*
X13534467Y-13299698D02*
X13543991Y-13318746D01*
X13543991Y-13318746D02*
X13543991Y-13375888D01*
X13543991Y-13375888D02*
X13534467Y-13394936D01*
X13534467Y-13394936D02*
X13524943Y-13404460D01*
X13524943Y-13404460D02*
X13505896Y-13413984D01*
X13505896Y-13413984D02*
X13467801Y-13413984D01*
X13467801Y-13413984D02*
X13448753Y-13404460D01*
X13629705Y-13394936D02*
X13639229Y-13404460D01*
X13639229Y-13404460D02*
X13629705Y-13413984D01*
X13629705Y-13413984D02*
X13620182Y-13404460D01*
X13620182Y-13404460D02*
X13629705Y-13394936D01*
X13629705Y-13394936D02*
X13629705Y-13413984D01*
X13629705Y-13290174D02*
X13639229Y-13299698D01*
X13639229Y-13299698D02*
X13629705Y-13309222D01*
X13629705Y-13309222D02*
X13620182Y-13299698D01*
X13620182Y-13299698D02*
X13629705Y-13290174D01*
X13629705Y-13290174D02*
X13629705Y-13309222D01*
D12*
X11932500Y-13710000D02*
X11997500Y-13775000D01*
X11997500Y-13710000D02*
X11932500Y-13775000D01*
D11*
X12296372Y-13633984D02*
X12315420Y-13633984D01*
X12315420Y-13633984D02*
X12334467Y-13643508D01*
X12334467Y-13643508D02*
X12343991Y-13653031D01*
X12343991Y-13653031D02*
X12353515Y-13672079D01*
X12353515Y-13672079D02*
X12363039Y-13710174D01*
X12363039Y-13710174D02*
X12363039Y-13757793D01*
X12363039Y-13757793D02*
X12353515Y-13795888D01*
X12353515Y-13795888D02*
X12343991Y-13814936D01*
X12343991Y-13814936D02*
X12334467Y-13824460D01*
X12334467Y-13824460D02*
X12315420Y-13833984D01*
X12315420Y-13833984D02*
X12296372Y-13833984D01*
X12296372Y-13833984D02*
X12277324Y-13824460D01*
X12277324Y-13824460D02*
X12267801Y-13814936D01*
X12267801Y-13814936D02*
X12258277Y-13795888D01*
X12258277Y-13795888D02*
X12248753Y-13757793D01*
X12248753Y-13757793D02*
X12248753Y-13710174D01*
X12248753Y-13710174D02*
X12258277Y-13672079D01*
X12258277Y-13672079D02*
X12267801Y-13653031D01*
X12267801Y-13653031D02*
X12277324Y-13643508D01*
X12277324Y-13643508D02*
X12296372Y-13633984D01*
X12448753Y-13814936D02*
X12458277Y-13824460D01*
X12458277Y-13824460D02*
X12448753Y-13833984D01*
X12448753Y-13833984D02*
X12439229Y-13824460D01*
X12439229Y-13824460D02*
X12448753Y-13814936D01*
X12448753Y-13814936D02*
X12448753Y-13833984D01*
X12629705Y-13633984D02*
X12591610Y-13633984D01*
X12591610Y-13633984D02*
X12572562Y-13643508D01*
X12572562Y-13643508D02*
X12563039Y-13653031D01*
X12563039Y-13653031D02*
X12543991Y-13681603D01*
X12543991Y-13681603D02*
X12534467Y-13719698D01*
X12534467Y-13719698D02*
X12534467Y-13795888D01*
X12534467Y-13795888D02*
X12543991Y-13814936D01*
X12543991Y-13814936D02*
X12553515Y-13824460D01*
X12553515Y-13824460D02*
X12572562Y-13833984D01*
X12572562Y-13833984D02*
X12610658Y-13833984D01*
X12610658Y-13833984D02*
X12629705Y-13824460D01*
X12629705Y-13824460D02*
X12639229Y-13814936D01*
X12639229Y-13814936D02*
X12648753Y-13795888D01*
X12648753Y-13795888D02*
X12648753Y-13748269D01*
X12648753Y-13748269D02*
X12639229Y-13729222D01*
X12639229Y-13729222D02*
X12629705Y-13719698D01*
X12629705Y-13719698D02*
X12610658Y-13710174D01*
X12610658Y-13710174D02*
X12572562Y-13710174D01*
X12572562Y-13710174D02*
X12553515Y-13719698D01*
X12553515Y-13719698D02*
X12543991Y-13729222D01*
X12543991Y-13729222D02*
X12534467Y-13748269D01*
X12829705Y-13633984D02*
X12734467Y-13633984D01*
X12734467Y-13633984D02*
X12724943Y-13729222D01*
X12724943Y-13729222D02*
X12734467Y-13719698D01*
X12734467Y-13719698D02*
X12753515Y-13710174D01*
X12753515Y-13710174D02*
X12801134Y-13710174D01*
X12801134Y-13710174D02*
X12820182Y-13719698D01*
X12820182Y-13719698D02*
X12829705Y-13729222D01*
X12829705Y-13729222D02*
X12839229Y-13748269D01*
X12839229Y-13748269D02*
X12839229Y-13795888D01*
X12839229Y-13795888D02*
X12829705Y-13814936D01*
X12829705Y-13814936D02*
X12820182Y-13824460D01*
X12820182Y-13824460D02*
X12801134Y-13833984D01*
X12801134Y-13833984D02*
X12753515Y-13833984D01*
X12753515Y-13833984D02*
X12734467Y-13824460D01*
X12734467Y-13824460D02*
X12724943Y-13814936D01*
X12963039Y-13633984D02*
X12982086Y-13633984D01*
X12982086Y-13633984D02*
X13001134Y-13643508D01*
X13001134Y-13643508D02*
X13010658Y-13653031D01*
X13010658Y-13653031D02*
X13020182Y-13672079D01*
X13020182Y-13672079D02*
X13029705Y-13710174D01*
X13029705Y-13710174D02*
X13029705Y-13757793D01*
X13029705Y-13757793D02*
X13020182Y-13795888D01*
X13020182Y-13795888D02*
X13010658Y-13814936D01*
X13010658Y-13814936D02*
X13001134Y-13824460D01*
X13001134Y-13824460D02*
X12982086Y-13833984D01*
X12982086Y-13833984D02*
X12963039Y-13833984D01*
X12963039Y-13833984D02*
X12943991Y-13824460D01*
X12943991Y-13824460D02*
X12934467Y-13814936D01*
X12934467Y-13814936D02*
X12924943Y-13795888D01*
X12924943Y-13795888D02*
X12915420Y-13757793D01*
X12915420Y-13757793D02*
X12915420Y-13710174D01*
X12915420Y-13710174D02*
X12924943Y-13672079D01*
X12924943Y-13672079D02*
X12934467Y-13653031D01*
X12934467Y-13653031D02*
X12943991Y-13643508D01*
X12943991Y-13643508D02*
X12963039Y-13633984D01*
X13115420Y-13833984D02*
X13115420Y-13700650D01*
X13115420Y-13719698D02*
X13124943Y-13710174D01*
X13124943Y-13710174D02*
X13143991Y-13700650D01*
X13143991Y-13700650D02*
X13172563Y-13700650D01*
X13172563Y-13700650D02*
X13191610Y-13710174D01*
X13191610Y-13710174D02*
X13201134Y-13729222D01*
X13201134Y-13729222D02*
X13201134Y-13833984D01*
X13201134Y-13729222D02*
X13210658Y-13710174D01*
X13210658Y-13710174D02*
X13229705Y-13700650D01*
X13229705Y-13700650D02*
X13258277Y-13700650D01*
X13258277Y-13700650D02*
X13277324Y-13710174D01*
X13277324Y-13710174D02*
X13286848Y-13729222D01*
X13286848Y-13729222D02*
X13286848Y-13833984D01*
X13382086Y-13833984D02*
X13382086Y-13700650D01*
X13382086Y-13719698D02*
X13391610Y-13710174D01*
X13391610Y-13710174D02*
X13410658Y-13700650D01*
X13410658Y-13700650D02*
X13439229Y-13700650D01*
X13439229Y-13700650D02*
X13458277Y-13710174D01*
X13458277Y-13710174D02*
X13467801Y-13729222D01*
X13467801Y-13729222D02*
X13467801Y-13833984D01*
X13467801Y-13729222D02*
X13477324Y-13710174D01*
X13477324Y-13710174D02*
X13496372Y-13700650D01*
X13496372Y-13700650D02*
X13524943Y-13700650D01*
X13524943Y-13700650D02*
X13543991Y-13710174D01*
X13543991Y-13710174D02*
X13553515Y-13729222D01*
X13553515Y-13729222D02*
X13553515Y-13833984D01*
X13943991Y-13624460D02*
X13772563Y-13881603D01*
X14201134Y-13633984D02*
X14220182Y-13633984D01*
X14220182Y-13633984D02*
X14239229Y-13643508D01*
X14239229Y-13643508D02*
X14248753Y-13653031D01*
X14248753Y-13653031D02*
X14258277Y-13672079D01*
X14258277Y-13672079D02*
X14267801Y-13710174D01*
X14267801Y-13710174D02*
X14267801Y-13757793D01*
X14267801Y-13757793D02*
X14258277Y-13795888D01*
X14258277Y-13795888D02*
X14248753Y-13814936D01*
X14248753Y-13814936D02*
X14239229Y-13824460D01*
X14239229Y-13824460D02*
X14220182Y-13833984D01*
X14220182Y-13833984D02*
X14201134Y-13833984D01*
X14201134Y-13833984D02*
X14182086Y-13824460D01*
X14182086Y-13824460D02*
X14172563Y-13814936D01*
X14172563Y-13814936D02*
X14163039Y-13795888D01*
X14163039Y-13795888D02*
X14153515Y-13757793D01*
X14153515Y-13757793D02*
X14153515Y-13710174D01*
X14153515Y-13710174D02*
X14163039Y-13672079D01*
X14163039Y-13672079D02*
X14172563Y-13653031D01*
X14172563Y-13653031D02*
X14182086Y-13643508D01*
X14182086Y-13643508D02*
X14201134Y-13633984D01*
X14353515Y-13814936D02*
X14363039Y-13824460D01*
X14363039Y-13824460D02*
X14353515Y-13833984D01*
X14353515Y-13833984D02*
X14343991Y-13824460D01*
X14343991Y-13824460D02*
X14353515Y-13814936D01*
X14353515Y-13814936D02*
X14353515Y-13833984D01*
X14486848Y-13633984D02*
X14505896Y-13633984D01*
X14505896Y-13633984D02*
X14524944Y-13643508D01*
X14524944Y-13643508D02*
X14534467Y-13653031D01*
X14534467Y-13653031D02*
X14543991Y-13672079D01*
X14543991Y-13672079D02*
X14553515Y-13710174D01*
X14553515Y-13710174D02*
X14553515Y-13757793D01*
X14553515Y-13757793D02*
X14543991Y-13795888D01*
X14543991Y-13795888D02*
X14534467Y-13814936D01*
X14534467Y-13814936D02*
X14524944Y-13824460D01*
X14524944Y-13824460D02*
X14505896Y-13833984D01*
X14505896Y-13833984D02*
X14486848Y-13833984D01*
X14486848Y-13833984D02*
X14467801Y-13824460D01*
X14467801Y-13824460D02*
X14458277Y-13814936D01*
X14458277Y-13814936D02*
X14448753Y-13795888D01*
X14448753Y-13795888D02*
X14439229Y-13757793D01*
X14439229Y-13757793D02*
X14439229Y-13710174D01*
X14439229Y-13710174D02*
X14448753Y-13672079D01*
X14448753Y-13672079D02*
X14458277Y-13653031D01*
X14458277Y-13653031D02*
X14467801Y-13643508D01*
X14467801Y-13643508D02*
X14486848Y-13633984D01*
X14629706Y-13653031D02*
X14639229Y-13643508D01*
X14639229Y-13643508D02*
X14658277Y-13633984D01*
X14658277Y-13633984D02*
X14705896Y-13633984D01*
X14705896Y-13633984D02*
X14724944Y-13643508D01*
X14724944Y-13643508D02*
X14734467Y-13653031D01*
X14734467Y-13653031D02*
X14743991Y-13672079D01*
X14743991Y-13672079D02*
X14743991Y-13691127D01*
X14743991Y-13691127D02*
X14734467Y-13719698D01*
X14734467Y-13719698D02*
X14620182Y-13833984D01*
X14620182Y-13833984D02*
X14743991Y-13833984D01*
X14924944Y-13633984D02*
X14829706Y-13633984D01*
X14829706Y-13633984D02*
X14820182Y-13729222D01*
X14820182Y-13729222D02*
X14829706Y-13719698D01*
X14829706Y-13719698D02*
X14848753Y-13710174D01*
X14848753Y-13710174D02*
X14896372Y-13710174D01*
X14896372Y-13710174D02*
X14915420Y-13719698D01*
X14915420Y-13719698D02*
X14924944Y-13729222D01*
X14924944Y-13729222D02*
X14934467Y-13748269D01*
X14934467Y-13748269D02*
X14934467Y-13795888D01*
X14934467Y-13795888D02*
X14924944Y-13814936D01*
X14924944Y-13814936D02*
X14915420Y-13824460D01*
X14915420Y-13824460D02*
X14896372Y-13833984D01*
X14896372Y-13833984D02*
X14848753Y-13833984D01*
X14848753Y-13833984D02*
X14829706Y-13824460D01*
X14829706Y-13824460D02*
X14820182Y-13814936D01*
X15105896Y-13633984D02*
X15067801Y-13633984D01*
X15067801Y-13633984D02*
X15048753Y-13643508D01*
X15048753Y-13643508D02*
X15039229Y-13653031D01*
X15039229Y-13653031D02*
X15020182Y-13681603D01*
X15020182Y-13681603D02*
X15010658Y-13719698D01*
X15010658Y-13719698D02*
X15010658Y-13795888D01*
X15010658Y-13795888D02*
X15020182Y-13814936D01*
X15020182Y-13814936D02*
X15029706Y-13824460D01*
X15029706Y-13824460D02*
X15048753Y-13833984D01*
X15048753Y-13833984D02*
X15086848Y-13833984D01*
X15086848Y-13833984D02*
X15105896Y-13824460D01*
X15105896Y-13824460D02*
X15115420Y-13814936D01*
X15115420Y-13814936D02*
X15124944Y-13795888D01*
X15124944Y-13795888D02*
X15124944Y-13748269D01*
X15124944Y-13748269D02*
X15115420Y-13729222D01*
X15115420Y-13729222D02*
X15105896Y-13719698D01*
X15105896Y-13719698D02*
X15086848Y-13710174D01*
X15086848Y-13710174D02*
X15048753Y-13710174D01*
X15048753Y-13710174D02*
X15029706Y-13719698D01*
X15029706Y-13719698D02*
X15020182Y-13729222D01*
X15020182Y-13729222D02*
X15010658Y-13748269D01*
X15201134Y-13633984D02*
X15201134Y-13672079D01*
X15277325Y-13633984D02*
X15277325Y-13672079D01*
X15572563Y-13910174D02*
X15563039Y-13900650D01*
X15563039Y-13900650D02*
X15543991Y-13872079D01*
X15543991Y-13872079D02*
X15534468Y-13853031D01*
X15534468Y-13853031D02*
X15524944Y-13824460D01*
X15524944Y-13824460D02*
X15515420Y-13776841D01*
X15515420Y-13776841D02*
X15515420Y-13738746D01*
X15515420Y-13738746D02*
X15524944Y-13691127D01*
X15524944Y-13691127D02*
X15534468Y-13662555D01*
X15534468Y-13662555D02*
X15543991Y-13643508D01*
X15543991Y-13643508D02*
X15563039Y-13614936D01*
X15563039Y-13614936D02*
X15572563Y-13605412D01*
X15639229Y-13653031D02*
X15648753Y-13643508D01*
X15648753Y-13643508D02*
X15667801Y-13633984D01*
X15667801Y-13633984D02*
X15715420Y-13633984D01*
X15715420Y-13633984D02*
X15734468Y-13643508D01*
X15734468Y-13643508D02*
X15743991Y-13653031D01*
X15743991Y-13653031D02*
X15753515Y-13672079D01*
X15753515Y-13672079D02*
X15753515Y-13691127D01*
X15753515Y-13691127D02*
X15743991Y-13719698D01*
X15743991Y-13719698D02*
X15629706Y-13833984D01*
X15629706Y-13833984D02*
X15753515Y-13833984D01*
X15991610Y-13833984D02*
X15991610Y-13633984D01*
X16077325Y-13833984D02*
X16077325Y-13729222D01*
X16077325Y-13729222D02*
X16067801Y-13710174D01*
X16067801Y-13710174D02*
X16048753Y-13700650D01*
X16048753Y-13700650D02*
X16020182Y-13700650D01*
X16020182Y-13700650D02*
X16001134Y-13710174D01*
X16001134Y-13710174D02*
X15991610Y-13719698D01*
X16201134Y-13833984D02*
X16182087Y-13824460D01*
X16182087Y-13824460D02*
X16172563Y-13814936D01*
X16172563Y-13814936D02*
X16163039Y-13795888D01*
X16163039Y-13795888D02*
X16163039Y-13738746D01*
X16163039Y-13738746D02*
X16172563Y-13719698D01*
X16172563Y-13719698D02*
X16182087Y-13710174D01*
X16182087Y-13710174D02*
X16201134Y-13700650D01*
X16201134Y-13700650D02*
X16229706Y-13700650D01*
X16229706Y-13700650D02*
X16248753Y-13710174D01*
X16248753Y-13710174D02*
X16258277Y-13719698D01*
X16258277Y-13719698D02*
X16267801Y-13738746D01*
X16267801Y-13738746D02*
X16267801Y-13795888D01*
X16267801Y-13795888D02*
X16258277Y-13814936D01*
X16258277Y-13814936D02*
X16248753Y-13824460D01*
X16248753Y-13824460D02*
X16229706Y-13833984D01*
X16229706Y-13833984D02*
X16201134Y-13833984D01*
X16382087Y-13833984D02*
X16363039Y-13824460D01*
X16363039Y-13824460D02*
X16353515Y-13805412D01*
X16353515Y-13805412D02*
X16353515Y-13633984D01*
X16534468Y-13824460D02*
X16515420Y-13833984D01*
X16515420Y-13833984D02*
X16477325Y-13833984D01*
X16477325Y-13833984D02*
X16458277Y-13824460D01*
X16458277Y-13824460D02*
X16448753Y-13805412D01*
X16448753Y-13805412D02*
X16448753Y-13729222D01*
X16448753Y-13729222D02*
X16458277Y-13710174D01*
X16458277Y-13710174D02*
X16477325Y-13700650D01*
X16477325Y-13700650D02*
X16515420Y-13700650D01*
X16515420Y-13700650D02*
X16534468Y-13710174D01*
X16534468Y-13710174D02*
X16543991Y-13729222D01*
X16543991Y-13729222D02*
X16543991Y-13748269D01*
X16543991Y-13748269D02*
X16448753Y-13767317D01*
X16620182Y-13824460D02*
X16639230Y-13833984D01*
X16639230Y-13833984D02*
X16677325Y-13833984D01*
X16677325Y-13833984D02*
X16696372Y-13824460D01*
X16696372Y-13824460D02*
X16705896Y-13805412D01*
X16705896Y-13805412D02*
X16705896Y-13795888D01*
X16705896Y-13795888D02*
X16696372Y-13776841D01*
X16696372Y-13776841D02*
X16677325Y-13767317D01*
X16677325Y-13767317D02*
X16648753Y-13767317D01*
X16648753Y-13767317D02*
X16629706Y-13757793D01*
X16629706Y-13757793D02*
X16620182Y-13738746D01*
X16620182Y-13738746D02*
X16620182Y-13729222D01*
X16620182Y-13729222D02*
X16629706Y-13710174D01*
X16629706Y-13710174D02*
X16648753Y-13700650D01*
X16648753Y-13700650D02*
X16677325Y-13700650D01*
X16677325Y-13700650D02*
X16696372Y-13710174D01*
X16772563Y-13910174D02*
X16782087Y-13900650D01*
X16782087Y-13900650D02*
X16801134Y-13872079D01*
X16801134Y-13872079D02*
X16810658Y-13853031D01*
X16810658Y-13853031D02*
X16820182Y-13824460D01*
X16820182Y-13824460D02*
X16829706Y-13776841D01*
X16829706Y-13776841D02*
X16829706Y-13738746D01*
X16829706Y-13738746D02*
X16820182Y-13691127D01*
X16820182Y-13691127D02*
X16810658Y-13662555D01*
X16810658Y-13662555D02*
X16801134Y-13643508D01*
X16801134Y-13643508D02*
X16782087Y-13614936D01*
X16782087Y-13614936D02*
X16772563Y-13605412D01*
X17134468Y-13910174D02*
X17124944Y-13900650D01*
X17124944Y-13900650D02*
X17105896Y-13872079D01*
X17105896Y-13872079D02*
X17096373Y-13853031D01*
X17096373Y-13853031D02*
X17086849Y-13824460D01*
X17086849Y-13824460D02*
X17077325Y-13776841D01*
X17077325Y-13776841D02*
X17077325Y-13738746D01*
X17077325Y-13738746D02*
X17086849Y-13691127D01*
X17086849Y-13691127D02*
X17096373Y-13662555D01*
X17096373Y-13662555D02*
X17105896Y-13643508D01*
X17105896Y-13643508D02*
X17124944Y-13614936D01*
X17124944Y-13614936D02*
X17134468Y-13605412D01*
X17210658Y-13700650D02*
X17210658Y-13833984D01*
X17210658Y-13719698D02*
X17220182Y-13710174D01*
X17220182Y-13710174D02*
X17239230Y-13700650D01*
X17239230Y-13700650D02*
X17267801Y-13700650D01*
X17267801Y-13700650D02*
X17286849Y-13710174D01*
X17286849Y-13710174D02*
X17296373Y-13729222D01*
X17296373Y-13729222D02*
X17296373Y-13833984D01*
X17420182Y-13833984D02*
X17401134Y-13824460D01*
X17401134Y-13824460D02*
X17391611Y-13814936D01*
X17391611Y-13814936D02*
X17382087Y-13795888D01*
X17382087Y-13795888D02*
X17382087Y-13738746D01*
X17382087Y-13738746D02*
X17391611Y-13719698D01*
X17391611Y-13719698D02*
X17401134Y-13710174D01*
X17401134Y-13710174D02*
X17420182Y-13700650D01*
X17420182Y-13700650D02*
X17448754Y-13700650D01*
X17448754Y-13700650D02*
X17467801Y-13710174D01*
X17467801Y-13710174D02*
X17477325Y-13719698D01*
X17477325Y-13719698D02*
X17486849Y-13738746D01*
X17486849Y-13738746D02*
X17486849Y-13795888D01*
X17486849Y-13795888D02*
X17477325Y-13814936D01*
X17477325Y-13814936D02*
X17467801Y-13824460D01*
X17467801Y-13824460D02*
X17448754Y-13833984D01*
X17448754Y-13833984D02*
X17420182Y-13833984D01*
X17543992Y-13700650D02*
X17620182Y-13700650D01*
X17572563Y-13633984D02*
X17572563Y-13805412D01*
X17572563Y-13805412D02*
X17582087Y-13824460D01*
X17582087Y-13824460D02*
X17601134Y-13833984D01*
X17601134Y-13833984D02*
X17620182Y-13833984D01*
X17839230Y-13700650D02*
X17839230Y-13900650D01*
X17839230Y-13710174D02*
X17858277Y-13700650D01*
X17858277Y-13700650D02*
X17896373Y-13700650D01*
X17896373Y-13700650D02*
X17915420Y-13710174D01*
X17915420Y-13710174D02*
X17924944Y-13719698D01*
X17924944Y-13719698D02*
X17934468Y-13738746D01*
X17934468Y-13738746D02*
X17934468Y-13795888D01*
X17934468Y-13795888D02*
X17924944Y-13814936D01*
X17924944Y-13814936D02*
X17915420Y-13824460D01*
X17915420Y-13824460D02*
X17896373Y-13833984D01*
X17896373Y-13833984D02*
X17858277Y-13833984D01*
X17858277Y-13833984D02*
X17839230Y-13824460D01*
X18048754Y-13833984D02*
X18029706Y-13824460D01*
X18029706Y-13824460D02*
X18020182Y-13805412D01*
X18020182Y-13805412D02*
X18020182Y-13633984D01*
X18210658Y-13833984D02*
X18210658Y-13729222D01*
X18210658Y-13729222D02*
X18201135Y-13710174D01*
X18201135Y-13710174D02*
X18182087Y-13700650D01*
X18182087Y-13700650D02*
X18143992Y-13700650D01*
X18143992Y-13700650D02*
X18124944Y-13710174D01*
X18210658Y-13824460D02*
X18191611Y-13833984D01*
X18191611Y-13833984D02*
X18143992Y-13833984D01*
X18143992Y-13833984D02*
X18124944Y-13824460D01*
X18124944Y-13824460D02*
X18115420Y-13805412D01*
X18115420Y-13805412D02*
X18115420Y-13786365D01*
X18115420Y-13786365D02*
X18124944Y-13767317D01*
X18124944Y-13767317D02*
X18143992Y-13757793D01*
X18143992Y-13757793D02*
X18191611Y-13757793D01*
X18191611Y-13757793D02*
X18210658Y-13748269D01*
X18277325Y-13700650D02*
X18353515Y-13700650D01*
X18305896Y-13633984D02*
X18305896Y-13805412D01*
X18305896Y-13805412D02*
X18315420Y-13824460D01*
X18315420Y-13824460D02*
X18334468Y-13833984D01*
X18334468Y-13833984D02*
X18353515Y-13833984D01*
X18496373Y-13824460D02*
X18477325Y-13833984D01*
X18477325Y-13833984D02*
X18439230Y-13833984D01*
X18439230Y-13833984D02*
X18420182Y-13824460D01*
X18420182Y-13824460D02*
X18410658Y-13805412D01*
X18410658Y-13805412D02*
X18410658Y-13729222D01*
X18410658Y-13729222D02*
X18420182Y-13710174D01*
X18420182Y-13710174D02*
X18439230Y-13700650D01*
X18439230Y-13700650D02*
X18477325Y-13700650D01*
X18477325Y-13700650D02*
X18496373Y-13710174D01*
X18496373Y-13710174D02*
X18505896Y-13729222D01*
X18505896Y-13729222D02*
X18505896Y-13748269D01*
X18505896Y-13748269D02*
X18410658Y-13767317D01*
X18677325Y-13833984D02*
X18677325Y-13633984D01*
X18677325Y-13824460D02*
X18658277Y-13833984D01*
X18658277Y-13833984D02*
X18620182Y-13833984D01*
X18620182Y-13833984D02*
X18601135Y-13824460D01*
X18601135Y-13824460D02*
X18591611Y-13814936D01*
X18591611Y-13814936D02*
X18582087Y-13795888D01*
X18582087Y-13795888D02*
X18582087Y-13738746D01*
X18582087Y-13738746D02*
X18591611Y-13719698D01*
X18591611Y-13719698D02*
X18601135Y-13710174D01*
X18601135Y-13710174D02*
X18620182Y-13700650D01*
X18620182Y-13700650D02*
X18658277Y-13700650D01*
X18658277Y-13700650D02*
X18677325Y-13710174D01*
X18753516Y-13910174D02*
X18763039Y-13900650D01*
X18763039Y-13900650D02*
X18782087Y-13872079D01*
X18782087Y-13872079D02*
X18791611Y-13853031D01*
X18791611Y-13853031D02*
X18801135Y-13824460D01*
X18801135Y-13824460D02*
X18810658Y-13776841D01*
X18810658Y-13776841D02*
X18810658Y-13738746D01*
X18810658Y-13738746D02*
X18801135Y-13691127D01*
X18801135Y-13691127D02*
X18791611Y-13662555D01*
X18791611Y-13662555D02*
X18782087Y-13643508D01*
X18782087Y-13643508D02*
X18763039Y-13614936D01*
X18763039Y-13614936D02*
X18753516Y-13605412D01*
M02*
