%TF.GenerationSoftware,KiCad,Pcbnew,10.0.3*%
%TF.CreationDate,2026-06-07T14:35:39+05:30*%
%TF.ProjectId,ArxRP2040Devboard,41727852-5032-4303-9430-446576626f61,rev?*%
%TF.SameCoordinates,Original*%
%TF.FileFunction,Drillmap*%
%TF.FilePolarity,Positive*%
%FSLAX45Y45*%
G04 Gerber Fmt 4.5, Leading zero omitted, Abs format (unit mm)*
G04 Created by KiCad (PCBNEW 10.0.3) date 2026-06-07 14:35:39*
%MOMM*%
%LPD*%
G01*
G04 APERTURE LIST*
%ADD10C,0.050000*%
%ADD11C,0.200000*%
%ADD12C,0.100000*%
G04 APERTURE END LIST*
D10*
X12000000Y-8000000D02*
X14100000Y-8000000D01*
X14100000Y-13100000D01*
X12000000Y-13100000D01*
X12000000Y-8000000D01*
D11*
D12*
X12299494Y-11089724D02*
X12329494Y-11119724D01*
X12329494Y-11089724D02*
X12299494Y-11119724D01*
X12396000Y-9505000D02*
X12426000Y-9535000D01*
X12426000Y-9505000D02*
X12396000Y-9535000D01*
X12480000Y-11140000D02*
X12510000Y-11170000D01*
X12510000Y-11140000D02*
X12480000Y-11170000D01*
X12490000Y-10720000D02*
X12520000Y-10750000D01*
X12520000Y-10720000D02*
X12490000Y-10750000D01*
X12530000Y-11650000D02*
X12560000Y-11680000D01*
X12560000Y-11650000D02*
X12530000Y-11680000D01*
X12565895Y-10680000D02*
X12595895Y-10710000D01*
X12595895Y-10680000D02*
X12565895Y-10710000D01*
X12610000Y-8695000D02*
X12640000Y-8725000D01*
X12640000Y-8695000D02*
X12610000Y-8725000D01*
X12640000Y-10420000D02*
X12670000Y-10450000D01*
X12670000Y-10420000D02*
X12640000Y-10450000D01*
X12655000Y-9275000D02*
X12685000Y-9305000D01*
X12685000Y-9275000D02*
X12655000Y-9305000D01*
X12655000Y-10215000D02*
X12685000Y-10245000D01*
X12685000Y-10215000D02*
X12655000Y-10245000D01*
X12670000Y-11595000D02*
X12700000Y-11625000D01*
X12700000Y-11595000D02*
X12670000Y-11625000D01*
X12720000Y-11485000D02*
X12750000Y-11515000D01*
X12750000Y-11485000D02*
X12720000Y-11515000D01*
X12725000Y-9615000D02*
X12755000Y-9645000D01*
X12755000Y-9615000D02*
X12725000Y-9645000D01*
X12774784Y-11080000D02*
X12804784Y-11110000D01*
X12804784Y-11080000D02*
X12774784Y-11110000D01*
X12775000Y-10704845D02*
X12805000Y-10734845D01*
X12805000Y-10704845D02*
X12775000Y-10734845D01*
X12805000Y-9875000D02*
X12835000Y-9905000D01*
X12835000Y-9875000D02*
X12805000Y-9905000D01*
X12820000Y-11020000D02*
X12850000Y-11050000D01*
X12850000Y-11020000D02*
X12820000Y-11050000D01*
X12830000Y-11135000D02*
X12860000Y-11165000D01*
X12860000Y-11135000D02*
X12830000Y-11165000D01*
X12850000Y-9335000D02*
X12880000Y-9365000D01*
X12880000Y-9335000D02*
X12850000Y-9365000D01*
X12955000Y-9890000D02*
X12985000Y-9920000D01*
X12985000Y-9890000D02*
X12955000Y-9920000D01*
X12960000Y-11825000D02*
X12990000Y-11855000D01*
X12990000Y-11825000D02*
X12960000Y-11855000D01*
X12960105Y-10056851D02*
X12990105Y-10086851D01*
X12990105Y-10056851D02*
X12960105Y-10086851D01*
X12998729Y-11134661D02*
X13028729Y-11164661D01*
X13028729Y-11134661D02*
X12998729Y-11164661D01*
X13045000Y-9880000D02*
X13075000Y-9910000D01*
X13075000Y-9880000D02*
X13045000Y-9910000D01*
X13065000Y-10500853D02*
X13095000Y-10530853D01*
X13095000Y-10500853D02*
X13065000Y-10530853D01*
X13070000Y-11090000D02*
X13100000Y-11120000D01*
X13100000Y-11090000D02*
X13070000Y-11120000D01*
X13085000Y-10005000D02*
X13115000Y-10035000D01*
X13115000Y-10005000D02*
X13085000Y-10035000D01*
X13086914Y-10217233D02*
X13116914Y-10247233D01*
X13116914Y-10217233D02*
X13086914Y-10247233D01*
X13140000Y-10640000D02*
X13170000Y-10670000D01*
X13170000Y-10640000D02*
X13140000Y-10670000D01*
X13150000Y-11090000D02*
X13180000Y-11120000D01*
X13180000Y-11090000D02*
X13150000Y-11120000D01*
X13194511Y-10109636D02*
X13224511Y-10139636D01*
X13224511Y-10109636D02*
X13194511Y-10139636D01*
X13225830Y-10060000D02*
X13255830Y-10090000D01*
X13255830Y-10060000D02*
X13225830Y-10090000D01*
X13250000Y-11010000D02*
X13280000Y-11040000D01*
X13280000Y-11010000D02*
X13250000Y-11040000D01*
X13275000Y-11097280D02*
X13305000Y-11127280D01*
X13305000Y-11097280D02*
X13275000Y-11127280D01*
X13315000Y-10325000D02*
X13345000Y-10355000D01*
X13345000Y-10325000D02*
X13315000Y-10355000D01*
X13325000Y-9640000D02*
X13355000Y-9670000D01*
X13355000Y-9640000D02*
X13325000Y-9670000D01*
X13345710Y-11341237D02*
X13375710Y-11371237D01*
X13375710Y-11341237D02*
X13345710Y-11371237D01*
X13360000Y-8735000D02*
X13390000Y-8765000D01*
X13390000Y-8735000D02*
X13360000Y-8765000D01*
X13382197Y-10402000D02*
X13412197Y-10432000D01*
X13412197Y-10402000D02*
X13382197Y-10432000D01*
X13395000Y-8130000D02*
X13425000Y-8160000D01*
X13425000Y-8130000D02*
X13395000Y-8160000D01*
X13435000Y-11355000D02*
X13465000Y-11385000D01*
X13465000Y-11355000D02*
X13435000Y-11385000D01*
X13516548Y-10366185D02*
X13546548Y-10396185D01*
X13546548Y-10366185D02*
X13516548Y-10396185D01*
X13602555Y-10600630D02*
X13632555Y-10630630D01*
X13632555Y-10600630D02*
X13602555Y-10630630D01*
X13612573Y-10680000D02*
X13642573Y-10710000D01*
X13642573Y-10680000D02*
X13612573Y-10710000D01*
X13617319Y-10478633D02*
X13647319Y-10508633D01*
X13647319Y-10478633D02*
X13617319Y-10508633D01*
X13645000Y-9290000D02*
X13675000Y-9320000D01*
X13675000Y-9290000D02*
X13645000Y-9320000D01*
X13740000Y-11005000D02*
X13770000Y-11035000D01*
X13770000Y-11005000D02*
X13740000Y-11035000D01*
X13775000Y-8495000D02*
X13805000Y-8525000D01*
X13805000Y-8495000D02*
X13775000Y-8525000D01*
X13795000Y-8985000D02*
X13825000Y-9015000D01*
X13825000Y-8985000D02*
X13795000Y-9015000D01*
X13840000Y-8705000D02*
X13870000Y-8735000D01*
X13870000Y-8705000D02*
X13840000Y-8735000D01*
X12648000Y-8145000D02*
G75*
G02*
X12588000Y-8145000I-30000J0D01*
G01*
X12588000Y-8145000D02*
G75*
G02*
X12648000Y-8145000I30000J0D01*
G01*
X12648000Y-8175000D02*
X12648000Y-8115000D01*
X12588000Y-8115000D02*
G75*
G02*
X12648000Y-8115000I30000J0D01*
G01*
X12588000Y-8115000D02*
X12588000Y-8175000D01*
X12588000Y-8175000D02*
G75*
G03*
X12648000Y-8175000I30000J0D01*
G01*
X12648000Y-8563000D02*
G75*
G02*
X12588000Y-8563000I-30000J0D01*
G01*
X12588000Y-8563000D02*
G75*
G02*
X12648000Y-8563000I30000J0D01*
G01*
X12648000Y-8618000D02*
X12648000Y-8508000D01*
X12588000Y-8508000D02*
G75*
G02*
X12648000Y-8508000I30000J0D01*
G01*
X12588000Y-8508000D02*
X12588000Y-8618000D01*
X12588000Y-8618000D02*
G75*
G03*
X12648000Y-8618000I30000J0D01*
G01*
X13512000Y-8145000D02*
G75*
G02*
X13452000Y-8145000I-30000J0D01*
G01*
X13452000Y-8145000D02*
G75*
G02*
X13512000Y-8145000I30000J0D01*
G01*
X13512000Y-8175000D02*
X13512000Y-8115000D01*
X13452000Y-8115000D02*
G75*
G02*
X13512000Y-8115000I30000J0D01*
G01*
X13452000Y-8115000D02*
X13452000Y-8175000D01*
X13452000Y-8175000D02*
G75*
G03*
X13512000Y-8175000I30000J0D01*
G01*
X13512000Y-8563000D02*
G75*
G02*
X13452000Y-8563000I-30000J0D01*
G01*
X13452000Y-8563000D02*
G75*
G02*
X13512000Y-8563000I30000J0D01*
G01*
X13512000Y-8618000D02*
X13512000Y-8508000D01*
X13452000Y-8508000D02*
G75*
G02*
X13512000Y-8508000I30000J0D01*
G01*
X13452000Y-8508000D02*
X13452000Y-8618000D01*
X13452000Y-8618000D02*
G75*
G03*
X13512000Y-8618000I30000J0D01*
G01*
X12161000Y-8087000D02*
X12161000Y-8187000D01*
X12111000Y-8137000D02*
X12211000Y-8137000D01*
X12161000Y-8341000D02*
X12161000Y-8441000D01*
X12111000Y-8391000D02*
X12211000Y-8391000D01*
X12161000Y-8595000D02*
X12161000Y-8695000D01*
X12111000Y-8645000D02*
X12211000Y-8645000D01*
X12161000Y-8849000D02*
X12161000Y-8949000D01*
X12111000Y-8899000D02*
X12211000Y-8899000D01*
X12161000Y-9103000D02*
X12161000Y-9203000D01*
X12111000Y-9153000D02*
X12211000Y-9153000D01*
X12161000Y-9357000D02*
X12161000Y-9457000D01*
X12111000Y-9407000D02*
X12211000Y-9407000D01*
X12161000Y-9611000D02*
X12161000Y-9711000D01*
X12111000Y-9661000D02*
X12211000Y-9661000D01*
X12161000Y-9865000D02*
X12161000Y-9965000D01*
X12111000Y-9915000D02*
X12211000Y-9915000D01*
X12161000Y-10119000D02*
X12161000Y-10219000D01*
X12111000Y-10169000D02*
X12211000Y-10169000D01*
X12161000Y-10373000D02*
X12161000Y-10473000D01*
X12111000Y-10423000D02*
X12211000Y-10423000D01*
X12161000Y-10627000D02*
X12161000Y-10727000D01*
X12111000Y-10677000D02*
X12211000Y-10677000D01*
X12161000Y-10881000D02*
X12161000Y-10981000D01*
X12111000Y-10931000D02*
X12211000Y-10931000D01*
X12161000Y-11135000D02*
X12161000Y-11235000D01*
X12111000Y-11185000D02*
X12211000Y-11185000D01*
X12161000Y-11389000D02*
X12161000Y-11489000D01*
X12111000Y-11439000D02*
X12211000Y-11439000D01*
X12161000Y-11643000D02*
X12161000Y-11743000D01*
X12111000Y-11693000D02*
X12211000Y-11693000D01*
X12161000Y-11897000D02*
X12161000Y-11997000D01*
X12111000Y-11947000D02*
X12211000Y-11947000D01*
X12161000Y-12151000D02*
X12161000Y-12251000D01*
X12111000Y-12201000D02*
X12211000Y-12201000D01*
X12161000Y-12405000D02*
X12161000Y-12505000D01*
X12111000Y-12455000D02*
X12211000Y-12455000D01*
X12161000Y-12659000D02*
X12161000Y-12759000D01*
X12111000Y-12709000D02*
X12211000Y-12709000D01*
X12161000Y-12913000D02*
X12161000Y-13013000D01*
X12111000Y-12963000D02*
X12211000Y-12963000D01*
X12796000Y-12889000D02*
X12796000Y-12989000D01*
X12746000Y-12939000D02*
X12846000Y-12939000D01*
X13050000Y-12889000D02*
X13050000Y-12989000D01*
X13000000Y-12939000D02*
X13100000Y-12939000D01*
X13304000Y-12889000D02*
X13304000Y-12989000D01*
X13254000Y-12939000D02*
X13354000Y-12939000D01*
X13939000Y-8087000D02*
X13939000Y-8187000D01*
X13889000Y-8137000D02*
X13989000Y-8137000D01*
X13939000Y-8341000D02*
X13939000Y-8441000D01*
X13889000Y-8391000D02*
X13989000Y-8391000D01*
X13939000Y-8595000D02*
X13939000Y-8695000D01*
X13889000Y-8645000D02*
X13989000Y-8645000D01*
X13939000Y-8849000D02*
X13939000Y-8949000D01*
X13889000Y-8899000D02*
X13989000Y-8899000D01*
X13939000Y-9103000D02*
X13939000Y-9203000D01*
X13889000Y-9153000D02*
X13989000Y-9153000D01*
X13939000Y-9357000D02*
X13939000Y-9457000D01*
X13889000Y-9407000D02*
X13989000Y-9407000D01*
X13939000Y-9611000D02*
X13939000Y-9711000D01*
X13889000Y-9661000D02*
X13989000Y-9661000D01*
X13939000Y-9865000D02*
X13939000Y-9965000D01*
X13889000Y-9915000D02*
X13989000Y-9915000D01*
X13939000Y-10119000D02*
X13939000Y-10219000D01*
X13889000Y-10169000D02*
X13989000Y-10169000D01*
X13939000Y-10373000D02*
X13939000Y-10473000D01*
X13889000Y-10423000D02*
X13989000Y-10423000D01*
X13939000Y-10627000D02*
X13939000Y-10727000D01*
X13889000Y-10677000D02*
X13989000Y-10677000D01*
X13939000Y-10881000D02*
X13939000Y-10981000D01*
X13889000Y-10931000D02*
X13989000Y-10931000D01*
X13939000Y-11135000D02*
X13939000Y-11235000D01*
X13889000Y-11185000D02*
X13989000Y-11185000D01*
X13939000Y-11389000D02*
X13939000Y-11489000D01*
X13889000Y-11439000D02*
X13989000Y-11439000D01*
X13939000Y-11643000D02*
X13939000Y-11743000D01*
X13889000Y-11693000D02*
X13989000Y-11693000D01*
X13939000Y-11897000D02*
X13939000Y-11997000D01*
X13889000Y-11947000D02*
X13989000Y-11947000D01*
X13939000Y-12151000D02*
X13939000Y-12251000D01*
X13889000Y-12201000D02*
X13989000Y-12201000D01*
X13939000Y-12405000D02*
X13939000Y-12505000D01*
X13889000Y-12455000D02*
X13989000Y-12455000D01*
X13939000Y-12659000D02*
X13939000Y-12759000D01*
X13889000Y-12709000D02*
X13989000Y-12709000D01*
X13939000Y-12913000D02*
X13939000Y-13013000D01*
X13889000Y-12963000D02*
X13989000Y-12963000D01*
D11*
X12258277Y-13413984D02*
X12258277Y-13213984D01*
X12258277Y-13213984D02*
X12305896Y-13213984D01*
X12305896Y-13213984D02*
X12334467Y-13223508D01*
X12334467Y-13223508D02*
X12353515Y-13242555D01*
X12353515Y-13242555D02*
X12363039Y-13261603D01*
X12363039Y-13261603D02*
X12372562Y-13299698D01*
X12372562Y-13299698D02*
X12372562Y-13328269D01*
X12372562Y-13328269D02*
X12363039Y-13366365D01*
X12363039Y-13366365D02*
X12353515Y-13385412D01*
X12353515Y-13385412D02*
X12334467Y-13404460D01*
X12334467Y-13404460D02*
X12305896Y-13413984D01*
X12305896Y-13413984D02*
X12258277Y-13413984D01*
X12458277Y-13413984D02*
X12458277Y-13280650D01*
X12458277Y-13318746D02*
X12467801Y-13299698D01*
X12467801Y-13299698D02*
X12477324Y-13290174D01*
X12477324Y-13290174D02*
X12496372Y-13280650D01*
X12496372Y-13280650D02*
X12515420Y-13280650D01*
X12582086Y-13413984D02*
X12582086Y-13280650D01*
X12582086Y-13213984D02*
X12572562Y-13223508D01*
X12572562Y-13223508D02*
X12582086Y-13233031D01*
X12582086Y-13233031D02*
X12591610Y-13223508D01*
X12591610Y-13223508D02*
X12582086Y-13213984D01*
X12582086Y-13213984D02*
X12582086Y-13233031D01*
X12705896Y-13413984D02*
X12686848Y-13404460D01*
X12686848Y-13404460D02*
X12677324Y-13385412D01*
X12677324Y-13385412D02*
X12677324Y-13213984D01*
X12810658Y-13413984D02*
X12791610Y-13404460D01*
X12791610Y-13404460D02*
X12782086Y-13385412D01*
X12782086Y-13385412D02*
X12782086Y-13213984D01*
X13039229Y-13413984D02*
X13039229Y-13213984D01*
X13039229Y-13213984D02*
X13105896Y-13356841D01*
X13105896Y-13356841D02*
X13172562Y-13213984D01*
X13172562Y-13213984D02*
X13172562Y-13413984D01*
X13353515Y-13413984D02*
X13353515Y-13309222D01*
X13353515Y-13309222D02*
X13343991Y-13290174D01*
X13343991Y-13290174D02*
X13324943Y-13280650D01*
X13324943Y-13280650D02*
X13286848Y-13280650D01*
X13286848Y-13280650D02*
X13267801Y-13290174D01*
X13353515Y-13404460D02*
X13334467Y-13413984D01*
X13334467Y-13413984D02*
X13286848Y-13413984D01*
X13286848Y-13413984D02*
X13267801Y-13404460D01*
X13267801Y-13404460D02*
X13258277Y-13385412D01*
X13258277Y-13385412D02*
X13258277Y-13366365D01*
X13258277Y-13366365D02*
X13267801Y-13347317D01*
X13267801Y-13347317D02*
X13286848Y-13337793D01*
X13286848Y-13337793D02*
X13334467Y-13337793D01*
X13334467Y-13337793D02*
X13353515Y-13328269D01*
X13448753Y-13280650D02*
X13448753Y-13480650D01*
X13448753Y-13290174D02*
X13467801Y-13280650D01*
X13467801Y-13280650D02*
X13505896Y-13280650D01*
X13505896Y-13280650D02*
X13524943Y-13290174D01*
X13524943Y-13290174D02*
X13534467Y-13299698D01*
X13534467Y-13299698D02*
X13543991Y-13318746D01*
X13543991Y-13318746D02*
X13543991Y-13375888D01*
X13543991Y-13375888D02*
X13534467Y-13394936D01*
X13534467Y-13394936D02*
X13524943Y-13404460D01*
X13524943Y-13404460D02*
X13505896Y-13413984D01*
X13505896Y-13413984D02*
X13467801Y-13413984D01*
X13467801Y-13413984D02*
X13448753Y-13404460D01*
X13629705Y-13394936D02*
X13639229Y-13404460D01*
X13639229Y-13404460D02*
X13629705Y-13413984D01*
X13629705Y-13413984D02*
X13620182Y-13404460D01*
X13620182Y-13404460D02*
X13629705Y-13394936D01*
X13629705Y-13394936D02*
X13629705Y-13413984D01*
X13629705Y-13290174D02*
X13639229Y-13299698D01*
X13639229Y-13299698D02*
X13629705Y-13309222D01*
X13629705Y-13309222D02*
X13620182Y-13299698D01*
X13620182Y-13299698D02*
X13629705Y-13290174D01*
X13629705Y-13290174D02*
X13629705Y-13309222D01*
D12*
X11967500Y-13727500D02*
X11997500Y-13757500D01*
X11997500Y-13727500D02*
X11967500Y-13757500D01*
D11*
X12296372Y-13633984D02*
X12315420Y-13633984D01*
X12315420Y-13633984D02*
X12334467Y-13643508D01*
X12334467Y-13643508D02*
X12343991Y-13653031D01*
X12343991Y-13653031D02*
X12353515Y-13672079D01*
X12353515Y-13672079D02*
X12363039Y-13710174D01*
X12363039Y-13710174D02*
X12363039Y-13757793D01*
X12363039Y-13757793D02*
X12353515Y-13795888D01*
X12353515Y-13795888D02*
X12343991Y-13814936D01*
X12343991Y-13814936D02*
X12334467Y-13824460D01*
X12334467Y-13824460D02*
X12315420Y-13833984D01*
X12315420Y-13833984D02*
X12296372Y-13833984D01*
X12296372Y-13833984D02*
X12277324Y-13824460D01*
X12277324Y-13824460D02*
X12267801Y-13814936D01*
X12267801Y-13814936D02*
X12258277Y-13795888D01*
X12258277Y-13795888D02*
X12248753Y-13757793D01*
X12248753Y-13757793D02*
X12248753Y-13710174D01*
X12248753Y-13710174D02*
X12258277Y-13672079D01*
X12258277Y-13672079D02*
X12267801Y-13653031D01*
X12267801Y-13653031D02*
X12277324Y-13643508D01*
X12277324Y-13643508D02*
X12296372Y-13633984D01*
X12448753Y-13814936D02*
X12458277Y-13824460D01*
X12458277Y-13824460D02*
X12448753Y-13833984D01*
X12448753Y-13833984D02*
X12439229Y-13824460D01*
X12439229Y-13824460D02*
X12448753Y-13814936D01*
X12448753Y-13814936D02*
X12448753Y-13833984D01*
X12524943Y-13633984D02*
X12648753Y-13633984D01*
X12648753Y-13633984D02*
X12582086Y-13710174D01*
X12582086Y-13710174D02*
X12610658Y-13710174D01*
X12610658Y-13710174D02*
X12629705Y-13719698D01*
X12629705Y-13719698D02*
X12639229Y-13729222D01*
X12639229Y-13729222D02*
X12648753Y-13748269D01*
X12648753Y-13748269D02*
X12648753Y-13795888D01*
X12648753Y-13795888D02*
X12639229Y-13814936D01*
X12639229Y-13814936D02*
X12629705Y-13824460D01*
X12629705Y-13824460D02*
X12610658Y-13833984D01*
X12610658Y-13833984D02*
X12553515Y-13833984D01*
X12553515Y-13833984D02*
X12534467Y-13824460D01*
X12534467Y-13824460D02*
X12524943Y-13814936D01*
X12772562Y-13633984D02*
X12791610Y-13633984D01*
X12791610Y-13633984D02*
X12810658Y-13643508D01*
X12810658Y-13643508D02*
X12820182Y-13653031D01*
X12820182Y-13653031D02*
X12829705Y-13672079D01*
X12829705Y-13672079D02*
X12839229Y-13710174D01*
X12839229Y-13710174D02*
X12839229Y-13757793D01*
X12839229Y-13757793D02*
X12829705Y-13795888D01*
X12829705Y-13795888D02*
X12820182Y-13814936D01*
X12820182Y-13814936D02*
X12810658Y-13824460D01*
X12810658Y-13824460D02*
X12791610Y-13833984D01*
X12791610Y-13833984D02*
X12772562Y-13833984D01*
X12772562Y-13833984D02*
X12753515Y-13824460D01*
X12753515Y-13824460D02*
X12743991Y-13814936D01*
X12743991Y-13814936D02*
X12734467Y-13795888D01*
X12734467Y-13795888D02*
X12724943Y-13757793D01*
X12724943Y-13757793D02*
X12724943Y-13710174D01*
X12724943Y-13710174D02*
X12734467Y-13672079D01*
X12734467Y-13672079D02*
X12743991Y-13653031D01*
X12743991Y-13653031D02*
X12753515Y-13643508D01*
X12753515Y-13643508D02*
X12772562Y-13633984D01*
X12963039Y-13633984D02*
X12982086Y-13633984D01*
X12982086Y-13633984D02*
X13001134Y-13643508D01*
X13001134Y-13643508D02*
X13010658Y-13653031D01*
X13010658Y-13653031D02*
X13020182Y-13672079D01*
X13020182Y-13672079D02*
X13029705Y-13710174D01*
X13029705Y-13710174D02*
X13029705Y-13757793D01*
X13029705Y-13757793D02*
X13020182Y-13795888D01*
X13020182Y-13795888D02*
X13010658Y-13814936D01*
X13010658Y-13814936D02*
X13001134Y-13824460D01*
X13001134Y-13824460D02*
X12982086Y-13833984D01*
X12982086Y-13833984D02*
X12963039Y-13833984D01*
X12963039Y-13833984D02*
X12943991Y-13824460D01*
X12943991Y-13824460D02*
X12934467Y-13814936D01*
X12934467Y-13814936D02*
X12924943Y-13795888D01*
X12924943Y-13795888D02*
X12915420Y-13757793D01*
X12915420Y-13757793D02*
X12915420Y-13710174D01*
X12915420Y-13710174D02*
X12924943Y-13672079D01*
X12924943Y-13672079D02*
X12934467Y-13653031D01*
X12934467Y-13653031D02*
X12943991Y-13643508D01*
X12943991Y-13643508D02*
X12963039Y-13633984D01*
X13115420Y-13833984D02*
X13115420Y-13700650D01*
X13115420Y-13719698D02*
X13124943Y-13710174D01*
X13124943Y-13710174D02*
X13143991Y-13700650D01*
X13143991Y-13700650D02*
X13172563Y-13700650D01*
X13172563Y-13700650D02*
X13191610Y-13710174D01*
X13191610Y-13710174D02*
X13201134Y-13729222D01*
X13201134Y-13729222D02*
X13201134Y-13833984D01*
X13201134Y-13729222D02*
X13210658Y-13710174D01*
X13210658Y-13710174D02*
X13229705Y-13700650D01*
X13229705Y-13700650D02*
X13258277Y-13700650D01*
X13258277Y-13700650D02*
X13277324Y-13710174D01*
X13277324Y-13710174D02*
X13286848Y-13729222D01*
X13286848Y-13729222D02*
X13286848Y-13833984D01*
X13382086Y-13833984D02*
X13382086Y-13700650D01*
X13382086Y-13719698D02*
X13391610Y-13710174D01*
X13391610Y-13710174D02*
X13410658Y-13700650D01*
X13410658Y-13700650D02*
X13439229Y-13700650D01*
X13439229Y-13700650D02*
X13458277Y-13710174D01*
X13458277Y-13710174D02*
X13467801Y-13729222D01*
X13467801Y-13729222D02*
X13467801Y-13833984D01*
X13467801Y-13729222D02*
X13477324Y-13710174D01*
X13477324Y-13710174D02*
X13496372Y-13700650D01*
X13496372Y-13700650D02*
X13524943Y-13700650D01*
X13524943Y-13700650D02*
X13543991Y-13710174D01*
X13543991Y-13710174D02*
X13553515Y-13729222D01*
X13553515Y-13729222D02*
X13553515Y-13833984D01*
X13943991Y-13624460D02*
X13772563Y-13881603D01*
X14201134Y-13633984D02*
X14220182Y-13633984D01*
X14220182Y-13633984D02*
X14239229Y-13643508D01*
X14239229Y-13643508D02*
X14248753Y-13653031D01*
X14248753Y-13653031D02*
X14258277Y-13672079D01*
X14258277Y-13672079D02*
X14267801Y-13710174D01*
X14267801Y-13710174D02*
X14267801Y-13757793D01*
X14267801Y-13757793D02*
X14258277Y-13795888D01*
X14258277Y-13795888D02*
X14248753Y-13814936D01*
X14248753Y-13814936D02*
X14239229Y-13824460D01*
X14239229Y-13824460D02*
X14220182Y-13833984D01*
X14220182Y-13833984D02*
X14201134Y-13833984D01*
X14201134Y-13833984D02*
X14182086Y-13824460D01*
X14182086Y-13824460D02*
X14172563Y-13814936D01*
X14172563Y-13814936D02*
X14163039Y-13795888D01*
X14163039Y-13795888D02*
X14153515Y-13757793D01*
X14153515Y-13757793D02*
X14153515Y-13710174D01*
X14153515Y-13710174D02*
X14163039Y-13672079D01*
X14163039Y-13672079D02*
X14172563Y-13653031D01*
X14172563Y-13653031D02*
X14182086Y-13643508D01*
X14182086Y-13643508D02*
X14201134Y-13633984D01*
X14353515Y-13814936D02*
X14363039Y-13824460D01*
X14363039Y-13824460D02*
X14353515Y-13833984D01*
X14353515Y-13833984D02*
X14343991Y-13824460D01*
X14343991Y-13824460D02*
X14353515Y-13814936D01*
X14353515Y-13814936D02*
X14353515Y-13833984D01*
X14486848Y-13633984D02*
X14505896Y-13633984D01*
X14505896Y-13633984D02*
X14524944Y-13643508D01*
X14524944Y-13643508D02*
X14534467Y-13653031D01*
X14534467Y-13653031D02*
X14543991Y-13672079D01*
X14543991Y-13672079D02*
X14553515Y-13710174D01*
X14553515Y-13710174D02*
X14553515Y-13757793D01*
X14553515Y-13757793D02*
X14543991Y-13795888D01*
X14543991Y-13795888D02*
X14534467Y-13814936D01*
X14534467Y-13814936D02*
X14524944Y-13824460D01*
X14524944Y-13824460D02*
X14505896Y-13833984D01*
X14505896Y-13833984D02*
X14486848Y-13833984D01*
X14486848Y-13833984D02*
X14467801Y-13824460D01*
X14467801Y-13824460D02*
X14458277Y-13814936D01*
X14458277Y-13814936D02*
X14448753Y-13795888D01*
X14448753Y-13795888D02*
X14439229Y-13757793D01*
X14439229Y-13757793D02*
X14439229Y-13710174D01*
X14439229Y-13710174D02*
X14448753Y-13672079D01*
X14448753Y-13672079D02*
X14458277Y-13653031D01*
X14458277Y-13653031D02*
X14467801Y-13643508D01*
X14467801Y-13643508D02*
X14486848Y-13633984D01*
X14743991Y-13833984D02*
X14629706Y-13833984D01*
X14686848Y-13833984D02*
X14686848Y-13633984D01*
X14686848Y-13633984D02*
X14667801Y-13662555D01*
X14667801Y-13662555D02*
X14648753Y-13681603D01*
X14648753Y-13681603D02*
X14629706Y-13691127D01*
X14934467Y-13833984D02*
X14820182Y-13833984D01*
X14877325Y-13833984D02*
X14877325Y-13633984D01*
X14877325Y-13633984D02*
X14858277Y-13662555D01*
X14858277Y-13662555D02*
X14839229Y-13681603D01*
X14839229Y-13681603D02*
X14820182Y-13691127D01*
X15048753Y-13719698D02*
X15029706Y-13710174D01*
X15029706Y-13710174D02*
X15020182Y-13700650D01*
X15020182Y-13700650D02*
X15010658Y-13681603D01*
X15010658Y-13681603D02*
X15010658Y-13672079D01*
X15010658Y-13672079D02*
X15020182Y-13653031D01*
X15020182Y-13653031D02*
X15029706Y-13643508D01*
X15029706Y-13643508D02*
X15048753Y-13633984D01*
X15048753Y-13633984D02*
X15086848Y-13633984D01*
X15086848Y-13633984D02*
X15105896Y-13643508D01*
X15105896Y-13643508D02*
X15115420Y-13653031D01*
X15115420Y-13653031D02*
X15124944Y-13672079D01*
X15124944Y-13672079D02*
X15124944Y-13681603D01*
X15124944Y-13681603D02*
X15115420Y-13700650D01*
X15115420Y-13700650D02*
X15105896Y-13710174D01*
X15105896Y-13710174D02*
X15086848Y-13719698D01*
X15086848Y-13719698D02*
X15048753Y-13719698D01*
X15048753Y-13719698D02*
X15029706Y-13729222D01*
X15029706Y-13729222D02*
X15020182Y-13738746D01*
X15020182Y-13738746D02*
X15010658Y-13757793D01*
X15010658Y-13757793D02*
X15010658Y-13795888D01*
X15010658Y-13795888D02*
X15020182Y-13814936D01*
X15020182Y-13814936D02*
X15029706Y-13824460D01*
X15029706Y-13824460D02*
X15048753Y-13833984D01*
X15048753Y-13833984D02*
X15086848Y-13833984D01*
X15086848Y-13833984D02*
X15105896Y-13824460D01*
X15105896Y-13824460D02*
X15115420Y-13814936D01*
X15115420Y-13814936D02*
X15124944Y-13795888D01*
X15124944Y-13795888D02*
X15124944Y-13757793D01*
X15124944Y-13757793D02*
X15115420Y-13738746D01*
X15115420Y-13738746D02*
X15105896Y-13729222D01*
X15105896Y-13729222D02*
X15086848Y-13719698D01*
X15201134Y-13633984D02*
X15201134Y-13672079D01*
X15277325Y-13633984D02*
X15277325Y-13672079D01*
X15572563Y-13910174D02*
X15563039Y-13900650D01*
X15563039Y-13900650D02*
X15543991Y-13872079D01*
X15543991Y-13872079D02*
X15534468Y-13853031D01*
X15534468Y-13853031D02*
X15524944Y-13824460D01*
X15524944Y-13824460D02*
X15515420Y-13776841D01*
X15515420Y-13776841D02*
X15515420Y-13738746D01*
X15515420Y-13738746D02*
X15524944Y-13691127D01*
X15524944Y-13691127D02*
X15534468Y-13662555D01*
X15534468Y-13662555D02*
X15543991Y-13643508D01*
X15543991Y-13643508D02*
X15563039Y-13614936D01*
X15563039Y-13614936D02*
X15572563Y-13605412D01*
X15743991Y-13633984D02*
X15648753Y-13633984D01*
X15648753Y-13633984D02*
X15639229Y-13729222D01*
X15639229Y-13729222D02*
X15648753Y-13719698D01*
X15648753Y-13719698D02*
X15667801Y-13710174D01*
X15667801Y-13710174D02*
X15715420Y-13710174D01*
X15715420Y-13710174D02*
X15734468Y-13719698D01*
X15734468Y-13719698D02*
X15743991Y-13729222D01*
X15743991Y-13729222D02*
X15753515Y-13748269D01*
X15753515Y-13748269D02*
X15753515Y-13795888D01*
X15753515Y-13795888D02*
X15743991Y-13814936D01*
X15743991Y-13814936D02*
X15734468Y-13824460D01*
X15734468Y-13824460D02*
X15715420Y-13833984D01*
X15715420Y-13833984D02*
X15667801Y-13833984D01*
X15667801Y-13833984D02*
X15648753Y-13824460D01*
X15648753Y-13824460D02*
X15639229Y-13814936D01*
X15877325Y-13633984D02*
X15896372Y-13633984D01*
X15896372Y-13633984D02*
X15915420Y-13643508D01*
X15915420Y-13643508D02*
X15924944Y-13653031D01*
X15924944Y-13653031D02*
X15934468Y-13672079D01*
X15934468Y-13672079D02*
X15943991Y-13710174D01*
X15943991Y-13710174D02*
X15943991Y-13757793D01*
X15943991Y-13757793D02*
X15934468Y-13795888D01*
X15934468Y-13795888D02*
X15924944Y-13814936D01*
X15924944Y-13814936D02*
X15915420Y-13824460D01*
X15915420Y-13824460D02*
X15896372Y-13833984D01*
X15896372Y-13833984D02*
X15877325Y-13833984D01*
X15877325Y-13833984D02*
X15858277Y-13824460D01*
X15858277Y-13824460D02*
X15848753Y-13814936D01*
X15848753Y-13814936D02*
X15839229Y-13795888D01*
X15839229Y-13795888D02*
X15829706Y-13757793D01*
X15829706Y-13757793D02*
X15829706Y-13710174D01*
X15829706Y-13710174D02*
X15839229Y-13672079D01*
X15839229Y-13672079D02*
X15848753Y-13653031D01*
X15848753Y-13653031D02*
X15858277Y-13643508D01*
X15858277Y-13643508D02*
X15877325Y-13633984D01*
X16182087Y-13833984D02*
X16182087Y-13633984D01*
X16267801Y-13833984D02*
X16267801Y-13729222D01*
X16267801Y-13729222D02*
X16258277Y-13710174D01*
X16258277Y-13710174D02*
X16239230Y-13700650D01*
X16239230Y-13700650D02*
X16210658Y-13700650D01*
X16210658Y-13700650D02*
X16191610Y-13710174D01*
X16191610Y-13710174D02*
X16182087Y-13719698D01*
X16391610Y-13833984D02*
X16372563Y-13824460D01*
X16372563Y-13824460D02*
X16363039Y-13814936D01*
X16363039Y-13814936D02*
X16353515Y-13795888D01*
X16353515Y-13795888D02*
X16353515Y-13738746D01*
X16353515Y-13738746D02*
X16363039Y-13719698D01*
X16363039Y-13719698D02*
X16372563Y-13710174D01*
X16372563Y-13710174D02*
X16391610Y-13700650D01*
X16391610Y-13700650D02*
X16420182Y-13700650D01*
X16420182Y-13700650D02*
X16439230Y-13710174D01*
X16439230Y-13710174D02*
X16448753Y-13719698D01*
X16448753Y-13719698D02*
X16458277Y-13738746D01*
X16458277Y-13738746D02*
X16458277Y-13795888D01*
X16458277Y-13795888D02*
X16448753Y-13814936D01*
X16448753Y-13814936D02*
X16439230Y-13824460D01*
X16439230Y-13824460D02*
X16420182Y-13833984D01*
X16420182Y-13833984D02*
X16391610Y-13833984D01*
X16572563Y-13833984D02*
X16553515Y-13824460D01*
X16553515Y-13824460D02*
X16543991Y-13805412D01*
X16543991Y-13805412D02*
X16543991Y-13633984D01*
X16724944Y-13824460D02*
X16705896Y-13833984D01*
X16705896Y-13833984D02*
X16667801Y-13833984D01*
X16667801Y-13833984D02*
X16648753Y-13824460D01*
X16648753Y-13824460D02*
X16639230Y-13805412D01*
X16639230Y-13805412D02*
X16639230Y-13729222D01*
X16639230Y-13729222D02*
X16648753Y-13710174D01*
X16648753Y-13710174D02*
X16667801Y-13700650D01*
X16667801Y-13700650D02*
X16705896Y-13700650D01*
X16705896Y-13700650D02*
X16724944Y-13710174D01*
X16724944Y-13710174D02*
X16734468Y-13729222D01*
X16734468Y-13729222D02*
X16734468Y-13748269D01*
X16734468Y-13748269D02*
X16639230Y-13767317D01*
X16810658Y-13824460D02*
X16829706Y-13833984D01*
X16829706Y-13833984D02*
X16867801Y-13833984D01*
X16867801Y-13833984D02*
X16886849Y-13824460D01*
X16886849Y-13824460D02*
X16896373Y-13805412D01*
X16896373Y-13805412D02*
X16896373Y-13795888D01*
X16896373Y-13795888D02*
X16886849Y-13776841D01*
X16886849Y-13776841D02*
X16867801Y-13767317D01*
X16867801Y-13767317D02*
X16839230Y-13767317D01*
X16839230Y-13767317D02*
X16820182Y-13757793D01*
X16820182Y-13757793D02*
X16810658Y-13738746D01*
X16810658Y-13738746D02*
X16810658Y-13729222D01*
X16810658Y-13729222D02*
X16820182Y-13710174D01*
X16820182Y-13710174D02*
X16839230Y-13700650D01*
X16839230Y-13700650D02*
X16867801Y-13700650D01*
X16867801Y-13700650D02*
X16886849Y-13710174D01*
X16963039Y-13910174D02*
X16972563Y-13900650D01*
X16972563Y-13900650D02*
X16991611Y-13872079D01*
X16991611Y-13872079D02*
X17001134Y-13853031D01*
X17001134Y-13853031D02*
X17010658Y-13824460D01*
X17010658Y-13824460D02*
X17020182Y-13776841D01*
X17020182Y-13776841D02*
X17020182Y-13738746D01*
X17020182Y-13738746D02*
X17010658Y-13691127D01*
X17010658Y-13691127D02*
X17001134Y-13662555D01*
X17001134Y-13662555D02*
X16991611Y-13643508D01*
X16991611Y-13643508D02*
X16972563Y-13614936D01*
X16972563Y-13614936D02*
X16963039Y-13605412D01*
D12*
X11997500Y-14006500D02*
G75*
G02*
X11937500Y-14006500I-30000J0D01*
G01*
X11937500Y-14006500D02*
G75*
G02*
X11997500Y-14006500I30000J0D01*
G01*
D11*
X12296372Y-13897984D02*
X12315420Y-13897984D01*
X12315420Y-13897984D02*
X12334467Y-13907508D01*
X12334467Y-13907508D02*
X12343991Y-13917031D01*
X12343991Y-13917031D02*
X12353515Y-13936079D01*
X12353515Y-13936079D02*
X12363039Y-13974174D01*
X12363039Y-13974174D02*
X12363039Y-14021793D01*
X12363039Y-14021793D02*
X12353515Y-14059888D01*
X12353515Y-14059888D02*
X12343991Y-14078936D01*
X12343991Y-14078936D02*
X12334467Y-14088460D01*
X12334467Y-14088460D02*
X12315420Y-14097984D01*
X12315420Y-14097984D02*
X12296372Y-14097984D01*
X12296372Y-14097984D02*
X12277324Y-14088460D01*
X12277324Y-14088460D02*
X12267801Y-14078936D01*
X12267801Y-14078936D02*
X12258277Y-14059888D01*
X12258277Y-14059888D02*
X12248753Y-14021793D01*
X12248753Y-14021793D02*
X12248753Y-13974174D01*
X12248753Y-13974174D02*
X12258277Y-13936079D01*
X12258277Y-13936079D02*
X12267801Y-13917031D01*
X12267801Y-13917031D02*
X12277324Y-13907508D01*
X12277324Y-13907508D02*
X12296372Y-13897984D01*
X12448753Y-14078936D02*
X12458277Y-14088460D01*
X12458277Y-14088460D02*
X12448753Y-14097984D01*
X12448753Y-14097984D02*
X12439229Y-14088460D01*
X12439229Y-14088460D02*
X12448753Y-14078936D01*
X12448753Y-14078936D02*
X12448753Y-14097984D01*
X12629705Y-13897984D02*
X12591610Y-13897984D01*
X12591610Y-13897984D02*
X12572562Y-13907508D01*
X12572562Y-13907508D02*
X12563039Y-13917031D01*
X12563039Y-13917031D02*
X12543991Y-13945603D01*
X12543991Y-13945603D02*
X12534467Y-13983698D01*
X12534467Y-13983698D02*
X12534467Y-14059888D01*
X12534467Y-14059888D02*
X12543991Y-14078936D01*
X12543991Y-14078936D02*
X12553515Y-14088460D01*
X12553515Y-14088460D02*
X12572562Y-14097984D01*
X12572562Y-14097984D02*
X12610658Y-14097984D01*
X12610658Y-14097984D02*
X12629705Y-14088460D01*
X12629705Y-14088460D02*
X12639229Y-14078936D01*
X12639229Y-14078936D02*
X12648753Y-14059888D01*
X12648753Y-14059888D02*
X12648753Y-14012269D01*
X12648753Y-14012269D02*
X12639229Y-13993222D01*
X12639229Y-13993222D02*
X12629705Y-13983698D01*
X12629705Y-13983698D02*
X12610658Y-13974174D01*
X12610658Y-13974174D02*
X12572562Y-13974174D01*
X12572562Y-13974174D02*
X12553515Y-13983698D01*
X12553515Y-13983698D02*
X12543991Y-13993222D01*
X12543991Y-13993222D02*
X12534467Y-14012269D01*
X12772562Y-13897984D02*
X12791610Y-13897984D01*
X12791610Y-13897984D02*
X12810658Y-13907508D01*
X12810658Y-13907508D02*
X12820182Y-13917031D01*
X12820182Y-13917031D02*
X12829705Y-13936079D01*
X12829705Y-13936079D02*
X12839229Y-13974174D01*
X12839229Y-13974174D02*
X12839229Y-14021793D01*
X12839229Y-14021793D02*
X12829705Y-14059888D01*
X12829705Y-14059888D02*
X12820182Y-14078936D01*
X12820182Y-14078936D02*
X12810658Y-14088460D01*
X12810658Y-14088460D02*
X12791610Y-14097984D01*
X12791610Y-14097984D02*
X12772562Y-14097984D01*
X12772562Y-14097984D02*
X12753515Y-14088460D01*
X12753515Y-14088460D02*
X12743991Y-14078936D01*
X12743991Y-14078936D02*
X12734467Y-14059888D01*
X12734467Y-14059888D02*
X12724943Y-14021793D01*
X12724943Y-14021793D02*
X12724943Y-13974174D01*
X12724943Y-13974174D02*
X12734467Y-13936079D01*
X12734467Y-13936079D02*
X12743991Y-13917031D01*
X12743991Y-13917031D02*
X12753515Y-13907508D01*
X12753515Y-13907508D02*
X12772562Y-13897984D01*
X12963039Y-13897984D02*
X12982086Y-13897984D01*
X12982086Y-13897984D02*
X13001134Y-13907508D01*
X13001134Y-13907508D02*
X13010658Y-13917031D01*
X13010658Y-13917031D02*
X13020182Y-13936079D01*
X13020182Y-13936079D02*
X13029705Y-13974174D01*
X13029705Y-13974174D02*
X13029705Y-14021793D01*
X13029705Y-14021793D02*
X13020182Y-14059888D01*
X13020182Y-14059888D02*
X13010658Y-14078936D01*
X13010658Y-14078936D02*
X13001134Y-14088460D01*
X13001134Y-14088460D02*
X12982086Y-14097984D01*
X12982086Y-14097984D02*
X12963039Y-14097984D01*
X12963039Y-14097984D02*
X12943991Y-14088460D01*
X12943991Y-14088460D02*
X12934467Y-14078936D01*
X12934467Y-14078936D02*
X12924943Y-14059888D01*
X12924943Y-14059888D02*
X12915420Y-14021793D01*
X12915420Y-14021793D02*
X12915420Y-13974174D01*
X12915420Y-13974174D02*
X12924943Y-13936079D01*
X12924943Y-13936079D02*
X12934467Y-13917031D01*
X12934467Y-13917031D02*
X12943991Y-13907508D01*
X12943991Y-13907508D02*
X12963039Y-13897984D01*
X13115420Y-14097984D02*
X13115420Y-13964650D01*
X13115420Y-13983698D02*
X13124943Y-13974174D01*
X13124943Y-13974174D02*
X13143991Y-13964650D01*
X13143991Y-13964650D02*
X13172563Y-13964650D01*
X13172563Y-13964650D02*
X13191610Y-13974174D01*
X13191610Y-13974174D02*
X13201134Y-13993222D01*
X13201134Y-13993222D02*
X13201134Y-14097984D01*
X13201134Y-13993222D02*
X13210658Y-13974174D01*
X13210658Y-13974174D02*
X13229705Y-13964650D01*
X13229705Y-13964650D02*
X13258277Y-13964650D01*
X13258277Y-13964650D02*
X13277324Y-13974174D01*
X13277324Y-13974174D02*
X13286848Y-13993222D01*
X13286848Y-13993222D02*
X13286848Y-14097984D01*
X13382086Y-14097984D02*
X13382086Y-13964650D01*
X13382086Y-13983698D02*
X13391610Y-13974174D01*
X13391610Y-13974174D02*
X13410658Y-13964650D01*
X13410658Y-13964650D02*
X13439229Y-13964650D01*
X13439229Y-13964650D02*
X13458277Y-13974174D01*
X13458277Y-13974174D02*
X13467801Y-13993222D01*
X13467801Y-13993222D02*
X13467801Y-14097984D01*
X13467801Y-13993222D02*
X13477324Y-13974174D01*
X13477324Y-13974174D02*
X13496372Y-13964650D01*
X13496372Y-13964650D02*
X13524943Y-13964650D01*
X13524943Y-13964650D02*
X13543991Y-13974174D01*
X13543991Y-13974174D02*
X13553515Y-13993222D01*
X13553515Y-13993222D02*
X13553515Y-14097984D01*
X13943991Y-13888460D02*
X13772563Y-14145603D01*
X14201134Y-13897984D02*
X14220182Y-13897984D01*
X14220182Y-13897984D02*
X14239229Y-13907508D01*
X14239229Y-13907508D02*
X14248753Y-13917031D01*
X14248753Y-13917031D02*
X14258277Y-13936079D01*
X14258277Y-13936079D02*
X14267801Y-13974174D01*
X14267801Y-13974174D02*
X14267801Y-14021793D01*
X14267801Y-14021793D02*
X14258277Y-14059888D01*
X14258277Y-14059888D02*
X14248753Y-14078936D01*
X14248753Y-14078936D02*
X14239229Y-14088460D01*
X14239229Y-14088460D02*
X14220182Y-14097984D01*
X14220182Y-14097984D02*
X14201134Y-14097984D01*
X14201134Y-14097984D02*
X14182086Y-14088460D01*
X14182086Y-14088460D02*
X14172563Y-14078936D01*
X14172563Y-14078936D02*
X14163039Y-14059888D01*
X14163039Y-14059888D02*
X14153515Y-14021793D01*
X14153515Y-14021793D02*
X14153515Y-13974174D01*
X14153515Y-13974174D02*
X14163039Y-13936079D01*
X14163039Y-13936079D02*
X14172563Y-13917031D01*
X14172563Y-13917031D02*
X14182086Y-13907508D01*
X14182086Y-13907508D02*
X14201134Y-13897984D01*
X14353515Y-14078936D02*
X14363039Y-14088460D01*
X14363039Y-14088460D02*
X14353515Y-14097984D01*
X14353515Y-14097984D02*
X14343991Y-14088460D01*
X14343991Y-14088460D02*
X14353515Y-14078936D01*
X14353515Y-14078936D02*
X14353515Y-14097984D01*
X14486848Y-13897984D02*
X14505896Y-13897984D01*
X14505896Y-13897984D02*
X14524944Y-13907508D01*
X14524944Y-13907508D02*
X14534467Y-13917031D01*
X14534467Y-13917031D02*
X14543991Y-13936079D01*
X14543991Y-13936079D02*
X14553515Y-13974174D01*
X14553515Y-13974174D02*
X14553515Y-14021793D01*
X14553515Y-14021793D02*
X14543991Y-14059888D01*
X14543991Y-14059888D02*
X14534467Y-14078936D01*
X14534467Y-14078936D02*
X14524944Y-14088460D01*
X14524944Y-14088460D02*
X14505896Y-14097984D01*
X14505896Y-14097984D02*
X14486848Y-14097984D01*
X14486848Y-14097984D02*
X14467801Y-14088460D01*
X14467801Y-14088460D02*
X14458277Y-14078936D01*
X14458277Y-14078936D02*
X14448753Y-14059888D01*
X14448753Y-14059888D02*
X14439229Y-14021793D01*
X14439229Y-14021793D02*
X14439229Y-13974174D01*
X14439229Y-13974174D02*
X14448753Y-13936079D01*
X14448753Y-13936079D02*
X14458277Y-13917031D01*
X14458277Y-13917031D02*
X14467801Y-13907508D01*
X14467801Y-13907508D02*
X14486848Y-13897984D01*
X14629706Y-13917031D02*
X14639229Y-13907508D01*
X14639229Y-13907508D02*
X14658277Y-13897984D01*
X14658277Y-13897984D02*
X14705896Y-13897984D01*
X14705896Y-13897984D02*
X14724944Y-13907508D01*
X14724944Y-13907508D02*
X14734467Y-13917031D01*
X14734467Y-13917031D02*
X14743991Y-13936079D01*
X14743991Y-13936079D02*
X14743991Y-13955127D01*
X14743991Y-13955127D02*
X14734467Y-13983698D01*
X14734467Y-13983698D02*
X14620182Y-14097984D01*
X14620182Y-14097984D02*
X14743991Y-14097984D01*
X14810658Y-13897984D02*
X14934467Y-13897984D01*
X14934467Y-13897984D02*
X14867801Y-13974174D01*
X14867801Y-13974174D02*
X14896372Y-13974174D01*
X14896372Y-13974174D02*
X14915420Y-13983698D01*
X14915420Y-13983698D02*
X14924944Y-13993222D01*
X14924944Y-13993222D02*
X14934467Y-14012269D01*
X14934467Y-14012269D02*
X14934467Y-14059888D01*
X14934467Y-14059888D02*
X14924944Y-14078936D01*
X14924944Y-14078936D02*
X14915420Y-14088460D01*
X14915420Y-14088460D02*
X14896372Y-14097984D01*
X14896372Y-14097984D02*
X14839229Y-14097984D01*
X14839229Y-14097984D02*
X14820182Y-14088460D01*
X14820182Y-14088460D02*
X14810658Y-14078936D01*
X15105896Y-13897984D02*
X15067801Y-13897984D01*
X15067801Y-13897984D02*
X15048753Y-13907508D01*
X15048753Y-13907508D02*
X15039229Y-13917031D01*
X15039229Y-13917031D02*
X15020182Y-13945603D01*
X15020182Y-13945603D02*
X15010658Y-13983698D01*
X15010658Y-13983698D02*
X15010658Y-14059888D01*
X15010658Y-14059888D02*
X15020182Y-14078936D01*
X15020182Y-14078936D02*
X15029706Y-14088460D01*
X15029706Y-14088460D02*
X15048753Y-14097984D01*
X15048753Y-14097984D02*
X15086848Y-14097984D01*
X15086848Y-14097984D02*
X15105896Y-14088460D01*
X15105896Y-14088460D02*
X15115420Y-14078936D01*
X15115420Y-14078936D02*
X15124944Y-14059888D01*
X15124944Y-14059888D02*
X15124944Y-14012269D01*
X15124944Y-14012269D02*
X15115420Y-13993222D01*
X15115420Y-13993222D02*
X15105896Y-13983698D01*
X15105896Y-13983698D02*
X15086848Y-13974174D01*
X15086848Y-13974174D02*
X15048753Y-13974174D01*
X15048753Y-13974174D02*
X15029706Y-13983698D01*
X15029706Y-13983698D02*
X15020182Y-13993222D01*
X15020182Y-13993222D02*
X15010658Y-14012269D01*
X15201134Y-13897984D02*
X15201134Y-13936079D01*
X15277325Y-13897984D02*
X15277325Y-13936079D01*
X15572563Y-14174174D02*
X15563039Y-14164650D01*
X15563039Y-14164650D02*
X15543991Y-14136079D01*
X15543991Y-14136079D02*
X15534468Y-14117031D01*
X15534468Y-14117031D02*
X15524944Y-14088460D01*
X15524944Y-14088460D02*
X15515420Y-14040841D01*
X15515420Y-14040841D02*
X15515420Y-14002746D01*
X15515420Y-14002746D02*
X15524944Y-13955127D01*
X15524944Y-13955127D02*
X15534468Y-13926555D01*
X15534468Y-13926555D02*
X15543991Y-13907508D01*
X15543991Y-13907508D02*
X15563039Y-13878936D01*
X15563039Y-13878936D02*
X15572563Y-13869412D01*
X15686848Y-13897984D02*
X15705896Y-13897984D01*
X15705896Y-13897984D02*
X15724944Y-13907508D01*
X15724944Y-13907508D02*
X15734468Y-13917031D01*
X15734468Y-13917031D02*
X15743991Y-13936079D01*
X15743991Y-13936079D02*
X15753515Y-13974174D01*
X15753515Y-13974174D02*
X15753515Y-14021793D01*
X15753515Y-14021793D02*
X15743991Y-14059888D01*
X15743991Y-14059888D02*
X15734468Y-14078936D01*
X15734468Y-14078936D02*
X15724944Y-14088460D01*
X15724944Y-14088460D02*
X15705896Y-14097984D01*
X15705896Y-14097984D02*
X15686848Y-14097984D01*
X15686848Y-14097984D02*
X15667801Y-14088460D01*
X15667801Y-14088460D02*
X15658277Y-14078936D01*
X15658277Y-14078936D02*
X15648753Y-14059888D01*
X15648753Y-14059888D02*
X15639229Y-14021793D01*
X15639229Y-14021793D02*
X15639229Y-13974174D01*
X15639229Y-13974174D02*
X15648753Y-13936079D01*
X15648753Y-13936079D02*
X15658277Y-13917031D01*
X15658277Y-13917031D02*
X15667801Y-13907508D01*
X15667801Y-13907508D02*
X15686848Y-13897984D01*
X15991610Y-14097984D02*
X15991610Y-13897984D01*
X16077325Y-14097984D02*
X16077325Y-13993222D01*
X16077325Y-13993222D02*
X16067801Y-13974174D01*
X16067801Y-13974174D02*
X16048753Y-13964650D01*
X16048753Y-13964650D02*
X16020182Y-13964650D01*
X16020182Y-13964650D02*
X16001134Y-13974174D01*
X16001134Y-13974174D02*
X15991610Y-13983698D01*
X16201134Y-14097984D02*
X16182087Y-14088460D01*
X16182087Y-14088460D02*
X16172563Y-14078936D01*
X16172563Y-14078936D02*
X16163039Y-14059888D01*
X16163039Y-14059888D02*
X16163039Y-14002746D01*
X16163039Y-14002746D02*
X16172563Y-13983698D01*
X16172563Y-13983698D02*
X16182087Y-13974174D01*
X16182087Y-13974174D02*
X16201134Y-13964650D01*
X16201134Y-13964650D02*
X16229706Y-13964650D01*
X16229706Y-13964650D02*
X16248753Y-13974174D01*
X16248753Y-13974174D02*
X16258277Y-13983698D01*
X16258277Y-13983698D02*
X16267801Y-14002746D01*
X16267801Y-14002746D02*
X16267801Y-14059888D01*
X16267801Y-14059888D02*
X16258277Y-14078936D01*
X16258277Y-14078936D02*
X16248753Y-14088460D01*
X16248753Y-14088460D02*
X16229706Y-14097984D01*
X16229706Y-14097984D02*
X16201134Y-14097984D01*
X16382087Y-14097984D02*
X16363039Y-14088460D01*
X16363039Y-14088460D02*
X16353515Y-14069412D01*
X16353515Y-14069412D02*
X16353515Y-13897984D01*
X16534468Y-14088460D02*
X16515420Y-14097984D01*
X16515420Y-14097984D02*
X16477325Y-14097984D01*
X16477325Y-14097984D02*
X16458277Y-14088460D01*
X16458277Y-14088460D02*
X16448753Y-14069412D01*
X16448753Y-14069412D02*
X16448753Y-13993222D01*
X16448753Y-13993222D02*
X16458277Y-13974174D01*
X16458277Y-13974174D02*
X16477325Y-13964650D01*
X16477325Y-13964650D02*
X16515420Y-13964650D01*
X16515420Y-13964650D02*
X16534468Y-13974174D01*
X16534468Y-13974174D02*
X16543991Y-13993222D01*
X16543991Y-13993222D02*
X16543991Y-14012269D01*
X16543991Y-14012269D02*
X16448753Y-14031317D01*
X16620182Y-14088460D02*
X16639230Y-14097984D01*
X16639230Y-14097984D02*
X16677325Y-14097984D01*
X16677325Y-14097984D02*
X16696372Y-14088460D01*
X16696372Y-14088460D02*
X16705896Y-14069412D01*
X16705896Y-14069412D02*
X16705896Y-14059888D01*
X16705896Y-14059888D02*
X16696372Y-14040841D01*
X16696372Y-14040841D02*
X16677325Y-14031317D01*
X16677325Y-14031317D02*
X16648753Y-14031317D01*
X16648753Y-14031317D02*
X16629706Y-14021793D01*
X16629706Y-14021793D02*
X16620182Y-14002746D01*
X16620182Y-14002746D02*
X16620182Y-13993222D01*
X16620182Y-13993222D02*
X16629706Y-13974174D01*
X16629706Y-13974174D02*
X16648753Y-13964650D01*
X16648753Y-13964650D02*
X16677325Y-13964650D01*
X16677325Y-13964650D02*
X16696372Y-13974174D01*
X16943992Y-14021793D02*
X17096373Y-14021793D01*
X17020182Y-14097984D02*
X17020182Y-13945603D01*
X17429706Y-13964650D02*
X17429706Y-14097984D01*
X17382087Y-13888460D02*
X17334468Y-14031317D01*
X17334468Y-14031317D02*
X17458277Y-14031317D01*
X17677325Y-14088460D02*
X17696373Y-14097984D01*
X17696373Y-14097984D02*
X17734468Y-14097984D01*
X17734468Y-14097984D02*
X17753516Y-14088460D01*
X17753516Y-14088460D02*
X17763039Y-14069412D01*
X17763039Y-14069412D02*
X17763039Y-14059888D01*
X17763039Y-14059888D02*
X17753516Y-14040841D01*
X17753516Y-14040841D02*
X17734468Y-14031317D01*
X17734468Y-14031317D02*
X17705896Y-14031317D01*
X17705896Y-14031317D02*
X17686849Y-14021793D01*
X17686849Y-14021793D02*
X17677325Y-14002746D01*
X17677325Y-14002746D02*
X17677325Y-13993222D01*
X17677325Y-13993222D02*
X17686849Y-13974174D01*
X17686849Y-13974174D02*
X17705896Y-13964650D01*
X17705896Y-13964650D02*
X17734468Y-13964650D01*
X17734468Y-13964650D02*
X17753516Y-13974174D01*
X17877325Y-14097984D02*
X17858277Y-14088460D01*
X17858277Y-14088460D02*
X17848754Y-14069412D01*
X17848754Y-14069412D02*
X17848754Y-13897984D01*
X17982087Y-14097984D02*
X17963039Y-14088460D01*
X17963039Y-14088460D02*
X17953516Y-14078936D01*
X17953516Y-14078936D02*
X17943992Y-14059888D01*
X17943992Y-14059888D02*
X17943992Y-14002746D01*
X17943992Y-14002746D02*
X17953516Y-13983698D01*
X17953516Y-13983698D02*
X17963039Y-13974174D01*
X17963039Y-13974174D02*
X17982087Y-13964650D01*
X17982087Y-13964650D02*
X18010658Y-13964650D01*
X18010658Y-13964650D02*
X18029706Y-13974174D01*
X18029706Y-13974174D02*
X18039230Y-13983698D01*
X18039230Y-13983698D02*
X18048754Y-14002746D01*
X18048754Y-14002746D02*
X18048754Y-14059888D01*
X18048754Y-14059888D02*
X18039230Y-14078936D01*
X18039230Y-14078936D02*
X18029706Y-14088460D01*
X18029706Y-14088460D02*
X18010658Y-14097984D01*
X18010658Y-14097984D02*
X17982087Y-14097984D01*
X18105897Y-13964650D02*
X18182087Y-13964650D01*
X18134468Y-13897984D02*
X18134468Y-14069412D01*
X18134468Y-14069412D02*
X18143992Y-14088460D01*
X18143992Y-14088460D02*
X18163039Y-14097984D01*
X18163039Y-14097984D02*
X18182087Y-14097984D01*
X18239230Y-14088460D02*
X18258277Y-14097984D01*
X18258277Y-14097984D02*
X18296373Y-14097984D01*
X18296373Y-14097984D02*
X18315420Y-14088460D01*
X18315420Y-14088460D02*
X18324944Y-14069412D01*
X18324944Y-14069412D02*
X18324944Y-14059888D01*
X18324944Y-14059888D02*
X18315420Y-14040841D01*
X18315420Y-14040841D02*
X18296373Y-14031317D01*
X18296373Y-14031317D02*
X18267801Y-14031317D01*
X18267801Y-14031317D02*
X18248754Y-14021793D01*
X18248754Y-14021793D02*
X18239230Y-14002746D01*
X18239230Y-14002746D02*
X18239230Y-13993222D01*
X18239230Y-13993222D02*
X18248754Y-13974174D01*
X18248754Y-13974174D02*
X18267801Y-13964650D01*
X18267801Y-13964650D02*
X18296373Y-13964650D01*
X18296373Y-13964650D02*
X18315420Y-13974174D01*
X18391611Y-14174174D02*
X18401135Y-14164650D01*
X18401135Y-14164650D02*
X18420182Y-14136079D01*
X18420182Y-14136079D02*
X18429706Y-14117031D01*
X18429706Y-14117031D02*
X18439230Y-14088460D01*
X18439230Y-14088460D02*
X18448754Y-14040841D01*
X18448754Y-14040841D02*
X18448754Y-14002746D01*
X18448754Y-14002746D02*
X18439230Y-13955127D01*
X18439230Y-13955127D02*
X18429706Y-13926555D01*
X18429706Y-13926555D02*
X18420182Y-13907508D01*
X18420182Y-13907508D02*
X18401135Y-13878936D01*
X18401135Y-13878936D02*
X18391611Y-13869412D01*
D12*
X11947500Y-14220500D02*
X11947500Y-14320500D01*
X11897500Y-14270500D02*
X11997500Y-14270500D01*
D11*
X12363039Y-14361984D02*
X12248753Y-14361984D01*
X12305896Y-14361984D02*
X12305896Y-14161984D01*
X12305896Y-14161984D02*
X12286848Y-14190555D01*
X12286848Y-14190555D02*
X12267801Y-14209603D01*
X12267801Y-14209603D02*
X12248753Y-14219127D01*
X12448753Y-14342936D02*
X12458277Y-14352460D01*
X12458277Y-14352460D02*
X12448753Y-14361984D01*
X12448753Y-14361984D02*
X12439229Y-14352460D01*
X12439229Y-14352460D02*
X12448753Y-14342936D01*
X12448753Y-14342936D02*
X12448753Y-14361984D01*
X12582086Y-14161984D02*
X12601134Y-14161984D01*
X12601134Y-14161984D02*
X12620182Y-14171508D01*
X12620182Y-14171508D02*
X12629705Y-14181031D01*
X12629705Y-14181031D02*
X12639229Y-14200079D01*
X12639229Y-14200079D02*
X12648753Y-14238174D01*
X12648753Y-14238174D02*
X12648753Y-14285793D01*
X12648753Y-14285793D02*
X12639229Y-14323888D01*
X12639229Y-14323888D02*
X12629705Y-14342936D01*
X12629705Y-14342936D02*
X12620182Y-14352460D01*
X12620182Y-14352460D02*
X12601134Y-14361984D01*
X12601134Y-14361984D02*
X12582086Y-14361984D01*
X12582086Y-14361984D02*
X12563039Y-14352460D01*
X12563039Y-14352460D02*
X12553515Y-14342936D01*
X12553515Y-14342936D02*
X12543991Y-14323888D01*
X12543991Y-14323888D02*
X12534467Y-14285793D01*
X12534467Y-14285793D02*
X12534467Y-14238174D01*
X12534467Y-14238174D02*
X12543991Y-14200079D01*
X12543991Y-14200079D02*
X12553515Y-14181031D01*
X12553515Y-14181031D02*
X12563039Y-14171508D01*
X12563039Y-14171508D02*
X12582086Y-14161984D01*
X12772562Y-14161984D02*
X12791610Y-14161984D01*
X12791610Y-14161984D02*
X12810658Y-14171508D01*
X12810658Y-14171508D02*
X12820182Y-14181031D01*
X12820182Y-14181031D02*
X12829705Y-14200079D01*
X12829705Y-14200079D02*
X12839229Y-14238174D01*
X12839229Y-14238174D02*
X12839229Y-14285793D01*
X12839229Y-14285793D02*
X12829705Y-14323888D01*
X12829705Y-14323888D02*
X12820182Y-14342936D01*
X12820182Y-14342936D02*
X12810658Y-14352460D01*
X12810658Y-14352460D02*
X12791610Y-14361984D01*
X12791610Y-14361984D02*
X12772562Y-14361984D01*
X12772562Y-14361984D02*
X12753515Y-14352460D01*
X12753515Y-14352460D02*
X12743991Y-14342936D01*
X12743991Y-14342936D02*
X12734467Y-14323888D01*
X12734467Y-14323888D02*
X12724943Y-14285793D01*
X12724943Y-14285793D02*
X12724943Y-14238174D01*
X12724943Y-14238174D02*
X12734467Y-14200079D01*
X12734467Y-14200079D02*
X12743991Y-14181031D01*
X12743991Y-14181031D02*
X12753515Y-14171508D01*
X12753515Y-14171508D02*
X12772562Y-14161984D01*
X12963039Y-14161984D02*
X12982086Y-14161984D01*
X12982086Y-14161984D02*
X13001134Y-14171508D01*
X13001134Y-14171508D02*
X13010658Y-14181031D01*
X13010658Y-14181031D02*
X13020182Y-14200079D01*
X13020182Y-14200079D02*
X13029705Y-14238174D01*
X13029705Y-14238174D02*
X13029705Y-14285793D01*
X13029705Y-14285793D02*
X13020182Y-14323888D01*
X13020182Y-14323888D02*
X13010658Y-14342936D01*
X13010658Y-14342936D02*
X13001134Y-14352460D01*
X13001134Y-14352460D02*
X12982086Y-14361984D01*
X12982086Y-14361984D02*
X12963039Y-14361984D01*
X12963039Y-14361984D02*
X12943991Y-14352460D01*
X12943991Y-14352460D02*
X12934467Y-14342936D01*
X12934467Y-14342936D02*
X12924943Y-14323888D01*
X12924943Y-14323888D02*
X12915420Y-14285793D01*
X12915420Y-14285793D02*
X12915420Y-14238174D01*
X12915420Y-14238174D02*
X12924943Y-14200079D01*
X12924943Y-14200079D02*
X12934467Y-14181031D01*
X12934467Y-14181031D02*
X12943991Y-14171508D01*
X12943991Y-14171508D02*
X12963039Y-14161984D01*
X13115420Y-14361984D02*
X13115420Y-14228650D01*
X13115420Y-14247698D02*
X13124943Y-14238174D01*
X13124943Y-14238174D02*
X13143991Y-14228650D01*
X13143991Y-14228650D02*
X13172563Y-14228650D01*
X13172563Y-14228650D02*
X13191610Y-14238174D01*
X13191610Y-14238174D02*
X13201134Y-14257222D01*
X13201134Y-14257222D02*
X13201134Y-14361984D01*
X13201134Y-14257222D02*
X13210658Y-14238174D01*
X13210658Y-14238174D02*
X13229705Y-14228650D01*
X13229705Y-14228650D02*
X13258277Y-14228650D01*
X13258277Y-14228650D02*
X13277324Y-14238174D01*
X13277324Y-14238174D02*
X13286848Y-14257222D01*
X13286848Y-14257222D02*
X13286848Y-14361984D01*
X13382086Y-14361984D02*
X13382086Y-14228650D01*
X13382086Y-14247698D02*
X13391610Y-14238174D01*
X13391610Y-14238174D02*
X13410658Y-14228650D01*
X13410658Y-14228650D02*
X13439229Y-14228650D01*
X13439229Y-14228650D02*
X13458277Y-14238174D01*
X13458277Y-14238174D02*
X13467801Y-14257222D01*
X13467801Y-14257222D02*
X13467801Y-14361984D01*
X13467801Y-14257222D02*
X13477324Y-14238174D01*
X13477324Y-14238174D02*
X13496372Y-14228650D01*
X13496372Y-14228650D02*
X13524943Y-14228650D01*
X13524943Y-14228650D02*
X13543991Y-14238174D01*
X13543991Y-14238174D02*
X13553515Y-14257222D01*
X13553515Y-14257222D02*
X13553515Y-14361984D01*
X13943991Y-14152460D02*
X13772563Y-14409603D01*
X14201134Y-14161984D02*
X14220182Y-14161984D01*
X14220182Y-14161984D02*
X14239229Y-14171508D01*
X14239229Y-14171508D02*
X14248753Y-14181031D01*
X14248753Y-14181031D02*
X14258277Y-14200079D01*
X14258277Y-14200079D02*
X14267801Y-14238174D01*
X14267801Y-14238174D02*
X14267801Y-14285793D01*
X14267801Y-14285793D02*
X14258277Y-14323888D01*
X14258277Y-14323888D02*
X14248753Y-14342936D01*
X14248753Y-14342936D02*
X14239229Y-14352460D01*
X14239229Y-14352460D02*
X14220182Y-14361984D01*
X14220182Y-14361984D02*
X14201134Y-14361984D01*
X14201134Y-14361984D02*
X14182086Y-14352460D01*
X14182086Y-14352460D02*
X14172563Y-14342936D01*
X14172563Y-14342936D02*
X14163039Y-14323888D01*
X14163039Y-14323888D02*
X14153515Y-14285793D01*
X14153515Y-14285793D02*
X14153515Y-14238174D01*
X14153515Y-14238174D02*
X14163039Y-14200079D01*
X14163039Y-14200079D02*
X14172563Y-14181031D01*
X14172563Y-14181031D02*
X14182086Y-14171508D01*
X14182086Y-14171508D02*
X14201134Y-14161984D01*
X14353515Y-14342936D02*
X14363039Y-14352460D01*
X14363039Y-14352460D02*
X14353515Y-14361984D01*
X14353515Y-14361984D02*
X14343991Y-14352460D01*
X14343991Y-14352460D02*
X14353515Y-14342936D01*
X14353515Y-14342936D02*
X14353515Y-14361984D01*
X14486848Y-14161984D02*
X14505896Y-14161984D01*
X14505896Y-14161984D02*
X14524944Y-14171508D01*
X14524944Y-14171508D02*
X14534467Y-14181031D01*
X14534467Y-14181031D02*
X14543991Y-14200079D01*
X14543991Y-14200079D02*
X14553515Y-14238174D01*
X14553515Y-14238174D02*
X14553515Y-14285793D01*
X14553515Y-14285793D02*
X14543991Y-14323888D01*
X14543991Y-14323888D02*
X14534467Y-14342936D01*
X14534467Y-14342936D02*
X14524944Y-14352460D01*
X14524944Y-14352460D02*
X14505896Y-14361984D01*
X14505896Y-14361984D02*
X14486848Y-14361984D01*
X14486848Y-14361984D02*
X14467801Y-14352460D01*
X14467801Y-14352460D02*
X14458277Y-14342936D01*
X14458277Y-14342936D02*
X14448753Y-14323888D01*
X14448753Y-14323888D02*
X14439229Y-14285793D01*
X14439229Y-14285793D02*
X14439229Y-14238174D01*
X14439229Y-14238174D02*
X14448753Y-14200079D01*
X14448753Y-14200079D02*
X14458277Y-14181031D01*
X14458277Y-14181031D02*
X14467801Y-14171508D01*
X14467801Y-14171508D02*
X14486848Y-14161984D01*
X14620182Y-14161984D02*
X14743991Y-14161984D01*
X14743991Y-14161984D02*
X14677325Y-14238174D01*
X14677325Y-14238174D02*
X14705896Y-14238174D01*
X14705896Y-14238174D02*
X14724944Y-14247698D01*
X14724944Y-14247698D02*
X14734467Y-14257222D01*
X14734467Y-14257222D02*
X14743991Y-14276269D01*
X14743991Y-14276269D02*
X14743991Y-14323888D01*
X14743991Y-14323888D02*
X14734467Y-14342936D01*
X14734467Y-14342936D02*
X14724944Y-14352460D01*
X14724944Y-14352460D02*
X14705896Y-14361984D01*
X14705896Y-14361984D02*
X14648753Y-14361984D01*
X14648753Y-14361984D02*
X14629706Y-14352460D01*
X14629706Y-14352460D02*
X14620182Y-14342936D01*
X14839229Y-14361984D02*
X14877325Y-14361984D01*
X14877325Y-14361984D02*
X14896372Y-14352460D01*
X14896372Y-14352460D02*
X14905896Y-14342936D01*
X14905896Y-14342936D02*
X14924944Y-14314365D01*
X14924944Y-14314365D02*
X14934467Y-14276269D01*
X14934467Y-14276269D02*
X14934467Y-14200079D01*
X14934467Y-14200079D02*
X14924944Y-14181031D01*
X14924944Y-14181031D02*
X14915420Y-14171508D01*
X14915420Y-14171508D02*
X14896372Y-14161984D01*
X14896372Y-14161984D02*
X14858277Y-14161984D01*
X14858277Y-14161984D02*
X14839229Y-14171508D01*
X14839229Y-14171508D02*
X14829706Y-14181031D01*
X14829706Y-14181031D02*
X14820182Y-14200079D01*
X14820182Y-14200079D02*
X14820182Y-14247698D01*
X14820182Y-14247698D02*
X14829706Y-14266746D01*
X14829706Y-14266746D02*
X14839229Y-14276269D01*
X14839229Y-14276269D02*
X14858277Y-14285793D01*
X14858277Y-14285793D02*
X14896372Y-14285793D01*
X14896372Y-14285793D02*
X14915420Y-14276269D01*
X14915420Y-14276269D02*
X14924944Y-14266746D01*
X14924944Y-14266746D02*
X14934467Y-14247698D01*
X15105896Y-14228650D02*
X15105896Y-14361984D01*
X15058277Y-14152460D02*
X15010658Y-14295317D01*
X15010658Y-14295317D02*
X15134467Y-14295317D01*
X15201134Y-14161984D02*
X15201134Y-14200079D01*
X15277325Y-14161984D02*
X15277325Y-14200079D01*
X15572563Y-14438174D02*
X15563039Y-14428650D01*
X15563039Y-14428650D02*
X15543991Y-14400079D01*
X15543991Y-14400079D02*
X15534468Y-14381031D01*
X15534468Y-14381031D02*
X15524944Y-14352460D01*
X15524944Y-14352460D02*
X15515420Y-14304841D01*
X15515420Y-14304841D02*
X15515420Y-14266746D01*
X15515420Y-14266746D02*
X15524944Y-14219127D01*
X15524944Y-14219127D02*
X15534468Y-14190555D01*
X15534468Y-14190555D02*
X15543991Y-14171508D01*
X15543991Y-14171508D02*
X15563039Y-14142936D01*
X15563039Y-14142936D02*
X15572563Y-14133412D01*
X15734468Y-14228650D02*
X15734468Y-14361984D01*
X15686848Y-14152460D02*
X15639229Y-14295317D01*
X15639229Y-14295317D02*
X15763039Y-14295317D01*
X15820182Y-14161984D02*
X15943991Y-14161984D01*
X15943991Y-14161984D02*
X15877325Y-14238174D01*
X15877325Y-14238174D02*
X15905896Y-14238174D01*
X15905896Y-14238174D02*
X15924944Y-14247698D01*
X15924944Y-14247698D02*
X15934468Y-14257222D01*
X15934468Y-14257222D02*
X15943991Y-14276269D01*
X15943991Y-14276269D02*
X15943991Y-14323888D01*
X15943991Y-14323888D02*
X15934468Y-14342936D01*
X15934468Y-14342936D02*
X15924944Y-14352460D01*
X15924944Y-14352460D02*
X15905896Y-14361984D01*
X15905896Y-14361984D02*
X15848753Y-14361984D01*
X15848753Y-14361984D02*
X15829706Y-14352460D01*
X15829706Y-14352460D02*
X15820182Y-14342936D01*
X16182087Y-14361984D02*
X16182087Y-14161984D01*
X16267801Y-14361984D02*
X16267801Y-14257222D01*
X16267801Y-14257222D02*
X16258277Y-14238174D01*
X16258277Y-14238174D02*
X16239230Y-14228650D01*
X16239230Y-14228650D02*
X16210658Y-14228650D01*
X16210658Y-14228650D02*
X16191610Y-14238174D01*
X16191610Y-14238174D02*
X16182087Y-14247698D01*
X16391610Y-14361984D02*
X16372563Y-14352460D01*
X16372563Y-14352460D02*
X16363039Y-14342936D01*
X16363039Y-14342936D02*
X16353515Y-14323888D01*
X16353515Y-14323888D02*
X16353515Y-14266746D01*
X16353515Y-14266746D02*
X16363039Y-14247698D01*
X16363039Y-14247698D02*
X16372563Y-14238174D01*
X16372563Y-14238174D02*
X16391610Y-14228650D01*
X16391610Y-14228650D02*
X16420182Y-14228650D01*
X16420182Y-14228650D02*
X16439230Y-14238174D01*
X16439230Y-14238174D02*
X16448753Y-14247698D01*
X16448753Y-14247698D02*
X16458277Y-14266746D01*
X16458277Y-14266746D02*
X16458277Y-14323888D01*
X16458277Y-14323888D02*
X16448753Y-14342936D01*
X16448753Y-14342936D02*
X16439230Y-14352460D01*
X16439230Y-14352460D02*
X16420182Y-14361984D01*
X16420182Y-14361984D02*
X16391610Y-14361984D01*
X16572563Y-14361984D02*
X16553515Y-14352460D01*
X16553515Y-14352460D02*
X16543991Y-14333412D01*
X16543991Y-14333412D02*
X16543991Y-14161984D01*
X16724944Y-14352460D02*
X16705896Y-14361984D01*
X16705896Y-14361984D02*
X16667801Y-14361984D01*
X16667801Y-14361984D02*
X16648753Y-14352460D01*
X16648753Y-14352460D02*
X16639230Y-14333412D01*
X16639230Y-14333412D02*
X16639230Y-14257222D01*
X16639230Y-14257222D02*
X16648753Y-14238174D01*
X16648753Y-14238174D02*
X16667801Y-14228650D01*
X16667801Y-14228650D02*
X16705896Y-14228650D01*
X16705896Y-14228650D02*
X16724944Y-14238174D01*
X16724944Y-14238174D02*
X16734468Y-14257222D01*
X16734468Y-14257222D02*
X16734468Y-14276269D01*
X16734468Y-14276269D02*
X16639230Y-14295317D01*
X16810658Y-14352460D02*
X16829706Y-14361984D01*
X16829706Y-14361984D02*
X16867801Y-14361984D01*
X16867801Y-14361984D02*
X16886849Y-14352460D01*
X16886849Y-14352460D02*
X16896373Y-14333412D01*
X16896373Y-14333412D02*
X16896373Y-14323888D01*
X16896373Y-14323888D02*
X16886849Y-14304841D01*
X16886849Y-14304841D02*
X16867801Y-14295317D01*
X16867801Y-14295317D02*
X16839230Y-14295317D01*
X16839230Y-14295317D02*
X16820182Y-14285793D01*
X16820182Y-14285793D02*
X16810658Y-14266746D01*
X16810658Y-14266746D02*
X16810658Y-14257222D01*
X16810658Y-14257222D02*
X16820182Y-14238174D01*
X16820182Y-14238174D02*
X16839230Y-14228650D01*
X16839230Y-14228650D02*
X16867801Y-14228650D01*
X16867801Y-14228650D02*
X16886849Y-14238174D01*
X16963039Y-14438174D02*
X16972563Y-14428650D01*
X16972563Y-14428650D02*
X16991611Y-14400079D01*
X16991611Y-14400079D02*
X17001134Y-14381031D01*
X17001134Y-14381031D02*
X17010658Y-14352460D01*
X17010658Y-14352460D02*
X17020182Y-14304841D01*
X17020182Y-14304841D02*
X17020182Y-14266746D01*
X17020182Y-14266746D02*
X17010658Y-14219127D01*
X17010658Y-14219127D02*
X17001134Y-14190555D01*
X17001134Y-14190555D02*
X16991611Y-14171508D01*
X16991611Y-14171508D02*
X16972563Y-14142936D01*
X16972563Y-14142936D02*
X16963039Y-14133412D01*
M02*
