  0
SECTION
  2
HEADER
  9
$ANGBASE
  50
0.0
  9
$ANGDIR
  70
1
  9
$MEASUREMENT
  70
1
  9
$INSUNITS
  70
4
  0
ENDSEC
  0
SECTION
  2
TABLES
  0
TABLE
  2
LTYPE
  70
4
  0
LTYPE
  5
40F
  2
CONTINUOUS
  70
0
  3
Solid line
  72
65
  73
0
  40
0.0
  0
LTYPE
  5
410
  2
DASHDOT
 70
0
  3
Dash Dot ____ _ ____ _
 72
65
 73
4
 40
2.0
 49
1.25
 49
-0.25
 49
0.25
 49
-0.25
  0
LTYPE
  5
411
  2
DASHED
 70
0
  3
Dashed __ __ __ __ __
 72
65
 73
2
 40
0.75
 49
0.5
 49
-0.25
  0
LTYPE
  5
43B
  2
DOTTED
 70
0
  3
Dotted .  .  .  .
 72
65
 73
2
 40
0.2
 49
0.0
 49
-0.2
  0
ENDTAB
  0
TABLE
  2
STYLE
  70
4
  0
STYLE
  2
KICAD
  70
0
  40
0
  41
1
  42
1
  50
0
  71
0
  3
isocp.shx
  0
STYLE
  2
KICADB
  70
0
  40
0
  41
1
  42
1
  50
0
  71
0
  3
isocp.shx
  0
STYLE
  2
KICADI
  70
0
  40
0
  41
1
  42
1
  50
15
  71
0
  3
isocp.shx
  0
STYLE
  2
KICADBI
  70
0
  40
0
  41
1
  42
1
  50
15
  71
0
  3
isocp.shx
  0
ENDTAB
  0
TABLE
  2
LAYER
  70
1
  0
LAYER
  2
BLACK
  70
0
  62
250
  6
CONTINUOUS
  0
ENDTAB
  0
ENDSEC
  0
SECTION
  2
ENTITIES
0
LINE
8
BLACK
6
CONTINUOUS
10
120.
20
-80.
11
141.
21
-80.
0
LINE
8
BLACK
6
CONTINUOUS
10
141.
20
-80.
11
141.
21
-131.
0
LINE
8
BLACK
6
CONTINUOUS
10
141.
20
-131.
11
120.
21
-131.
0
LINE
8
BLACK
6
CONTINUOUS
10
120.
20
-131.
11
120.
21
-80.
0
LINE
8
BLACK
6
CONTINUOUS
10
127.2849999999999966
20
-84.7749999999999915
11
127.9349999999999881
21
-85.4249999999999972
0
LINE
8
BLACK
6
CONTINUOUS
10
127.9349999999999881
20
-84.7749999999999915
11
127.2849999999999966
21
-85.4249999999999972
0
LINE
8
BLACK
6
CONTINUOUS
10
133.0649999999999977
20
-84.7749999999999915
11
133.7150000000000034
21
-85.4249999999999972
0
LINE
8
BLACK
6
CONTINUOUS
10
133.7150000000000034
20
-84.7749999999999915
11
133.0649999999999977
21
-85.4249999999999972
0
LINE
8
BLACK
6
CONTINUOUS
10
122.5827680000000015
20
-134.1398379999999975
11
122.5827680000000015
21
-132.1398379999999975
0
LINE
8
BLACK
6
CONTINUOUS
10
122.5827680000000015
20
-132.1398379999999975
11
123.0589579999999899
21
-132.1398379999999975
0
LINE
8
BLACK
6
CONTINUOUS
10
123.0589579999999899
20
-132.1398379999999975
11
123.3446730000000002
21
-132.2350759999999923
0
LINE
8
BLACK
6
CONTINUOUS
10
123.3446730000000002
20
-132.2350759999999923
11
123.5351489999999899
21
-132.4255519999999819
0
LINE
8
BLACK
6
CONTINUOUS
10
123.5351489999999899
20
-132.4255519999999819
11
123.6303869999999989
21
-132.616028
0
LINE
8
BLACK
6
CONTINUOUS
10
123.6303869999999989
20
-132.616028
11
123.7256249999999937
21
-132.9969800000000077
0
LINE
8
BLACK
6
CONTINUOUS
10
123.7256249999999937
20
-132.9969800000000077
11
123.7256249999999937
21
-133.2826949999999897
0
LINE
8
BLACK
6
CONTINUOUS
10
123.7256249999999937
20
-133.2826949999999897
11
123.6303869999999989
21
-133.6636469999999974
0
LINE
8
BLACK
6
CONTINUOUS
10
123.6303869999999989
20
-133.6636469999999974
11
123.5351489999999899
21
-133.8541229999999871
0
LINE
8
BLACK
6
CONTINUOUS
10
123.5351489999999899
20
-133.8541229999999871
11
123.3446730000000002
21
-134.0446000000000026
0
LINE
8
BLACK
6
CONTINUOUS
10
123.3446730000000002
20
-134.0446000000000026
11
123.0589579999999899
21
-134.1398379999999975
0
LINE
8
BLACK
6
CONTINUOUS
10
123.0589579999999899
20
-134.1398379999999975
11
122.5827680000000015
21
-134.1398379999999975
0
LINE
8
BLACK
6
CONTINUOUS
10
124.5827679999999873
20
-134.1398379999999975
11
124.5827679999999873
21
-132.8065039999999897
0
LINE
8
BLACK
6
CONTINUOUS
10
124.5827679999999873
20
-133.1874569999999949
11
124.6780059999999963
21
-132.9969800000000077
0
LINE
8
BLACK
6
CONTINUOUS
10
124.6780059999999963
20
-132.9969800000000077
11
124.7732439999999912
21
-132.9017419999999845
0
LINE
8
BLACK
6
CONTINUOUS
10
124.7732439999999912
20
-132.9017419999999845
11
124.963719999999995
21
-132.8065039999999897
0
LINE
8
BLACK
6
CONTINUOUS
10
124.963719999999995
20
-132.8065039999999897
11
125.1541969999999964
21
-132.8065039999999897
0
LINE
8
BLACK
6
CONTINUOUS
10
125.8208629999999886
20
-134.1398379999999975
11
125.8208629999999886
21
-132.8065039999999897
0
LINE
8
BLACK
6
CONTINUOUS
10
125.8208629999999886
20
-132.1398379999999975
11
125.7256249999999937
21
-132.2350759999999923
0
LINE
8
BLACK
6
CONTINUOUS
10
125.7256249999999937
20
-132.2350759999999923
11
125.8208629999999886
21
-132.3303139999999871
0
LINE
8
BLACK
6
CONTINUOUS
10
125.8208629999999886
20
-132.3303139999999871
11
125.9161009999999976
21
-132.2350759999999923
0
LINE
8
BLACK
6
CONTINUOUS
10
125.9161009999999976
20
-132.2350759999999923
11
125.8208629999999886
21
-132.1398379999999975
0
LINE
8
BLACK
6
CONTINUOUS
10
125.8208629999999886
20
-132.1398379999999975
11
125.8208629999999886
21
-132.3303139999999871
0
LINE
8
BLACK
6
CONTINUOUS
10
127.0589579999999899
20
-134.1398379999999975
11
126.8684820000000002
21
-134.0446000000000026
0
LINE
8
BLACK
6
CONTINUOUS
10
126.8684820000000002
20
-134.0446000000000026
11
126.7732439999999912
21
-133.8541229999999871
0
LINE
8
BLACK
6
CONTINUOUS
10
126.7732439999999912
20
-133.8541229999999871
11
126.7732439999999912
21
-132.1398379999999975
0
LINE
8
BLACK
6
CONTINUOUS
10
128.1065769999999873
20
-134.1398379999999975
11
127.9161009999999976
21
-134.0446000000000026
0
LINE
8
BLACK
6
CONTINUOUS
10
127.9161009999999976
20
-134.0446000000000026
11
127.8208629999999886
21
-133.8541229999999871
0
LINE
8
BLACK
6
CONTINUOUS
10
127.8208629999999886
20
-133.8541229999999871
11
127.8208629999999886
21
-132.1398379999999975
0
LINE
8
BLACK
6
CONTINUOUS
10
130.3922919999999976
20
-134.1398379999999975
11
130.3922919999999976
21
-132.1398379999999975
0
LINE
8
BLACK
6
CONTINUOUS
10
130.3922919999999976
20
-132.1398379999999975
11
131.0589589999999873
21
-133.5684090000000026
0
LINE
8
BLACK
6
CONTINUOUS
10
131.0589589999999873
20
-133.5684090000000026
11
131.725625000000008
21
-132.1398379999999975
0
LINE
8
BLACK
6
CONTINUOUS
10
131.725625000000008
20
-132.1398379999999975
11
131.725625000000008
21
-134.1398379999999975
0
LINE
8
BLACK
6
CONTINUOUS
10
133.5351489999999899
20
-134.1398379999999975
11
133.5351489999999899
21
-133.0922190000000001
0
LINE
8
BLACK
6
CONTINUOUS
10
133.5351489999999899
20
-133.0922190000000001
11
133.4399109999999951
21
-132.9017419999999845
0
LINE
8
BLACK
6
CONTINUOUS
10
133.4399109999999951
20
-132.9017419999999845
11
133.2494350000000054
21
-132.8065039999999897
0
LINE
8
BLACK
6
CONTINUOUS
10
133.2494350000000054
20
-132.8065039999999897
11
132.8684820000000002
21
-132.8065039999999897
0
LINE
8
BLACK
6
CONTINUOUS
10
132.8684820000000002
20
-132.8065039999999897
11
132.6780059999999821
21
-132.9017419999999845
0
LINE
8
BLACK
6
CONTINUOUS
10
133.5351489999999899
20
-134.0446000000000026
11
133.3446730000000002
21
-134.1398379999999975
0
LINE
8
BLACK
6
CONTINUOUS
10
133.3446730000000002
20
-134.1398379999999975
11
132.8684820000000002
21
-134.1398379999999975
0
LINE
8
BLACK
6
CONTINUOUS
10
132.8684820000000002
20
-134.1398379999999975
11
132.6780059999999821
21
-134.0446000000000026
0
LINE
8
BLACK
6
CONTINUOUS
10
132.6780059999999821
20
-134.0446000000000026
11
132.5827679999999873
21
-133.8541229999999871
0
LINE
8
BLACK
6
CONTINUOUS
10
132.5827679999999873
20
-133.8541229999999871
11
132.5827679999999873
21
-133.6636469999999974
0
LINE
8
BLACK
6
CONTINUOUS
10
132.5827679999999873
20
-133.6636469999999974
11
132.6780059999999821
21
-133.4731710000000078
0
LINE
8
BLACK
6
CONTINUOUS
10
132.6780059999999821
20
-133.4731710000000078
11
132.8684820000000002
21
-133.3779329999999845
0
LINE
8
BLACK
6
CONTINUOUS
10
132.8684820000000002
20
-133.3779329999999845
11
133.3446730000000002
21
-133.3779329999999845
0
LINE
8
BLACK
6
CONTINUOUS
10
133.3446730000000002
20
-133.3779329999999845
11
133.5351489999999899
21
-133.2826949999999897
0
LINE
8
BLACK
6
CONTINUOUS
10
134.4875299999999925
20
-132.8065039999999897
11
134.4875299999999925
21
-134.8065039999999897
0
LINE
8
BLACK
6
CONTINUOUS
10
134.4875299999999925
20
-132.9017419999999845
11
134.6780059999999821
21
-132.8065039999999897
0
LINE
8
BLACK
6
CONTINUOUS
10
134.6780059999999821
20
-132.8065039999999897
11
135.0589589999999873
21
-132.8065039999999897
0
LINE
8
BLACK
6
CONTINUOUS
10
135.0589589999999873
20
-132.8065039999999897
11
135.2494350000000054
21
-132.9017419999999845
0
LINE
8
BLACK
6
CONTINUOUS
10
135.2494350000000054
20
-132.9017419999999845
11
135.3446730000000002
21
-132.9969800000000077
0
LINE
8
BLACK
6
CONTINUOUS
10
135.3446730000000002
20
-132.9969800000000077
11
135.4399109999999951
21
-133.1874569999999949
0
LINE
8
BLACK
6
CONTINUOUS
10
135.4399109999999951
20
-133.1874569999999949
11
135.4399109999999951
21
-133.7588849999999923
0
LINE
8
BLACK
6
CONTINUOUS
10
135.4399109999999951
20
-133.7588849999999923
11
135.3446730000000002
21
-133.9493609999999819
0
LINE
8
BLACK
6
CONTINUOUS
10
135.3446730000000002
20
-133.9493609999999819
11
135.2494350000000054
21
-134.0446000000000026
0
LINE
8
BLACK
6
CONTINUOUS
10
135.2494350000000054
20
-134.0446000000000026
11
135.0589589999999873
21
-134.1398379999999975
0
LINE
8
BLACK
6
CONTINUOUS
10
135.0589589999999873
20
-134.1398379999999975
11
134.6780059999999821
21
-134.1398379999999975
0
LINE
8
BLACK
6
CONTINUOUS
10
134.6780059999999821
20
-134.1398379999999975
11
134.4875299999999925
21
-134.0446000000000026
0
LINE
8
BLACK
6
CONTINUOUS
10
136.2970540000000028
20
-133.9493609999999819
11
136.3922919999999976
21
-134.0446000000000026
0
LINE
8
BLACK
6
CONTINUOUS
10
136.3922919999999976
20
-134.0446000000000026
11
136.2970540000000028
21
-134.1398379999999975
0
LINE
8
BLACK
6
CONTINUOUS
10
136.2970540000000028
20
-134.1398379999999975
11
136.201816000000008
21
-134.0446000000000026
0
LINE
8
BLACK
6
CONTINUOUS
10
136.201816000000008
20
-134.0446000000000026
11
136.2970540000000028
21
-133.9493609999999819
0
LINE
8
BLACK
6
CONTINUOUS
10
136.2970540000000028
20
-133.9493609999999819
11
136.2970540000000028
21
-134.1398379999999975
0
LINE
8
BLACK
6
CONTINUOUS
10
136.2970540000000028
20
-132.9017419999999845
11
136.3922919999999976
21
-132.9969800000000077
0
LINE
8
BLACK
6
CONTINUOUS
10
136.3922919999999976
20
-132.9969800000000077
11
136.2970540000000028
21
-133.0922190000000001
0
LINE
8
BLACK
6
CONTINUOUS
10
136.2970540000000028
20
-133.0922190000000001
11
136.201816000000008
21
-132.9969800000000077
0
LINE
8
BLACK
6
CONTINUOUS
10
136.201816000000008
20
-132.9969800000000077
11
136.2970540000000028
21
-132.9017419999999845
0
LINE
8
BLACK
6
CONTINUOUS
10
136.2970540000000028
20
-132.9017419999999845
11
136.2970540000000028
21
-133.0922190000000001
0
LINE
8
BLACK
6
CONTINUOUS
10
119.3249999999999886
20
-137.0999999999999943
11
119.9749999999999943
21
-137.75
0
LINE
8
BLACK
6
CONTINUOUS
10
119.9749999999999943
20
-137.0999999999999943
11
119.3249999999999886
21
-137.75
0
LINE
8
BLACK
6
CONTINUOUS
10
122.963719999999995
20
-136.3398379999999861
11
123.1541969999999964
21
-136.3398379999999861
0
LINE
8
BLACK
6
CONTINUOUS
10
123.1541969999999964
20
-136.3398379999999861
11
123.3446730000000002
21
-136.4350759999999809
0
LINE
8
BLACK
6
CONTINUOUS
10
123.3446730000000002
20
-136.4350759999999809
11
123.4399109999999951
21
-136.5303140000000042
0
LINE
8
BLACK
6
CONTINUOUS
10
123.4399109999999951
20
-136.5303140000000042
11
123.5351489999999899
21
-136.7207899999999938
0
LINE
8
BLACK
6
CONTINUOUS
10
123.5351489999999899
20
-136.7207899999999938
11
123.6303869999999989
21
-137.1017420000000016
0
LINE
8
BLACK
6
CONTINUOUS
10
123.6303869999999989
20
-137.1017420000000016
11
123.6303869999999989
21
-137.5779330000000016
0
LINE
8
BLACK
6
CONTINUOUS
10
123.6303869999999989
20
-137.5779330000000016
11
123.5351489999999899
21
-137.9588849999999809
0
LINE
8
BLACK
6
CONTINUOUS
10
123.5351489999999899
20
-137.9588849999999809
11
123.4399109999999951
21
-138.149360999999999
0
LINE
8
BLACK
6
CONTINUOUS
10
123.4399109999999951
20
-138.149360999999999
11
123.3446730000000002
21
-138.2445999999999913
0
LINE
8
BLACK
6
CONTINUOUS
10
123.3446730000000002
20
-138.2445999999999913
11
123.1541969999999964
21
-138.3398379999999861
0
LINE
8
BLACK
6
CONTINUOUS
10
123.1541969999999964
20
-138.3398379999999861
11
122.963719999999995
21
-138.3398379999999861
0
LINE
8
BLACK
6
CONTINUOUS
10
122.963719999999995
20
-138.3398379999999861
11
122.7732439999999912
21
-138.2445999999999913
0
LINE
8
BLACK
6
CONTINUOUS
10
122.7732439999999912
20
-138.2445999999999913
11
122.6780059999999963
21
-138.149360999999999
0
LINE
8
BLACK
6
CONTINUOUS
10
122.6780059999999963
20
-138.149360999999999
11
122.5827680000000015
21
-137.9588849999999809
0
LINE
8
BLACK
6
CONTINUOUS
10
122.5827680000000015
20
-137.9588849999999809
11
122.4875299999999925
21
-137.5779330000000016
0
LINE
8
BLACK
6
CONTINUOUS
10
122.4875299999999925
20
-137.5779330000000016
11
122.4875299999999925
21
-137.1017420000000016
0
LINE
8
BLACK
6
CONTINUOUS
10
122.4875299999999925
20
-137.1017420000000016
11
122.5827680000000015
21
-136.7207899999999938
0
LINE
8
BLACK
6
CONTINUOUS
10
122.5827680000000015
20
-136.7207899999999938
11
122.6780059999999963
21
-136.5303140000000042
0
LINE
8
BLACK
6
CONTINUOUS
10
122.6780059999999963
20
-136.5303140000000042
11
122.7732439999999912
21
-136.4350759999999809
0
LINE
8
BLACK
6
CONTINUOUS
10
122.7732439999999912
20
-136.4350759999999809
11
122.963719999999995
21
-136.3398379999999861
0
LINE
8
BLACK
6
CONTINUOUS
10
124.4875299999999925
20
-138.149360999999999
11
124.5827679999999873
21
-138.2445999999999913
0
LINE
8
BLACK
6
CONTINUOUS
10
124.5827679999999873
20
-138.2445999999999913
11
124.4875299999999925
21
-138.3398379999999861
0
LINE
8
BLACK
6
CONTINUOUS
10
124.4875299999999925
20
-138.3398379999999861
11
124.3922919999999976
21
-138.2445999999999913
0
LINE
8
BLACK
6
CONTINUOUS
10
124.3922919999999976
20
-138.2445999999999913
11
124.4875299999999925
21
-138.149360999999999
0
LINE
8
BLACK
6
CONTINUOUS
10
124.4875299999999925
20
-138.149360999999999
11
124.4875299999999925
21
-138.3398379999999861
0
LINE
8
BLACK
6
CONTINUOUS
10
126.2970539999999886
20
-136.3398379999999861
11
125.9161009999999976
21
-136.3398379999999861
0
LINE
8
BLACK
6
CONTINUOUS
10
125.9161009999999976
20
-136.3398379999999861
11
125.7256249999999937
21
-136.4350759999999809
0
LINE
8
BLACK
6
CONTINUOUS
10
125.7256249999999937
20
-136.4350759999999809
11
125.6303869999999989
21
-136.5303140000000042
0
LINE
8
BLACK
6
CONTINUOUS
10
125.6303869999999989
20
-136.5303140000000042
11
125.4399109999999951
21
-136.8160279999999887
0
LINE
8
BLACK
6
CONTINUOUS
10
125.4399109999999951
20
-136.8160279999999887
11
125.3446730000000002
21
-137.1969799999999964
0
LINE
8
BLACK
6
CONTINUOUS
10
125.3446730000000002
20
-137.1969799999999964
11
125.3446730000000002
21
-137.9588849999999809
0
LINE
8
BLACK
6
CONTINUOUS
10
125.3446730000000002
20
-137.9588849999999809
11
125.4399109999999951
21
-138.149360999999999
0
LINE
8
BLACK
6
CONTINUOUS
10
125.4399109999999951
20
-138.149360999999999
11
125.5351489999999899
21
-138.2445999999999913
0
LINE
8
BLACK
6
CONTINUOUS
10
125.5351489999999899
20
-138.2445999999999913
11
125.7256249999999937
21
-138.3398379999999861
0
LINE
8
BLACK
6
CONTINUOUS
10
125.7256249999999937
20
-138.3398379999999861
11
126.106577999999999
21
-138.3398379999999861
0
LINE
8
BLACK
6
CONTINUOUS
10
126.106577999999999
20
-138.3398379999999861
11
126.2970539999999886
21
-138.2445999999999913
0
LINE
8
BLACK
6
CONTINUOUS
10
126.2970539999999886
20
-138.2445999999999913
11
126.3922919999999976
21
-138.149360999999999
0
LINE
8
BLACK
6
CONTINUOUS
10
126.3922919999999976
20
-138.149360999999999
11
126.4875299999999925
21
-137.9588849999999809
0
LINE
8
BLACK
6
CONTINUOUS
10
126.4875299999999925
20
-137.9588849999999809
11
126.4875299999999925
21
-137.4826950000000068
0
LINE
8
BLACK
6
CONTINUOUS
10
126.4875299999999925
20
-137.4826950000000068
11
126.3922919999999976
21
-137.2922189999999887
0
LINE
8
BLACK
6
CONTINUOUS
10
126.3922919999999976
20
-137.2922189999999887
11
126.2970539999999886
21
-137.1969799999999964
0
LINE
8
BLACK
6
CONTINUOUS
10
126.2970539999999886
20
-137.1969799999999964
11
126.106577999999999
21
-137.1017420000000016
0
LINE
8
BLACK
6
CONTINUOUS
10
126.106577999999999
20
-137.1017420000000016
11
125.7256249999999937
21
-137.1017420000000016
0
LINE
8
BLACK
6
CONTINUOUS
10
125.7256249999999937
20
-137.1017420000000016
11
125.5351489999999899
21
-137.1969799999999964
0
LINE
8
BLACK
6
CONTINUOUS
10
125.5351489999999899
20
-137.1969799999999964
11
125.4399109999999951
21
-137.2922189999999887
0
LINE
8
BLACK
6
CONTINUOUS
10
125.4399109999999951
20
-137.2922189999999887
11
125.3446730000000002
21
-137.4826950000000068
0
LINE
8
BLACK
6
CONTINUOUS
10
128.2970540000000028
20
-136.3398379999999861
11
127.3446730000000002
21
-136.3398379999999861
0
LINE
8
BLACK
6
CONTINUOUS
10
127.3446730000000002
20
-136.3398379999999861
11
127.2494349999999912
21
-137.2922189999999887
0
LINE
8
BLACK
6
CONTINUOUS
10
127.2494349999999912
20
-137.2922189999999887
11
127.3446730000000002
21
-137.1969799999999964
0
LINE
8
BLACK
6
CONTINUOUS
10
127.3446730000000002
20
-137.1969799999999964
11
127.5351489999999899
21
-137.1017420000000016
0
LINE
8
BLACK
6
CONTINUOUS
10
127.5351489999999899
20
-137.1017420000000016
11
128.0113399999999899
21
-137.1017420000000016
0
LINE
8
BLACK
6
CONTINUOUS
10
128.0113399999999899
20
-137.1017420000000016
11
128.201816000000008
21
-137.1969799999999964
0
LINE
8
BLACK
6
CONTINUOUS
10
128.201816000000008
20
-137.1969799999999964
11
128.2970540000000028
21
-137.2922189999999887
0
LINE
8
BLACK
6
CONTINUOUS
10
128.2970540000000028
20
-137.2922189999999887
11
128.3922919999999976
21
-137.4826950000000068
0
LINE
8
BLACK
6
CONTINUOUS
10
128.3922919999999976
20
-137.4826950000000068
11
128.3922919999999976
21
-137.9588849999999809
0
LINE
8
BLACK
6
CONTINUOUS
10
128.3922919999999976
20
-137.9588849999999809
11
128.2970540000000028
21
-138.149360999999999
0
LINE
8
BLACK
6
CONTINUOUS
10
128.2970540000000028
20
-138.149360999999999
11
128.201816000000008
21
-138.2445999999999913
0
LINE
8
BLACK
6
CONTINUOUS
10
128.201816000000008
20
-138.2445999999999913
11
128.0113399999999899
21
-138.3398379999999861
0
LINE
8
BLACK
6
CONTINUOUS
10
128.0113399999999899
20
-138.3398379999999861
11
127.5351489999999899
21
-138.3398379999999861
0
LINE
8
BLACK
6
CONTINUOUS
10
127.5351489999999899
20
-138.3398379999999861
11
127.3446730000000002
21
-138.2445999999999913
0
LINE
8
BLACK
6
CONTINUOUS
10
127.3446730000000002
20
-138.2445999999999913
11
127.2494349999999912
21
-138.149360999999999
0
LINE
8
BLACK
6
CONTINUOUS
10
129.6303869999999847
20
-136.3398379999999861
11
129.8208640000000003
21
-136.3398379999999861
0
LINE
8
BLACK
6
CONTINUOUS
10
129.8208640000000003
20
-136.3398379999999861
11
130.0113399999999899
21
-136.4350759999999809
0
LINE
8
BLACK
6
CONTINUOUS
10
130.0113399999999899
20
-136.4350759999999809
11
130.1065779999999847
21
-136.5303140000000042
0
LINE
8
BLACK
6
CONTINUOUS
10
130.1065779999999847
20
-136.5303140000000042
11
130.201816000000008
21
-136.7207899999999938
0
LINE
8
BLACK
6
CONTINUOUS
10
130.201816000000008
20
-136.7207899999999938
11
130.2970540000000028
21
-137.1017420000000016
0
LINE
8
BLACK
6
CONTINUOUS
10
130.2970540000000028
20
-137.1017420000000016
11
130.2970540000000028
21
-137.5779330000000016
0
LINE
8
BLACK
6
CONTINUOUS
10
130.2970540000000028
20
-137.5779330000000016
11
130.201816000000008
21
-137.9588849999999809
0
LINE
8
BLACK
6
CONTINUOUS
10
130.201816000000008
20
-137.9588849999999809
11
130.1065779999999847
21
-138.149360999999999
0
LINE
8
BLACK
6
CONTINUOUS
10
130.1065779999999847
20
-138.149360999999999
11
130.0113399999999899
21
-138.2445999999999913
0
LINE
8
BLACK
6
CONTINUOUS
10
130.0113399999999899
20
-138.2445999999999913
11
129.8208640000000003
21
-138.3398379999999861
0
LINE
8
BLACK
6
CONTINUOUS
10
129.8208640000000003
20
-138.3398379999999861
11
129.6303869999999847
21
-138.3398379999999861
0
LINE
8
BLACK
6
CONTINUOUS
10
129.6303869999999847
20
-138.3398379999999861
11
129.4399109999999951
21
-138.2445999999999913
0
LINE
8
BLACK
6
CONTINUOUS
10
129.4399109999999951
20
-138.2445999999999913
11
129.3446730000000002
21
-138.149360999999999
0
LINE
8
BLACK
6
CONTINUOUS
10
129.3446730000000002
20
-138.149360999999999
11
129.2494350000000054
21
-137.9588849999999809
0
LINE
8
BLACK
6
CONTINUOUS
10
129.2494350000000054
20
-137.9588849999999809
11
129.1541969999999822
21
-137.5779330000000016
0
LINE
8
BLACK
6
CONTINUOUS
10
129.1541969999999822
20
-137.5779330000000016
11
129.1541969999999822
21
-137.1017420000000016
0
LINE
8
BLACK
6
CONTINUOUS
10
129.1541969999999822
20
-137.1017420000000016
11
129.2494350000000054
21
-136.7207899999999938
0
LINE
8
BLACK
6
CONTINUOUS
10
129.2494350000000054
20
-136.7207899999999938
11
129.3446730000000002
21
-136.5303140000000042
0
LINE
8
BLACK
6
CONTINUOUS
10
129.3446730000000002
20
-136.5303140000000042
11
129.4399109999999951
21
-136.4350759999999809
0
LINE
8
BLACK
6
CONTINUOUS
10
129.4399109999999951
20
-136.4350759999999809
11
129.6303869999999847
21
-136.3398379999999861
0
LINE
8
BLACK
6
CONTINUOUS
10
131.1541969999999822
20
-138.3398379999999861
11
131.1541969999999822
21
-137.0065040000000067
0
LINE
8
BLACK
6
CONTINUOUS
10
131.1541969999999822
20
-137.1969799999999964
11
131.2494350000000054
21
-137.1017420000000016
0
LINE
8
BLACK
6
CONTINUOUS
10
131.2494350000000054
20
-137.1017420000000016
11
131.4399109999999951
21
-137.0065040000000067
0
LINE
8
BLACK
6
CONTINUOUS
10
131.4399109999999951
20
-137.0065040000000067
11
131.7256260000000054
21
-137.0065040000000067
0
LINE
8
BLACK
6
CONTINUOUS
10
131.7256260000000054
20
-137.0065040000000067
11
131.9161019999999951
21
-137.1017420000000016
0
LINE
8
BLACK
6
CONTINUOUS
10
131.9161019999999951
20
-137.1017420000000016
11
132.0113399999999899
21
-137.2922189999999887
0
LINE
8
BLACK
6
CONTINUOUS
10
132.0113399999999899
20
-137.2922189999999887
11
132.0113399999999899
21
-138.3398379999999861
0
LINE
8
BLACK
6
CONTINUOUS
10
132.0113399999999899
20
-137.2922189999999887
11
132.1065779999999847
21
-137.1017420000000016
0
LINE
8
BLACK
6
CONTINUOUS
10
132.1065779999999847
20
-137.1017420000000016
11
132.2970540000000028
21
-137.0065040000000067
0
LINE
8
BLACK
6
CONTINUOUS
10
132.2970540000000028
20
-137.0065040000000067
11
132.5827679999999873
21
-137.0065040000000067
0
LINE
8
BLACK
6
CONTINUOUS
10
132.5827679999999873
20
-137.0065040000000067
11
132.7732450000000028
21
-137.1017420000000016
0
LINE
8
BLACK
6
CONTINUOUS
10
132.7732450000000028
20
-137.1017420000000016
11
132.8684829999999977
21
-137.2922189999999887
0
LINE
8
BLACK
6
CONTINUOUS
10
132.8684829999999977
20
-137.2922189999999887
11
132.8684829999999977
21
-138.3398379999999861
0
LINE
8
BLACK
6
CONTINUOUS
10
133.8208640000000003
20
-138.3398379999999861
11
133.8208640000000003
21
-137.0065040000000067
0
LINE
8
BLACK
6
CONTINUOUS
10
133.8208640000000003
20
-137.1969799999999964
11
133.9161019999999951
21
-137.1017420000000016
0
LINE
8
BLACK
6
CONTINUOUS
10
133.9161019999999951
20
-137.1017420000000016
11
134.1065779999999847
21
-137.0065040000000067
0
LINE
8
BLACK
6
CONTINUOUS
10
134.1065779999999847
20
-137.0065040000000067
11
134.3922929999999951
21
-137.0065040000000067
0
LINE
8
BLACK
6
CONTINUOUS
10
134.3922929999999951
20
-137.0065040000000067
11
134.5827689999999848
21
-137.1017420000000016
0
LINE
8
BLACK
6
CONTINUOUS
10
134.5827689999999848
20
-137.1017420000000016
11
134.678007000000008
21
-137.2922189999999887
0
LINE
8
BLACK
6
CONTINUOUS
10
134.678007000000008
20
-137.2922189999999887
11
134.678007000000008
21
-138.3398379999999861
0
LINE
8
BLACK
6
CONTINUOUS
10
134.678007000000008
20
-137.2922189999999887
11
134.7732450000000028
21
-137.1017420000000016
0
LINE
8
BLACK
6
CONTINUOUS
10
134.7732450000000028
20
-137.1017420000000016
11
134.9637209999999925
21
-137.0065040000000067
0
LINE
8
BLACK
6
CONTINUOUS
10
134.9637209999999925
20
-137.0065040000000067
11
135.2494350000000054
21
-137.0065040000000067
0
LINE
8
BLACK
6
CONTINUOUS
10
135.2494350000000054
20
-137.0065040000000067
11
135.4399119999999925
21
-137.1017420000000016
0
LINE
8
BLACK
6
CONTINUOUS
10
135.4399119999999925
20
-137.1017420000000016
11
135.5351499999999874
21
-137.2922189999999887
0
LINE
8
BLACK
6
CONTINUOUS
10
135.5351499999999874
20
-137.2922189999999887
11
135.5351499999999874
21
-138.3398379999999861
0
LINE
8
BLACK
6
CONTINUOUS
10
139.4399119999999925
20
-136.2445999999999913
11
137.7256270000000029
21
-138.8160279999999887
0
LINE
8
BLACK
6
CONTINUOUS
10
142.0113409999999874
20
-136.3398379999999861
11
142.2018180000000029
21
-136.3398379999999861
0
LINE
8
BLACK
6
CONTINUOUS
10
142.2018180000000029
20
-136.3398379999999861
11
142.3922939999999926
21
-136.4350759999999809
0
LINE
8
BLACK
6
CONTINUOUS
10
142.3922939999999926
20
-136.4350759999999809
11
142.4875319999999874
21
-136.5303140000000042
0
LINE
8
BLACK
6
CONTINUOUS
10
142.4875319999999874
20
-136.5303140000000042
11
142.5827699999999822
21
-136.7207899999999938
0
LINE
8
BLACK
6
CONTINUOUS
10
142.5827699999999822
20
-136.7207899999999938
11
142.6780080000000055
21
-137.1017420000000016
0
LINE
8
BLACK
6
CONTINUOUS
10
142.6780080000000055
20
-137.1017420000000016
11
142.6780080000000055
21
-137.5779330000000016
0
LINE
8
BLACK
6
CONTINUOUS
10
142.6780080000000055
20
-137.5779330000000016
11
142.5827699999999822
21
-137.9588849999999809
0
LINE
8
BLACK
6
CONTINUOUS
10
142.5827699999999822
20
-137.9588849999999809
11
142.4875319999999874
21
-138.149360999999999
0
LINE
8
BLACK
6
CONTINUOUS
10
142.4875319999999874
20
-138.149360999999999
11
142.3922939999999926
21
-138.2445999999999913
0
LINE
8
BLACK
6
CONTINUOUS
10
142.3922939999999926
20
-138.2445999999999913
11
142.2018180000000029
21
-138.3398379999999861
0
LINE
8
BLACK
6
CONTINUOUS
10
142.2018180000000029
20
-138.3398379999999861
11
142.0113409999999874
21
-138.3398379999999861
0
LINE
8
BLACK
6
CONTINUOUS
10
142.0113409999999874
20
-138.3398379999999861
11
141.8208649999999977
21
-138.2445999999999913
0
LINE
8
BLACK
6
CONTINUOUS
10
141.8208649999999977
20
-138.2445999999999913
11
141.7256270000000029
21
-138.149360999999999
0
LINE
8
BLACK
6
CONTINUOUS
10
141.7256270000000029
20
-138.149360999999999
11
141.6303889999999797
21
-137.9588849999999809
0
LINE
8
BLACK
6
CONTINUOUS
10
141.6303889999999797
20
-137.9588849999999809
11
141.5351509999999848
21
-137.5779330000000016
0
LINE
8
BLACK
6
CONTINUOUS
10
141.5351509999999848
20
-137.5779330000000016
11
141.5351509999999848
21
-137.1017420000000016
0
LINE
8
BLACK
6
CONTINUOUS
10
141.5351509999999848
20
-137.1017420000000016
11
141.6303889999999797
21
-136.7207899999999938
0
LINE
8
BLACK
6
CONTINUOUS
10
141.6303889999999797
20
-136.7207899999999938
11
141.7256270000000029
21
-136.5303140000000042
0
LINE
8
BLACK
6
CONTINUOUS
10
141.7256270000000029
20
-136.5303140000000042
11
141.8208649999999977
21
-136.4350759999999809
0
LINE
8
BLACK
6
CONTINUOUS
10
141.8208649999999977
20
-136.4350759999999809
11
142.0113409999999874
21
-136.3398379999999861
0
LINE
8
BLACK
6
CONTINUOUS
10
143.5351509999999848
20
-138.149360999999999
11
143.6303889999999797
21
-138.2445999999999913
0
LINE
8
BLACK
6
CONTINUOUS
10
143.6303889999999797
20
-138.2445999999999913
11
143.5351509999999848
21
-138.3398379999999861
0
LINE
8
BLACK
6
CONTINUOUS
10
143.5351509999999848
20
-138.3398379999999861
11
143.43991299999999
21
-138.2445999999999913
0
LINE
8
BLACK
6
CONTINUOUS
10
143.43991299999999
20
-138.2445999999999913
11
143.5351509999999848
21
-138.149360999999999
0
LINE
8
BLACK
6
CONTINUOUS
10
143.5351509999999848
20
-138.149360999999999
11
143.5351509999999848
21
-138.3398379999999861
0
LINE
8
BLACK
6
CONTINUOUS
10
144.8684839999999951
20
-136.3398379999999861
11
145.0589609999999823
21
-136.3398379999999861
0
LINE
8
BLACK
6
CONTINUOUS
10
145.0589609999999823
20
-136.3398379999999861
11
145.2494370000000004
21
-136.4350759999999809
0
LINE
8
BLACK
6
CONTINUOUS
10
145.2494370000000004
20
-136.4350759999999809
11
145.3446749999999952
21
-136.5303140000000042
0
LINE
8
BLACK
6
CONTINUOUS
10
145.3446749999999952
20
-136.5303140000000042
11
145.43991299999999
21
-136.7207899999999938
0
LINE
8
BLACK
6
CONTINUOUS
10
145.43991299999999
20
-136.7207899999999938
11
145.5351509999999848
21
-137.1017420000000016
0
LINE
8
BLACK
6
CONTINUOUS
10
145.5351509999999848
20
-137.1017420000000016
11
145.5351509999999848
21
-137.5779330000000016
0
LINE
8
BLACK
6
CONTINUOUS
10
145.5351509999999848
20
-137.5779330000000016
11
145.43991299999999
21
-137.9588849999999809
0
LINE
8
BLACK
6
CONTINUOUS
10
145.43991299999999
20
-137.9588849999999809
11
145.3446749999999952
21
-138.149360999999999
0
LINE
8
BLACK
6
CONTINUOUS
10
145.3446749999999952
20
-138.149360999999999
11
145.2494370000000004
21
-138.2445999999999913
0
LINE
8
BLACK
6
CONTINUOUS
10
145.2494370000000004
20
-138.2445999999999913
11
145.0589609999999823
21
-138.3398379999999861
0
LINE
8
BLACK
6
CONTINUOUS
10
145.0589609999999823
20
-138.3398379999999861
11
144.8684839999999951
21
-138.3398379999999861
0
LINE
8
BLACK
6
CONTINUOUS
10
144.8684839999999951
20
-138.3398379999999861
11
144.6780080000000055
21
-138.2445999999999913
0
LINE
8
BLACK
6
CONTINUOUS
10
144.6780080000000055
20
-138.2445999999999913
11
144.5827699999999822
21
-138.149360999999999
0
LINE
8
BLACK
6
CONTINUOUS
10
144.5827699999999822
20
-138.149360999999999
11
144.4875319999999874
21
-137.9588849999999809
0
LINE
8
BLACK
6
CONTINUOUS
10
144.4875319999999874
20
-137.9588849999999809
11
144.3922939999999926
21
-137.5779330000000016
0
LINE
8
BLACK
6
CONTINUOUS
10
144.3922939999999926
20
-137.5779330000000016
11
144.3922939999999926
21
-137.1017420000000016
0
LINE
8
BLACK
6
CONTINUOUS
10
144.3922939999999926
20
-137.1017420000000016
11
144.4875319999999874
21
-136.7207899999999938
0
LINE
8
BLACK
6
CONTINUOUS
10
144.4875319999999874
20
-136.7207899999999938
11
144.5827699999999822
21
-136.5303140000000042
0
LINE
8
BLACK
6
CONTINUOUS
10
144.5827699999999822
20
-136.5303140000000042
11
144.6780080000000055
21
-136.4350759999999809
0
LINE
8
BLACK
6
CONTINUOUS
10
144.6780080000000055
20
-136.4350759999999809
11
144.8684839999999951
21
-136.3398379999999861
0
LINE
8
BLACK
6
CONTINUOUS
10
146.2970559999999978
20
-136.5303140000000042
11
146.3922939999999926
21
-136.4350759999999809
0
LINE
8
BLACK
6
CONTINUOUS
10
146.3922939999999926
20
-136.4350759999999809
11
146.5827699999999822
21
-136.3398379999999861
0
LINE
8
BLACK
6
CONTINUOUS
10
146.5827699999999822
20
-136.3398379999999861
11
147.0589609999999823
21
-136.3398379999999861
0
LINE
8
BLACK
6
CONTINUOUS
10
147.0589609999999823
20
-136.3398379999999861
11
147.2494370000000004
21
-136.4350759999999809
0
LINE
8
BLACK
6
CONTINUOUS
10
147.2494370000000004
20
-136.4350759999999809
11
147.3446749999999952
21
-136.5303140000000042
0
LINE
8
BLACK
6
CONTINUOUS
10
147.3446749999999952
20
-136.5303140000000042
11
147.43991299999999
21
-136.7207899999999938
0
LINE
8
BLACK
6
CONTINUOUS
10
147.43991299999999
20
-136.7207899999999938
11
147.43991299999999
21
-136.9112659999999835
0
LINE
8
BLACK
6
CONTINUOUS
10
147.43991299999999
20
-136.9112659999999835
11
147.3446749999999952
21
-137.1969799999999964
0
LINE
8
BLACK
6
CONTINUOUS
10
147.3446749999999952
20
-137.1969799999999964
11
146.2018180000000029
21
-138.3398379999999861
0
LINE
8
BLACK
6
CONTINUOUS
10
146.2018180000000029
20
-138.3398379999999861
11
147.43991299999999
21
-138.3398379999999861
0
LINE
8
BLACK
6
CONTINUOUS
10
149.2494370000000004
20
-136.3398379999999861
11
148.2970559999999978
21
-136.3398379999999861
0
LINE
8
BLACK
6
CONTINUOUS
10
148.2970559999999978
20
-136.3398379999999861
11
148.2018180000000029
21
-137.2922189999999887
0
LINE
8
BLACK
6
CONTINUOUS
10
148.2018180000000029
20
-137.2922189999999887
11
148.2970559999999978
21
-137.1969799999999964
0
LINE
8
BLACK
6
CONTINUOUS
10
148.2970559999999978
20
-137.1969799999999964
11
148.4875319999999874
21
-137.1017420000000016
0
LINE
8
BLACK
6
CONTINUOUS
10
148.4875319999999874
20
-137.1017420000000016
11
148.9637229999999875
21
-137.1017420000000016
0
LINE
8
BLACK
6
CONTINUOUS
10
148.9637229999999875
20
-137.1017420000000016
11
149.1541990000000055
21
-137.1969799999999964
0
LINE
8
BLACK
6
CONTINUOUS
10
149.1541990000000055
20
-137.1969799999999964
11
149.2494370000000004
21
-137.2922189999999887
0
LINE
8
BLACK
6
CONTINUOUS
10
149.2494370000000004
20
-137.2922189999999887
11
149.3446749999999952
21
-137.4826950000000068
0
LINE
8
BLACK
6
CONTINUOUS
10
149.3446749999999952
20
-137.4826950000000068
11
149.3446749999999952
21
-137.9588849999999809
0
LINE
8
BLACK
6
CONTINUOUS
10
149.3446749999999952
20
-137.9588849999999809
11
149.2494370000000004
21
-138.149360999999999
0
LINE
8
BLACK
6
CONTINUOUS
10
149.2494370000000004
20
-138.149360999999999
11
149.1541990000000055
21
-138.2445999999999913
0
LINE
8
BLACK
6
CONTINUOUS
10
149.1541990000000055
20
-138.2445999999999913
11
148.9637229999999875
21
-138.3398379999999861
0
LINE
8
BLACK
6
CONTINUOUS
10
148.9637229999999875
20
-138.3398379999999861
11
148.4875319999999874
21
-138.3398379999999861
0
LINE
8
BLACK
6
CONTINUOUS
10
148.4875319999999874
20
-138.3398379999999861
11
148.2970559999999978
21
-138.2445999999999913
0
LINE
8
BLACK
6
CONTINUOUS
10
148.2970559999999978
20
-138.2445999999999913
11
148.2018180000000029
21
-138.149360999999999
0
LINE
8
BLACK
6
CONTINUOUS
10
151.0589609999999823
20
-136.3398379999999861
11
150.6780080000000055
21
-136.3398379999999861
0
LINE
8
BLACK
6
CONTINUOUS
10
150.6780080000000055
20
-136.3398379999999861
11
150.4875319999999874
21
-136.4350759999999809
0
LINE
8
BLACK
6
CONTINUOUS
10
150.4875319999999874
20
-136.4350759999999809
11
150.3922939999999926
21
-136.5303140000000042
0
LINE
8
BLACK
6
CONTINUOUS
10
150.3922939999999926
20
-136.5303140000000042
11
150.2018180000000029
21
-136.8160279999999887
0
LINE
8
BLACK
6
CONTINUOUS
10
150.2018180000000029
20
-136.8160279999999887
11
150.1065799999999797
21
-137.1969799999999964
0
LINE
8
BLACK
6
CONTINUOUS
10
150.1065799999999797
20
-137.1969799999999964
11
150.1065799999999797
21
-137.9588849999999809
0
LINE
8
BLACK
6
CONTINUOUS
10
150.1065799999999797
20
-137.9588849999999809
11
150.2018180000000029
21
-138.149360999999999
0
LINE
8
BLACK
6
CONTINUOUS
10
150.2018180000000029
20
-138.149360999999999
11
150.2970559999999978
21
-138.2445999999999913
0
LINE
8
BLACK
6
CONTINUOUS
10
150.2970559999999978
20
-138.2445999999999913
11
150.4875319999999874
21
-138.3398379999999861
0
LINE
8
BLACK
6
CONTINUOUS
10
150.4875319999999874
20
-138.3398379999999861
11
150.8684849999999926
21
-138.3398379999999861
0
LINE
8
BLACK
6
CONTINUOUS
10
150.8684849999999926
20
-138.3398379999999861
11
151.0589609999999823
21
-138.2445999999999913
0
LINE
8
BLACK
6
CONTINUOUS
10
151.0589609999999823
20
-138.2445999999999913
11
151.1541990000000055
21
-138.149360999999999
0
LINE
8
BLACK
6
CONTINUOUS
10
151.1541990000000055
20
-138.149360999999999
11
151.2494370000000004
21
-137.9588849999999809
0
LINE
8
BLACK
6
CONTINUOUS
10
151.2494370000000004
20
-137.9588849999999809
11
151.2494370000000004
21
-137.4826950000000068
0
LINE
8
BLACK
6
CONTINUOUS
10
151.2494370000000004
20
-137.4826950000000068
11
151.1541990000000055
21
-137.2922189999999887
0
LINE
8
BLACK
6
CONTINUOUS
10
151.1541990000000055
20
-137.2922189999999887
11
151.0589609999999823
21
-137.1969799999999964
0
LINE
8
BLACK
6
CONTINUOUS
10
151.0589609999999823
20
-137.1969799999999964
11
150.8684849999999926
21
-137.1017420000000016
0
LINE
8
BLACK
6
CONTINUOUS
10
150.8684849999999926
20
-137.1017420000000016
11
150.4875319999999874
21
-137.1017420000000016
0
LINE
8
BLACK
6
CONTINUOUS
10
150.4875319999999874
20
-137.1017420000000016
11
150.2970559999999978
21
-137.1969799999999964
0
LINE
8
BLACK
6
CONTINUOUS
10
150.2970559999999978
20
-137.1969799999999964
11
150.2018180000000029
21
-137.2922189999999887
0
LINE
8
BLACK
6
CONTINUOUS
10
150.2018180000000029
20
-137.2922189999999887
11
150.1065799999999797
21
-137.4826950000000068
0
LINE
8
BLACK
6
CONTINUOUS
10
152.0113419999999849
20
-136.3398379999999861
11
152.0113419999999849
21
-136.7207899999999938
0
LINE
8
BLACK
6
CONTINUOUS
10
152.7732469999999978
20
-136.3398379999999861
11
152.7732469999999978
21
-136.7207899999999938
0
LINE
8
BLACK
6
CONTINUOUS
10
155.7256289999999979
20
-139.1017420000000016
11
155.6303900000000056
21
-139.0065040000000067
0
LINE
8
BLACK
6
CONTINUOUS
10
155.6303900000000056
20
-139.0065040000000067
11
155.4399139999999875
21
-138.7207899999999938
0
LINE
8
BLACK
6
CONTINUOUS
10
155.4399139999999875
20
-138.7207899999999938
11
155.3446759999999927
21
-138.5303140000000042
0
LINE
8
BLACK
6
CONTINUOUS
10
155.3446759999999927
20
-138.5303140000000042
11
155.2494379999999978
21
-138.2445999999999913
0
LINE
8
BLACK
6
CONTINUOUS
10
155.2494379999999978
20
-138.2445999999999913
11
155.154200000000003
21
-137.7684089999999912
0
LINE
8
BLACK
6
CONTINUOUS
10
155.154200000000003
20
-137.7684089999999912
11
155.154200000000003
21
-137.3874569999999835
0
LINE
8
BLACK
6
CONTINUOUS
10
155.154200000000003
20
-137.3874569999999835
11
155.2494379999999978
21
-136.9112659999999835
0
LINE
8
BLACK
6
CONTINUOUS
10
155.2494379999999978
20
-136.9112659999999835
11
155.3446759999999927
21
-136.625551999999999
0
LINE
8
BLACK
6
CONTINUOUS
10
155.3446759999999927
20
-136.625551999999999
11
155.4399139999999875
21
-136.4350759999999809
0
LINE
8
BLACK
6
CONTINUOUS
10
155.4399139999999875
20
-136.4350759999999809
11
155.6303900000000056
21
-136.149360999999999
0
LINE
8
BLACK
6
CONTINUOUS
10
155.6303900000000056
20
-136.149360999999999
11
155.7256289999999979
21
-136.0541230000000041
0
LINE
8
BLACK
6
CONTINUOUS
10
156.3922949999999901
20
-136.5303140000000042
11
156.4875329999999849
21
-136.4350759999999809
0
LINE
8
BLACK
6
CONTINUOUS
10
156.4875329999999849
20
-136.4350759999999809
11
156.678009000000003
21
-136.3398379999999861
0
LINE
8
BLACK
6
CONTINUOUS
10
156.678009000000003
20
-136.3398379999999861
11
157.154200000000003
21
-136.3398379999999861
0
LINE
8
BLACK
6
CONTINUOUS
10
157.154200000000003
20
-136.3398379999999861
11
157.3446759999999927
21
-136.4350759999999809
0
LINE
8
BLACK
6
CONTINUOUS
10
157.3446759999999927
20
-136.4350759999999809
11
157.4399139999999875
21
-136.5303140000000042
0
LINE
8
BLACK
6
CONTINUOUS
10
157.4399139999999875
20
-136.5303140000000042
11
157.5351519999999823
21
-136.7207899999999938
0
LINE
8
BLACK
6
CONTINUOUS
10
157.5351519999999823
20
-136.7207899999999938
11
157.5351519999999823
21
-136.9112659999999835
0
LINE
8
BLACK
6
CONTINUOUS
10
157.5351519999999823
20
-136.9112659999999835
11
157.4399139999999875
21
-137.1969799999999964
0
LINE
8
BLACK
6
CONTINUOUS
10
157.4399139999999875
20
-137.1969799999999964
11
156.2970569999999952
21
-138.3398379999999861
0
LINE
8
BLACK
6
CONTINUOUS
10
156.2970569999999952
20
-138.3398379999999861
11
157.5351519999999823
21
-138.3398379999999861
0
LINE
8
BLACK
6
CONTINUOUS
10
159.9161049999999875
20
-138.3398379999999861
11
159.9161049999999875
21
-136.3398379999999861
0
LINE
8
BLACK
6
CONTINUOUS
10
160.7732479999999953
20
-138.3398379999999861
11
160.7732479999999953
21
-137.2922189999999887
0
LINE
8
BLACK
6
CONTINUOUS
10
160.7732479999999953
20
-137.2922189999999887
11
160.6780100000000004
21
-137.1017420000000016
0
LINE
8
BLACK
6
CONTINUOUS
10
160.6780100000000004
20
-137.1017420000000016
11
160.4875339999999824
21
-137.0065040000000067
0
LINE
8
BLACK
6
CONTINUOUS
10
160.4875339999999824
20
-137.0065040000000067
11
160.2018190000000004
21
-137.0065040000000067
0
LINE
8
BLACK
6
CONTINUOUS
10
160.2018190000000004
20
-137.0065040000000067
11
160.0113429999999823
21
-137.1017420000000016
0
LINE
8
BLACK
6
CONTINUOUS
10
160.0113429999999823
20
-137.1017420000000016
11
159.9161049999999875
21
-137.1969799999999964
0
LINE
8
BLACK
6
CONTINUOUS
10
162.0113429999999823
20
-138.3398379999999861
11
161.8208669999999927
21
-138.2445999999999913
0
LINE
8
BLACK
6
CONTINUOUS
10
161.8208669999999927
20
-138.2445999999999913
11
161.7256289999999979
21
-138.149360999999999
0
LINE
8
BLACK
6
CONTINUOUS
10
161.7256289999999979
20
-138.149360999999999
11
161.630391000000003
21
-137.9588849999999809
0
LINE
8
BLACK
6
CONTINUOUS
10
161.630391000000003
20
-137.9588849999999809
11
161.630391000000003
21
-137.3874569999999835
0
LINE
8
BLACK
6
CONTINUOUS
10
161.630391000000003
20
-137.3874569999999835
11
161.7256289999999979
21
-137.1969799999999964
0
LINE
8
BLACK
6
CONTINUOUS
10
161.7256289999999979
20
-137.1969799999999964
11
161.8208669999999927
21
-137.1017420000000016
0
LINE
8
BLACK
6
CONTINUOUS
10
161.8208669999999927
20
-137.1017420000000016
11
162.0113429999999823
21
-137.0065040000000067
0
LINE
8
BLACK
6
CONTINUOUS
10
162.0113429999999823
20
-137.0065040000000067
11
162.2970579999999927
21
-137.0065040000000067
0
LINE
8
BLACK
6
CONTINUOUS
10
162.2970579999999927
20
-137.0065040000000067
11
162.4875339999999824
21
-137.1017420000000016
0
LINE
8
BLACK
6
CONTINUOUS
10
162.4875339999999824
20
-137.1017420000000016
11
162.5827720000000056
21
-137.1969799999999964
0
LINE
8
BLACK
6
CONTINUOUS
10
162.5827720000000056
20
-137.1969799999999964
11
162.6780100000000004
21
-137.3874569999999835
0
LINE
8
BLACK
6
CONTINUOUS
10
162.6780100000000004
20
-137.3874569999999835
11
162.6780100000000004
21
-137.9588849999999809
0
LINE
8
BLACK
6
CONTINUOUS
10
162.6780100000000004
20
-137.9588849999999809
11
162.5827720000000056
21
-138.149360999999999
0
LINE
8
BLACK
6
CONTINUOUS
10
162.5827720000000056
20
-138.149360999999999
11
162.4875339999999824
21
-138.2445999999999913
0
LINE
8
BLACK
6
CONTINUOUS
10
162.4875339999999824
20
-138.2445999999999913
11
162.2970579999999927
21
-138.3398379999999861
0
LINE
8
BLACK
6
CONTINUOUS
10
162.2970579999999927
20
-138.3398379999999861
11
162.0113429999999823
21
-138.3398379999999861
0
LINE
8
BLACK
6
CONTINUOUS
10
163.8208669999999927
20
-138.3398379999999861
11
163.630391000000003
21
-138.2445999999999913
0
LINE
8
BLACK
6
CONTINUOUS
10
163.630391000000003
20
-138.2445999999999913
11
163.5351529999999798
21
-138.0541230000000041
0
LINE
8
BLACK
6
CONTINUOUS
10
163.5351529999999798
20
-138.0541230000000041
11
163.5351529999999798
21
-136.3398379999999861
0
LINE
8
BLACK
6
CONTINUOUS
10
165.3446769999999901
20
-138.2445999999999913
11
165.1542010000000005
21
-138.3398379999999861
0
LINE
8
BLACK
6
CONTINUOUS
10
165.1542010000000005
20
-138.3398379999999861
11
164.7732479999999953
21
-138.3398379999999861
0
LINE
8
BLACK
6
CONTINUOUS
10
164.7732479999999953
20
-138.3398379999999861
11
164.5827720000000056
21
-138.2445999999999913
0
LINE
8
BLACK
6
CONTINUOUS
10
164.5827720000000056
20
-138.2445999999999913
11
164.4875339999999824
21
-138.0541230000000041
0
LINE
8
BLACK
6
CONTINUOUS
10
164.4875339999999824
20
-138.0541230000000041
11
164.4875339999999824
21
-137.2922189999999887
0
LINE
8
BLACK
6
CONTINUOUS
10
164.4875339999999824
20
-137.2922189999999887
11
164.5827720000000056
21
-137.1017420000000016
0
LINE
8
BLACK
6
CONTINUOUS
10
164.5827720000000056
20
-137.1017420000000016
11
164.7732479999999953
21
-137.0065040000000067
0
LINE
8
BLACK
6
CONTINUOUS
10
164.7732479999999953
20
-137.0065040000000067
11
165.1542010000000005
21
-137.0065040000000067
0
LINE
8
BLACK
6
CONTINUOUS
10
165.1542010000000005
20
-137.0065040000000067
11
165.3446769999999901
21
-137.1017420000000016
0
LINE
8
BLACK
6
CONTINUOUS
10
165.3446769999999901
20
-137.1017420000000016
11
165.439914999999985
21
-137.2922189999999887
0
LINE
8
BLACK
6
CONTINUOUS
10
165.439914999999985
20
-137.2922189999999887
11
165.439914999999985
21
-137.4826950000000068
0
LINE
8
BLACK
6
CONTINUOUS
10
165.439914999999985
20
-137.4826950000000068
11
164.4875339999999824
21
-137.6731709999999964
0
LINE
8
BLACK
6
CONTINUOUS
10
166.2018199999999979
20
-138.2445999999999913
11
166.3922959999999875
21
-138.3398379999999861
0
LINE
8
BLACK
6
CONTINUOUS
10
166.3922959999999875
20
-138.3398379999999861
11
166.7732479999999953
21
-138.3398379999999861
0
LINE
8
BLACK
6
CONTINUOUS
10
166.7732479999999953
20
-138.3398379999999861
11
166.9637249999999824
21
-138.2445999999999913
0
LINE
8
BLACK
6
CONTINUOUS
10
166.9637249999999824
20
-138.2445999999999913
11
167.0589630000000056
21
-138.0541230000000041
0
LINE
8
BLACK
6
CONTINUOUS
10
167.0589630000000056
20
-138.0541230000000041
11
167.0589630000000056
21
-137.9588849999999809
0
LINE
8
BLACK
6
CONTINUOUS
10
167.0589630000000056
20
-137.9588849999999809
11
166.9637249999999824
21
-137.7684089999999912
0
LINE
8
BLACK
6
CONTINUOUS
10
166.9637249999999824
20
-137.7684089999999912
11
166.7732479999999953
21
-137.6731709999999964
0
LINE
8
BLACK
6
CONTINUOUS
10
166.7732479999999953
20
-137.6731709999999964
11
166.4875339999999824
21
-137.6731709999999964
0
LINE
8
BLACK
6
CONTINUOUS
10
166.4875339999999824
20
-137.6731709999999964
11
166.2970579999999927
21
-137.5779330000000016
0
LINE
8
BLACK
6
CONTINUOUS
10
166.2970579999999927
20
-137.5779330000000016
11
166.2018199999999979
21
-137.3874569999999835
0
LINE
8
BLACK
6
CONTINUOUS
10
166.2018199999999979
20
-137.3874569999999835
11
166.2018199999999979
21
-137.2922189999999887
0
LINE
8
BLACK
6
CONTINUOUS
10
166.2018199999999979
20
-137.2922189999999887
11
166.2970579999999927
21
-137.1017420000000016
0
LINE
8
BLACK
6
CONTINUOUS
10
166.2970579999999927
20
-137.1017420000000016
11
166.4875339999999824
21
-137.0065040000000067
0
LINE
8
BLACK
6
CONTINUOUS
10
166.4875339999999824
20
-137.0065040000000067
11
166.7732479999999953
21
-137.0065040000000067
0
LINE
8
BLACK
6
CONTINUOUS
10
166.7732479999999953
20
-137.0065040000000067
11
166.9637249999999824
21
-137.1017420000000016
0
LINE
8
BLACK
6
CONTINUOUS
10
167.7256299999999953
20
-139.1017420000000016
11
167.8208679999999902
21
-139.0065040000000067
0
LINE
8
BLACK
6
CONTINUOUS
10
167.8208679999999902
20
-139.0065040000000067
11
168.0113439999999798
21
-138.7207899999999938
0
LINE
8
BLACK
6
CONTINUOUS
10
168.0113439999999798
20
-138.7207899999999938
11
168.1065820000000031
21
-138.5303140000000042
0
LINE
8
BLACK
6
CONTINUOUS
10
168.1065820000000031
20
-138.5303140000000042
11
168.2018199999999979
21
-138.2445999999999913
0
LINE
8
BLACK
6
CONTINUOUS
10
168.2018199999999979
20
-138.2445999999999913
11
168.2970579999999927
21
-137.7684089999999912
0
LINE
8
BLACK
6
CONTINUOUS
10
168.2970579999999927
20
-137.7684089999999912
11
168.2970579999999927
21
-137.3874569999999835
0
LINE
8
BLACK
6
CONTINUOUS
10
168.2970579999999927
20
-137.3874569999999835
11
168.2018199999999979
21
-136.9112659999999835
0
LINE
8
BLACK
6
CONTINUOUS
10
168.2018199999999979
20
-136.9112659999999835
11
168.1065820000000031
21
-136.625551999999999
0
LINE
8
BLACK
6
CONTINUOUS
10
168.1065820000000031
20
-136.625551999999999
11
168.0113439999999798
21
-136.4350759999999809
0
LINE
8
BLACK
6
CONTINUOUS
10
168.0113439999999798
20
-136.4350759999999809
11
167.8208679999999902
21
-136.149360999999999
0
LINE
8
BLACK
6
CONTINUOUS
10
167.8208679999999902
20
-136.149360999999999
11
167.7256299999999953
21
-136.0541230000000041
0
LINE
8
BLACK
6
CONTINUOUS
10
171.3446779999999876
20
-139.1017420000000016
11
171.2494389999999953
21
-139.0065040000000067
0
LINE
8
BLACK
6
CONTINUOUS
10
171.2494389999999953
20
-139.0065040000000067
11
171.0589630000000056
21
-138.7207899999999938
0
LINE
8
BLACK
6
CONTINUOUS
10
171.0589630000000056
20
-138.7207899999999938
11
170.9637249999999824
21
-138.5303140000000042
0
LINE
8
BLACK
6
CONTINUOUS
10
170.9637249999999824
20
-138.5303140000000042
11
170.8684869999999876
21
-138.2445999999999913
0
LINE
8
BLACK
6
CONTINUOUS
10
170.8684869999999876
20
-138.2445999999999913
11
170.7732489999999927
21
-137.7684089999999912
0
LINE
8
BLACK
6
CONTINUOUS
10
170.7732489999999927
20
-137.7684089999999912
11
170.7732489999999927
21
-137.3874569999999835
0
LINE
8
BLACK
6
CONTINUOUS
10
170.7732489999999927
20
-137.3874569999999835
11
170.8684869999999876
21
-136.9112659999999835
0
LINE
8
BLACK
6
CONTINUOUS
10
170.8684869999999876
20
-136.9112659999999835
11
170.9637249999999824
21
-136.625551999999999
0
LINE
8
BLACK
6
CONTINUOUS
10
170.9637249999999824
20
-136.625551999999999
11
171.0589630000000056
21
-136.4350759999999809
0
LINE
8
BLACK
6
CONTINUOUS
10
171.0589630000000056
20
-136.4350759999999809
11
171.2494389999999953
21
-136.149360999999999
0
LINE
8
BLACK
6
CONTINUOUS
10
171.2494389999999953
20
-136.149360999999999
11
171.3446779999999876
21
-136.0541230000000041
0
LINE
8
BLACK
6
CONTINUOUS
10
172.1065820000000031
20
-137.0065040000000067
11
172.1065820000000031
21
-138.3398379999999861
0
LINE
8
BLACK
6
CONTINUOUS
10
172.1065820000000031
20
-137.1969799999999964
11
172.2018199999999979
21
-137.1017420000000016
0
LINE
8
BLACK
6
CONTINUOUS
10
172.2018199999999979
20
-137.1017420000000016
11
172.3922959999999875
21
-137.0065040000000067
0
LINE
8
BLACK
6
CONTINUOUS
10
172.3922959999999875
20
-137.0065040000000067
11
172.6780109999999979
21
-137.0065040000000067
0
LINE
8
BLACK
6
CONTINUOUS
10
172.6780109999999979
20
-137.0065040000000067
11
172.8684869999999876
21
-137.1017420000000016
0
LINE
8
BLACK
6
CONTINUOUS
10
172.8684869999999876
20
-137.1017420000000016
11
172.9637249999999824
21
-137.2922189999999887
0
LINE
8
BLACK
6
CONTINUOUS
10
172.9637249999999824
20
-137.2922189999999887
11
172.9637249999999824
21
-138.3398379999999861
0
LINE
8
BLACK
6
CONTINUOUS
10
174.2018199999999979
20
-138.3398379999999861
11
174.0113439999999798
21
-138.2445999999999913
0
LINE
8
BLACK
6
CONTINUOUS
10
174.0113439999999798
20
-138.2445999999999913
11
173.916105999999985
21
-138.149360999999999
0
LINE
8
BLACK
6
CONTINUOUS
10
173.916105999999985
20
-138.149360999999999
11
173.8208679999999902
21
-137.9588849999999809
0
LINE
8
BLACK
6
CONTINUOUS
10
173.8208679999999902
20
-137.9588849999999809
11
173.8208679999999902
21
-137.3874569999999835
0
LINE
8
BLACK
6
CONTINUOUS
10
173.8208679999999902
20
-137.3874569999999835
11
173.916105999999985
21
-137.1969799999999964
0
LINE
8
BLACK
6
CONTINUOUS
10
173.916105999999985
20
-137.1969799999999964
11
174.0113439999999798
21
-137.1017420000000016
0
LINE
8
BLACK
6
CONTINUOUS
10
174.0113439999999798
20
-137.1017420000000016
11
174.2018199999999979
21
-137.0065040000000067
0
LINE
8
BLACK
6
CONTINUOUS
10
174.2018199999999979
20
-137.0065040000000067
11
174.4875349999999798
21
-137.0065040000000067
0
LINE
8
BLACK
6
CONTINUOUS
10
174.4875349999999798
20
-137.0065040000000067
11
174.6780109999999979
21
-137.1017420000000016
0
LINE
8
BLACK
6
CONTINUOUS
10
174.6780109999999979
20
-137.1017420000000016
11
174.7732489999999927
21
-137.1969799999999964
0
LINE
8
BLACK
6
CONTINUOUS
10
174.7732489999999927
20
-137.1969799999999964
11
174.8684869999999876
21
-137.3874569999999835
0
LINE
8
BLACK
6
CONTINUOUS
10
174.8684869999999876
20
-137.3874569999999835
11
174.8684869999999876
21
-137.9588849999999809
0
LINE
8
BLACK
6
CONTINUOUS
10
174.8684869999999876
20
-137.9588849999999809
11
174.7732489999999927
21
-138.149360999999999
0
LINE
8
BLACK
6
CONTINUOUS
10
174.7732489999999927
20
-138.149360999999999
11
174.6780109999999979
21
-138.2445999999999913
0
LINE
8
BLACK
6
CONTINUOUS
10
174.6780109999999979
20
-138.2445999999999913
11
174.4875349999999798
21
-138.3398379999999861
0
LINE
8
BLACK
6
CONTINUOUS
10
174.4875349999999798
20
-138.3398379999999861
11
174.2018199999999979
21
-138.3398379999999861
0
LINE
8
BLACK
6
CONTINUOUS
10
175.4399159999999824
20
-137.0065040000000067
11
176.2018199999999979
21
-137.0065040000000067
0
LINE
8
BLACK
6
CONTINUOUS
10
175.7256299999999953
20
-136.3398379999999861
11
175.7256299999999953
21
-138.0541230000000041
0
LINE
8
BLACK
6
CONTINUOUS
10
175.7256299999999953
20
-138.0541230000000041
11
175.8208679999999902
21
-138.2445999999999913
0
LINE
8
BLACK
6
CONTINUOUS
10
175.8208679999999902
20
-138.2445999999999913
11
176.0113439999999798
21
-138.3398379999999861
0
LINE
8
BLACK
6
CONTINUOUS
10
176.0113439999999798
20
-138.3398379999999861
11
176.2018199999999979
21
-138.3398379999999861
0
LINE
8
BLACK
6
CONTINUOUS
10
178.392296999999985
20
-137.0065040000000067
11
178.392296999999985
21
-139.0065040000000067
0
LINE
8
BLACK
6
CONTINUOUS
10
178.392296999999985
20
-137.1017420000000016
11
178.5827730000000031
21
-137.0065040000000067
0
LINE
8
BLACK
6
CONTINUOUS
10
178.5827730000000031
20
-137.0065040000000067
11
178.9637259999999799
21
-137.0065040000000067
0
LINE
8
BLACK
6
CONTINUOUS
10
178.9637259999999799
20
-137.0065040000000067
11
179.154201999999998
21
-137.1017420000000016
0
LINE
8
BLACK
6
CONTINUOUS
10
179.154201999999998
20
-137.1017420000000016
11
179.2494399999999928
21
-137.1969799999999964
0
LINE
8
BLACK
6
CONTINUOUS
10
179.2494399999999928
20
-137.1969799999999964
11
179.3446779999999876
21
-137.3874569999999835
0
LINE
8
BLACK
6
CONTINUOUS
10
179.3446779999999876
20
-137.3874569999999835
11
179.3446779999999876
21
-137.9588849999999809
0
LINE
8
BLACK
6
CONTINUOUS
10
179.3446779999999876
20
-137.9588849999999809
11
179.2494399999999928
21
-138.149360999999999
0
LINE
8
BLACK
6
CONTINUOUS
10
179.2494399999999928
20
-138.149360999999999
11
179.154201999999998
21
-138.2445999999999913
0
LINE
8
BLACK
6
CONTINUOUS
10
179.154201999999998
20
-138.2445999999999913
11
178.9637259999999799
21
-138.3398379999999861
0
LINE
8
BLACK
6
CONTINUOUS
10
178.9637259999999799
20
-138.3398379999999861
11
178.5827730000000031
21
-138.3398379999999861
0
LINE
8
BLACK
6
CONTINUOUS
10
178.5827730000000031
20
-138.3398379999999861
11
178.392296999999985
21
-138.2445999999999913
0
LINE
8
BLACK
6
CONTINUOUS
10
180.4875349999999798
20
-138.3398379999999861
11
180.2970589999999902
21
-138.2445999999999913
0
LINE
8
BLACK
6
CONTINUOUS
10
180.2970589999999902
20
-138.2445999999999913
11
180.2018209999999954
21
-138.0541230000000041
0
LINE
8
BLACK
6
CONTINUOUS
10
180.2018209999999954
20
-138.0541230000000041
11
180.2018209999999954
21
-136.3398379999999861
0
LINE
8
BLACK
6
CONTINUOUS
10
182.1065830000000005
20
-138.3398379999999861
11
182.1065830000000005
21
-137.2922189999999887
0
LINE
8
BLACK
6
CONTINUOUS
10
182.1065830000000005
20
-137.2922189999999887
11
182.0113450000000057
21
-137.1017420000000016
0
LINE
8
BLACK
6
CONTINUOUS
10
182.0113450000000057
20
-137.1017420000000016
11
181.8208689999999876
21
-137.0065040000000067
0
LINE
8
BLACK
6
CONTINUOUS
10
181.8208689999999876
20
-137.0065040000000067
11
181.4399159999999824
21
-137.0065040000000067
0
LINE
8
BLACK
6
CONTINUOUS
10
181.4399159999999824
20
-137.0065040000000067
11
181.2494399999999928
21
-137.1017420000000016
0
LINE
8
BLACK
6
CONTINUOUS
10
182.1065830000000005
20
-138.2445999999999913
11
181.9161069999999825
21
-138.3398379999999861
0
LINE
8
BLACK
6
CONTINUOUS
10
181.9161069999999825
20
-138.3398379999999861
11
181.4399159999999824
21
-138.3398379999999861
0
LINE
8
BLACK
6
CONTINUOUS
10
181.4399159999999824
20
-138.3398379999999861
11
181.2494399999999928
21
-138.2445999999999913
0
LINE
8
BLACK
6
CONTINUOUS
10
181.2494399999999928
20
-138.2445999999999913
11
181.154201999999998
21
-138.0541230000000041
0
LINE
8
BLACK
6
CONTINUOUS
10
181.154201999999998
20
-138.0541230000000041
11
181.154201999999998
21
-137.8636469999999861
0
LINE
8
BLACK
6
CONTINUOUS
10
181.154201999999998
20
-137.8636469999999861
11
181.2494399999999928
21
-137.6731709999999964
0
LINE
8
BLACK
6
CONTINUOUS
10
181.2494399999999928
20
-137.6731709999999964
11
181.4399159999999824
21
-137.5779330000000016
0
LINE
8
BLACK
6
CONTINUOUS
10
181.4399159999999824
20
-137.5779330000000016
11
181.9161069999999825
21
-137.5779330000000016
0
LINE
8
BLACK
6
CONTINUOUS
10
181.9161069999999825
20
-137.5779330000000016
11
182.1065830000000005
21
-137.4826950000000068
0
LINE
8
BLACK
6
CONTINUOUS
10
182.7732499999999902
20
-137.0065040000000067
11
183.5351540000000057
21
-137.0065040000000067
0
LINE
8
BLACK
6
CONTINUOUS
10
183.0589640000000031
20
-136.3398379999999861
11
183.0589640000000031
21
-138.0541230000000041
0
LINE
8
BLACK
6
CONTINUOUS
10
183.0589640000000031
20
-138.0541230000000041
11
183.154201999999998
21
-138.2445999999999913
0
LINE
8
BLACK
6
CONTINUOUS
10
183.154201999999998
20
-138.2445999999999913
11
183.3446779999999876
21
-138.3398379999999861
0
LINE
8
BLACK
6
CONTINUOUS
10
183.3446779999999876
20
-138.3398379999999861
11
183.5351540000000057
21
-138.3398379999999861
0
LINE
8
BLACK
6
CONTINUOUS
10
184.9637259999999799
20
-138.2445999999999913
11
184.7732499999999902
21
-138.3398379999999861
0
LINE
8
BLACK
6
CONTINUOUS
10
184.7732499999999902
20
-138.3398379999999861
11
184.392296999999985
21
-138.3398379999999861
0
LINE
8
BLACK
6
CONTINUOUS
10
184.392296999999985
20
-138.3398379999999861
11
184.2018209999999954
21
-138.2445999999999913
0
LINE
8
BLACK
6
CONTINUOUS
10
184.2018209999999954
20
-138.2445999999999913
11
184.1065830000000005
21
-138.0541230000000041
0
LINE
8
BLACK
6
CONTINUOUS
10
184.1065830000000005
20
-138.0541230000000041
11
184.1065830000000005
21
-137.2922189999999887
0
LINE
8
BLACK
6
CONTINUOUS
10
184.1065830000000005
20
-137.2922189999999887
11
184.2018209999999954
21
-137.1017420000000016
0
LINE
8
BLACK
6
CONTINUOUS
10
184.2018209999999954
20
-137.1017420000000016
11
184.392296999999985
21
-137.0065040000000067
0
LINE
8
BLACK
6
CONTINUOUS
10
184.392296999999985
20
-137.0065040000000067
11
184.7732499999999902
21
-137.0065040000000067
0
LINE
8
BLACK
6
CONTINUOUS
10
184.7732499999999902
20
-137.0065040000000067
11
184.9637259999999799
21
-137.1017420000000016
0
LINE
8
BLACK
6
CONTINUOUS
10
184.9637259999999799
20
-137.1017420000000016
11
185.0589640000000031
21
-137.2922189999999887
0
LINE
8
BLACK
6
CONTINUOUS
10
185.0589640000000031
20
-137.2922189999999887
11
185.0589640000000031
21
-137.4826950000000068
0
LINE
8
BLACK
6
CONTINUOUS
10
185.0589640000000031
20
-137.4826950000000068
11
184.1065830000000005
21
-137.6731709999999964
0
LINE
8
BLACK
6
CONTINUOUS
10
186.7732499999999902
20
-138.3398379999999861
11
186.7732499999999902
21
-136.3398379999999861
0
LINE
8
BLACK
6
CONTINUOUS
10
186.7732499999999902
20
-138.2445999999999913
11
186.5827740000000006
21
-138.3398379999999861
0
LINE
8
BLACK
6
CONTINUOUS
10
186.5827740000000006
20
-138.3398379999999861
11
186.2018209999999954
21
-138.3398379999999861
0
LINE
8
BLACK
6
CONTINUOUS
10
186.2018209999999954
20
-138.3398379999999861
11
186.0113450000000057
21
-138.2445999999999913
0
LINE
8
BLACK
6
CONTINUOUS
10
186.0113450000000057
20
-138.2445999999999913
11
185.9161069999999825
21
-138.149360999999999
0
LINE
8
BLACK
6
CONTINUOUS
10
185.9161069999999825
20
-138.149360999999999
11
185.8208689999999876
21
-137.9588849999999809
0
LINE
8
BLACK
6
CONTINUOUS
10
185.8208689999999876
20
-137.9588849999999809
11
185.8208689999999876
21
-137.3874569999999835
0
LINE
8
BLACK
6
CONTINUOUS
10
185.8208689999999876
20
-137.3874569999999835
11
185.9161069999999825
21
-137.1969799999999964
0
LINE
8
BLACK
6
CONTINUOUS
10
185.9161069999999825
20
-137.1969799999999964
11
186.0113450000000057
21
-137.1017420000000016
0
LINE
8
BLACK
6
CONTINUOUS
10
186.0113450000000057
20
-137.1017420000000016
11
186.2018209999999954
21
-137.0065040000000067
0
LINE
8
BLACK
6
CONTINUOUS
10
186.2018209999999954
20
-137.0065040000000067
11
186.5827740000000006
21
-137.0065040000000067
0
LINE
8
BLACK
6
CONTINUOUS
10
186.5827740000000006
20
-137.0065040000000067
11
186.7732499999999902
21
-137.1017420000000016
0
LINE
8
BLACK
6
CONTINUOUS
10
187.5351550000000032
20
-139.1017420000000016
11
187.630392999999998
21
-139.0065040000000067
0
LINE
8
BLACK
6
CONTINUOUS
10
187.630392999999998
20
-139.0065040000000067
11
187.8208689999999876
21
-138.7207899999999938
0
LINE
8
BLACK
6
CONTINUOUS
10
187.8208689999999876
20
-138.7207899999999938
11
187.9161069999999825
21
-138.5303140000000042
0
LINE
8
BLACK
6
CONTINUOUS
10
187.9161069999999825
20
-138.5303140000000042
11
188.0113449999999773
21
-138.2445999999999913
0
LINE
8
BLACK
6
CONTINUOUS
10
188.0113449999999773
20
-138.2445999999999913
11
188.1065830000000005
21
-137.7684089999999912
0
LINE
8
BLACK
6
CONTINUOUS
10
188.1065830000000005
20
-137.7684089999999912
11
188.1065830000000005
21
-137.3874569999999835
0
LINE
8
BLACK
6
CONTINUOUS
10
188.1065830000000005
20
-137.3874569999999835
11
188.0113449999999773
21
-136.9112659999999835
0
LINE
8
BLACK
6
CONTINUOUS
10
188.0113449999999773
20
-136.9112659999999835
11
187.9161069999999825
21
-136.625551999999999
0
LINE
8
BLACK
6
CONTINUOUS
10
187.9161069999999825
20
-136.625551999999999
11
187.8208689999999876
21
-136.4350759999999809
0
LINE
8
BLACK
6
CONTINUOUS
10
187.8208689999999876
20
-136.4350759999999809
11
187.630392999999998
21
-136.149360999999999
0
LINE
8
BLACK
6
CONTINUOUS
10
187.630392999999998
20
-136.149360999999999
11
187.5351550000000032
21
-136.0541230000000041
  0
ENDSEC
  0
EOF
