%TF.GenerationSoftware,KiCad,Pcbnew,10.0.3*%
%TF.CreationDate,2026-06-07T14:35:42+05:30*%
%TF.ProjectId,ArxRP2040Devboard,41727852-5032-4303-9430-446576626f61,rev?*%
%TF.SameCoordinates,Original*%
%TF.FileFunction,Plated,1,2,PTH,Mixed*%
%TF.FilePolarity,Positive*%
%FSLAX46Y46*%
G04 Gerber Fmt 4.6, Leading zero omitted, Abs format (unit mm)*
G04 Created by KiCad (PCBNEW 10.0.3) date 2026-06-07 14:35:42*
%MOMM*%
%LPD*%
G01*
G04 APERTURE LIST*
%TA.AperFunction,ViaDrill*%
%ADD10C,0.300000*%
%TD*%
G04 aperture for slot hole*
%TA.AperFunction,ComponentDrill*%
%ADD11C,0.600000*%
%TD*%
%TA.AperFunction,ComponentDrill*%
%ADD12C,1.000000*%
%TD*%
G04 APERTURE END LIST*
D10*
X123144945Y-111047238D03*
X124110000Y-95200000D03*
X124950000Y-111550000D03*
X125050000Y-107350000D03*
X125450000Y-116650000D03*
X125808949Y-106950000D03*
X126250000Y-87100000D03*
X126550000Y-104350000D03*
X126700000Y-92900000D03*
X126700000Y-102300000D03*
X126850000Y-116100000D03*
X127350000Y-115000000D03*
X127400000Y-96300000D03*
X127897838Y-110950000D03*
X127900000Y-107198452D03*
X128200000Y-98900000D03*
X128350000Y-110350000D03*
X128450000Y-111500000D03*
X128650000Y-93500000D03*
X129700000Y-99050000D03*
X129750000Y-118400000D03*
X129751046Y-100718506D03*
X130137288Y-111496610D03*
X130600000Y-98950000D03*
X130800000Y-105158527D03*
X130849997Y-111050002D03*
X131000000Y-100200000D03*
X131019140Y-102322331D03*
X131550000Y-106550000D03*
X131650000Y-111050002D03*
X132095106Y-101246364D03*
X132408297Y-100750000D03*
X132650000Y-110250000D03*
X132900000Y-111122797D03*
X133300000Y-103400000D03*
X133400000Y-96550000D03*
X133607102Y-113562369D03*
X133750000Y-87500000D03*
X133971968Y-104170000D03*
X134100000Y-81450000D03*
X134500000Y-113700000D03*
X135315479Y-103811849D03*
X136175550Y-106156295D03*
X136275735Y-106950000D03*
X136323187Y-104936331D03*
X136600000Y-93050000D03*
X137550000Y-110200000D03*
X137900000Y-85100000D03*
X138100000Y-90000000D03*
X138550000Y-87200000D03*
%TO.C,J1*%
D11*
X126180000Y-81150000D02*
X126180000Y-81750000D01*
X126180000Y-85080000D02*
X126180000Y-86180000D01*
X134820000Y-81150000D02*
X134820000Y-81750000D01*
X134820000Y-85080000D02*
X134820000Y-86180000D01*
D12*
%TO.C,J4*%
X121610000Y-81370000D03*
X121610000Y-83910000D03*
X121610000Y-86450000D03*
X121610000Y-88990000D03*
X121610000Y-91530000D03*
X121610000Y-94070000D03*
X121610000Y-96610000D03*
X121610000Y-99150000D03*
X121610000Y-101690000D03*
X121610000Y-104230000D03*
X121610000Y-106770000D03*
X121610000Y-109310000D03*
X121610000Y-111850000D03*
X121610000Y-114390000D03*
X121610000Y-116930000D03*
X121610000Y-119470000D03*
X121610000Y-122010000D03*
X121610000Y-124550000D03*
X121610000Y-127090000D03*
X121610000Y-129630000D03*
%TO.C,J2*%
X127960000Y-129390000D03*
X130500000Y-129390000D03*
X133040000Y-129390000D03*
%TO.C,J3*%
X139390000Y-81370000D03*
X139390000Y-83910000D03*
X139390000Y-86450000D03*
X139390000Y-88990000D03*
X139390000Y-91530000D03*
X139390000Y-94070000D03*
X139390000Y-96610000D03*
X139390000Y-99150000D03*
X139390000Y-101690000D03*
X139390000Y-104230000D03*
X139390000Y-106770000D03*
X139390000Y-109310000D03*
X139390000Y-111850000D03*
X139390000Y-114390000D03*
X139390000Y-116930000D03*
X139390000Y-119470000D03*
X139390000Y-122010000D03*
X139390000Y-124550000D03*
X139390000Y-127090000D03*
X139390000Y-129630000D03*
M02*
